%
M48
M72
T01C0.0197
T02C0.0320
T03C0.1260
%
T01
X900Y3140
X2400Y3390
X3400Y3390
X4400Y3390
X5400Y3390
X6400Y3390
X7400Y3265
X8400Y3265
X9400Y3265
X10400Y3265
X11275Y3265
X12400Y3390
X11400Y4265
X13900Y3640
X14900Y3390
X15650Y3265
X14400Y4390
X15025Y6015
X15900Y6765
X17400Y5640
X18275Y4015
X12525Y6265
X11150Y7640
X9775Y7890
X8775Y8140
X6400Y8265
X5400Y9390
X6400Y9890
X8400Y10015
X9400Y10140
X10400Y10140
X11400Y10140
X12400Y10140
X13400Y10140
X14400Y10140
X13400Y9140
X12400Y8765
X15900Y8640
X17275Y9890
X16400Y10265
X18400Y9765
X18900Y10765
X18400Y7890
X8400Y5890
X7525Y6015
X6650Y6140
X6275Y6765
X5275Y5765
X3025Y6515
X2900Y5890
X1900Y4515
X650Y5515
X3900Y7265
X650Y8265
X2775Y11140
T02
X4900Y10890
X5900Y10890
X6900Y10890
X7900Y10890
X8900Y10890
X9900Y10890
X10900Y10890
X11900Y10890
X12900Y10890
X13900Y10890
X14900Y10890
X15900Y10890
X16900Y10890
X17900Y10890
X18900Y6890
X18900Y4890
X17900Y4890
X16900Y4890
X15900Y4890
X14900Y4890
X13900Y4890
X12900Y4890
X11900Y4890
X10900Y4890
X9900Y4890
X8900Y4890
X7900Y4890
X6900Y4890
X5900Y4890
X4900Y4890
T03
X1150Y10640
M30
