G75*
%MOIN*%
%OFA0B0*%
%FSLAX25Y25*%
%IPPOS*%
%LPD*%
%AMOC8*
5,1,8,0,0,1.08239X$1,22.5*
%
%ADD10C,0.00800*%
%ADD11C,0.01200*%
%ADD12C,0.00600*%
%ADD13C,0.00500*%
D10*
X0009145Y0041907D02*
X0009145Y0045009D01*
X0010179Y0046043D01*
X0012247Y0046043D01*
X0013282Y0045009D01*
X0013282Y0041907D01*
X0015350Y0041907D02*
X0009145Y0041907D01*
X0012247Y0048352D02*
X0014316Y0048352D01*
X0015350Y0049386D01*
X0015350Y0051455D01*
X0014316Y0052489D01*
X0012247Y0052489D01*
X0011213Y0051455D01*
X0011213Y0049386D01*
X0012247Y0048352D01*
X0019645Y0047158D02*
X0019645Y0044055D01*
X0025850Y0044055D01*
X0023782Y0044055D02*
X0023782Y0047158D01*
X0022747Y0048192D01*
X0020679Y0048192D01*
X0019645Y0047158D01*
X0020679Y0050501D02*
X0024816Y0050501D01*
X0025850Y0051535D01*
X0025850Y0053603D01*
X0024816Y0054637D01*
X0020679Y0054637D01*
X0019645Y0053603D01*
X0019645Y0051535D01*
X0020679Y0050501D01*
X0023782Y0046124D02*
X0025850Y0048192D01*
X0030145Y0045586D02*
X0032213Y0047655D01*
X0036350Y0047655D01*
X0036350Y0049963D02*
X0035316Y0049963D01*
X0035316Y0050998D01*
X0036350Y0050998D01*
X0036350Y0049963D01*
X0033247Y0047655D02*
X0033247Y0043518D01*
X0032213Y0043518D02*
X0030145Y0045586D01*
X0032213Y0043518D02*
X0036350Y0043518D01*
X0036350Y0053186D02*
X0030145Y0053186D01*
X0033247Y0054220D02*
X0036350Y0057323D01*
X0036350Y0059632D02*
X0035316Y0059632D01*
X0035316Y0060666D01*
X0036350Y0060666D01*
X0036350Y0059632D01*
X0030145Y0057323D02*
X0034282Y0053186D01*
X0025850Y0056946D02*
X0019645Y0056946D01*
X0021713Y0059015D01*
X0019645Y0061083D01*
X0025850Y0061083D01*
X0015350Y0061243D02*
X0009145Y0061243D01*
X0011213Y0058934D02*
X0011213Y0055832D01*
X0012247Y0054798D01*
X0014316Y0054798D01*
X0015350Y0055832D01*
X0015350Y0058934D01*
X0013282Y0061243D02*
X0011213Y0064346D01*
X0012247Y0066614D02*
X0011213Y0067649D01*
X0011213Y0069717D01*
X0012247Y0070751D01*
X0013282Y0070751D01*
X0013282Y0066614D01*
X0014316Y0066614D02*
X0012247Y0066614D01*
X0014316Y0066614D02*
X0015350Y0067649D01*
X0015350Y0069717D01*
X0019645Y0070871D02*
X0019645Y0072940D01*
X0020679Y0073974D01*
X0019645Y0070871D02*
X0020679Y0069837D01*
X0024816Y0069837D01*
X0025850Y0070871D01*
X0025850Y0072940D01*
X0024816Y0073974D01*
X0024816Y0076283D02*
X0023782Y0077317D01*
X0023782Y0080419D01*
X0022747Y0080419D02*
X0025850Y0080419D01*
X0025850Y0077317D01*
X0024816Y0076283D01*
X0021713Y0077317D02*
X0021713Y0079385D01*
X0022747Y0080419D01*
X0021713Y0082728D02*
X0025850Y0082728D01*
X0023782Y0082728D02*
X0021713Y0084797D01*
X0021713Y0085831D01*
X0022747Y0088099D02*
X0021713Y0089134D01*
X0021713Y0092236D01*
X0019645Y0092236D02*
X0025850Y0092236D01*
X0025850Y0089134D01*
X0024816Y0088099D01*
X0022747Y0088099D01*
X0015350Y0086905D02*
X0015350Y0084837D01*
X0014316Y0083802D01*
X0012247Y0083802D01*
X0012247Y0086905D01*
X0013282Y0087939D01*
X0014316Y0087939D01*
X0015350Y0086905D01*
X0012247Y0083802D02*
X0010179Y0085871D01*
X0009145Y0087939D01*
X0009145Y0090248D02*
X0012247Y0090248D01*
X0011213Y0092316D01*
X0011213Y0093350D01*
X0012247Y0094385D01*
X0014316Y0094385D01*
X0015350Y0093350D01*
X0015350Y0091282D01*
X0014316Y0090248D01*
X0009145Y0090248D02*
X0009145Y0094385D01*
X0010179Y0081494D02*
X0009145Y0080459D01*
X0009145Y0078391D01*
X0010179Y0077357D01*
X0011213Y0075128D02*
X0011213Y0073060D01*
X0010179Y0074094D02*
X0014316Y0074094D01*
X0015350Y0075128D01*
X0015350Y0077357D02*
X0011213Y0081494D01*
X0010179Y0081494D01*
X0015350Y0081494D02*
X0015350Y0077357D01*
X0030145Y0076780D02*
X0031179Y0075745D01*
X0035316Y0075745D01*
X0031179Y0079882D01*
X0035316Y0079882D01*
X0036350Y0078848D01*
X0036350Y0076780D01*
X0035316Y0075745D01*
X0036350Y0073437D02*
X0036350Y0069300D01*
X0032213Y0073437D01*
X0031179Y0073437D01*
X0030145Y0072403D01*
X0030145Y0070334D01*
X0031179Y0069300D01*
X0030145Y0076780D02*
X0030145Y0078848D01*
X0031179Y0079882D01*
X0031179Y0082191D02*
X0030145Y0083225D01*
X0030145Y0085294D01*
X0031179Y0086328D01*
X0032213Y0086328D01*
X0036350Y0082191D01*
X0036350Y0086328D01*
X0036350Y0088636D02*
X0032213Y0092773D01*
X0031179Y0092773D01*
X0030145Y0091739D01*
X0030145Y0089671D01*
X0031179Y0088636D01*
X0036350Y0088636D02*
X0036350Y0092773D01*
X0015350Y0064346D02*
X0013282Y0061243D01*
D11*
X0098350Y0075750D02*
X0104222Y0081622D01*
X0104222Y0083090D01*
X0102754Y0084558D01*
X0099818Y0084558D01*
X0098350Y0083090D01*
X0107558Y0084558D02*
X0113430Y0084558D01*
X0113430Y0083090D01*
X0107558Y0077218D01*
X0107558Y0075750D01*
X0104222Y0075750D02*
X0098350Y0075750D01*
X0116766Y0077218D02*
X0118234Y0075750D01*
X0121169Y0075750D01*
X0122637Y0077218D01*
X0122637Y0078686D01*
X0121169Y0080154D01*
X0116766Y0080154D01*
X0116766Y0077218D01*
X0116766Y0080154D02*
X0119702Y0083090D01*
X0122637Y0084558D01*
X0125974Y0080154D02*
X0131845Y0080154D01*
X0130377Y0075750D02*
X0130377Y0084558D01*
X0125974Y0080154D01*
X0186000Y0060200D02*
X0189000Y0060200D01*
X0192000Y0060200D01*
X0192000Y0057700D02*
X0189000Y0057700D01*
X0186000Y0057700D01*
D12*
X0189000Y0057700D02*
X0189000Y0053900D01*
X0186500Y0050400D02*
X0186413Y0050402D01*
X0186326Y0050408D01*
X0186239Y0050417D01*
X0186153Y0050430D01*
X0186067Y0050447D01*
X0185982Y0050468D01*
X0185899Y0050493D01*
X0185816Y0050521D01*
X0185735Y0050552D01*
X0185655Y0050587D01*
X0185577Y0050626D01*
X0185500Y0050668D01*
X0185425Y0050713D01*
X0185353Y0050762D01*
X0185282Y0050813D01*
X0185214Y0050868D01*
X0185149Y0050925D01*
X0185086Y0050986D01*
X0185025Y0051049D01*
X0184968Y0051114D01*
X0184913Y0051182D01*
X0184862Y0051253D01*
X0184813Y0051325D01*
X0184768Y0051400D01*
X0184726Y0051477D01*
X0184687Y0051555D01*
X0184652Y0051635D01*
X0184621Y0051716D01*
X0184593Y0051799D01*
X0184568Y0051882D01*
X0184547Y0051967D01*
X0184530Y0052053D01*
X0184517Y0052139D01*
X0184508Y0052226D01*
X0184502Y0052313D01*
X0184500Y0052400D01*
X0184500Y0065400D01*
X0184502Y0065487D01*
X0184508Y0065574D01*
X0184517Y0065661D01*
X0184530Y0065747D01*
X0184547Y0065833D01*
X0184568Y0065918D01*
X0184593Y0066001D01*
X0184621Y0066084D01*
X0184652Y0066165D01*
X0184687Y0066245D01*
X0184726Y0066323D01*
X0184768Y0066400D01*
X0184813Y0066475D01*
X0184862Y0066547D01*
X0184913Y0066618D01*
X0184968Y0066686D01*
X0185025Y0066751D01*
X0185086Y0066814D01*
X0185149Y0066875D01*
X0185214Y0066932D01*
X0185282Y0066987D01*
X0185353Y0067038D01*
X0185425Y0067087D01*
X0185500Y0067132D01*
X0185577Y0067174D01*
X0185655Y0067213D01*
X0185735Y0067248D01*
X0185816Y0067279D01*
X0185899Y0067307D01*
X0185982Y0067332D01*
X0186067Y0067353D01*
X0186153Y0067370D01*
X0186239Y0067383D01*
X0186326Y0067392D01*
X0186413Y0067398D01*
X0186500Y0067400D01*
X0191500Y0067400D02*
X0191587Y0067398D01*
X0191674Y0067392D01*
X0191761Y0067383D01*
X0191847Y0067370D01*
X0191933Y0067353D01*
X0192018Y0067332D01*
X0192101Y0067307D01*
X0192184Y0067279D01*
X0192265Y0067248D01*
X0192345Y0067213D01*
X0192423Y0067174D01*
X0192500Y0067132D01*
X0192575Y0067087D01*
X0192647Y0067038D01*
X0192718Y0066987D01*
X0192786Y0066932D01*
X0192851Y0066875D01*
X0192914Y0066814D01*
X0192975Y0066751D01*
X0193032Y0066686D01*
X0193087Y0066618D01*
X0193138Y0066547D01*
X0193187Y0066475D01*
X0193232Y0066400D01*
X0193274Y0066323D01*
X0193313Y0066245D01*
X0193348Y0066165D01*
X0193379Y0066084D01*
X0193407Y0066001D01*
X0193432Y0065918D01*
X0193453Y0065833D01*
X0193470Y0065747D01*
X0193483Y0065661D01*
X0193492Y0065574D01*
X0193498Y0065487D01*
X0193500Y0065400D01*
X0193500Y0052400D01*
X0193498Y0052313D01*
X0193492Y0052226D01*
X0193483Y0052139D01*
X0193470Y0052053D01*
X0193453Y0051967D01*
X0193432Y0051882D01*
X0193407Y0051799D01*
X0193379Y0051716D01*
X0193348Y0051635D01*
X0193313Y0051555D01*
X0193274Y0051477D01*
X0193232Y0051400D01*
X0193187Y0051325D01*
X0193138Y0051253D01*
X0193087Y0051182D01*
X0193032Y0051114D01*
X0192975Y0051049D01*
X0192914Y0050986D01*
X0192851Y0050925D01*
X0192786Y0050868D01*
X0192718Y0050813D01*
X0192647Y0050762D01*
X0192575Y0050713D01*
X0192500Y0050668D01*
X0192423Y0050626D01*
X0192345Y0050587D01*
X0192265Y0050552D01*
X0192184Y0050521D01*
X0192101Y0050493D01*
X0192018Y0050468D01*
X0191933Y0050447D01*
X0191847Y0050430D01*
X0191761Y0050417D01*
X0191674Y0050408D01*
X0191587Y0050402D01*
X0191500Y0050400D01*
X0184000Y0052400D02*
X0184000Y0074900D01*
X0183874Y0074902D01*
X0183749Y0074908D01*
X0183624Y0074918D01*
X0183499Y0074932D01*
X0183374Y0074949D01*
X0183250Y0074971D01*
X0183127Y0074996D01*
X0183005Y0075026D01*
X0182884Y0075059D01*
X0182764Y0075096D01*
X0182645Y0075136D01*
X0182528Y0075181D01*
X0182411Y0075229D01*
X0182297Y0075281D01*
X0182184Y0075336D01*
X0182073Y0075395D01*
X0181964Y0075457D01*
X0181857Y0075523D01*
X0181752Y0075592D01*
X0181649Y0075664D01*
X0181548Y0075739D01*
X0181450Y0075818D01*
X0181355Y0075900D01*
X0181262Y0075984D01*
X0181172Y0076072D01*
X0181084Y0076162D01*
X0181000Y0076255D01*
X0180918Y0076350D01*
X0180839Y0076448D01*
X0180764Y0076549D01*
X0180692Y0076652D01*
X0180623Y0076757D01*
X0180557Y0076864D01*
X0180495Y0076973D01*
X0180436Y0077084D01*
X0180381Y0077197D01*
X0180329Y0077311D01*
X0180281Y0077428D01*
X0180236Y0077545D01*
X0180196Y0077664D01*
X0180159Y0077784D01*
X0180126Y0077905D01*
X0180096Y0078027D01*
X0180071Y0078150D01*
X0180049Y0078274D01*
X0180032Y0078399D01*
X0180018Y0078524D01*
X0180008Y0078649D01*
X0180002Y0078774D01*
X0180000Y0078900D01*
X0180002Y0079026D01*
X0180008Y0079151D01*
X0180018Y0079276D01*
X0180032Y0079401D01*
X0180049Y0079526D01*
X0180071Y0079650D01*
X0180096Y0079773D01*
X0180126Y0079895D01*
X0180159Y0080016D01*
X0180196Y0080136D01*
X0180236Y0080255D01*
X0180281Y0080372D01*
X0180329Y0080489D01*
X0180381Y0080603D01*
X0180436Y0080716D01*
X0180495Y0080827D01*
X0180557Y0080936D01*
X0180623Y0081043D01*
X0180692Y0081148D01*
X0180764Y0081251D01*
X0180839Y0081352D01*
X0180918Y0081450D01*
X0181000Y0081545D01*
X0181084Y0081638D01*
X0181172Y0081728D01*
X0181262Y0081816D01*
X0181355Y0081900D01*
X0181450Y0081982D01*
X0181548Y0082061D01*
X0181649Y0082136D01*
X0181752Y0082208D01*
X0181857Y0082277D01*
X0181964Y0082343D01*
X0182073Y0082405D01*
X0182184Y0082464D01*
X0182297Y0082519D01*
X0182411Y0082571D01*
X0182528Y0082619D01*
X0182645Y0082664D01*
X0182764Y0082704D01*
X0182884Y0082741D01*
X0183005Y0082774D01*
X0183127Y0082804D01*
X0183250Y0082829D01*
X0183374Y0082851D01*
X0183499Y0082868D01*
X0183624Y0082882D01*
X0183749Y0082892D01*
X0183874Y0082898D01*
X0184000Y0082900D01*
X0184000Y0105400D01*
X0044000Y0105400D01*
X0044000Y0052400D01*
X0184000Y0052400D01*
X0189000Y0060200D02*
X0189000Y0063900D01*
X0191132Y0092309D02*
X0185795Y0092309D01*
X0185795Y0096579D02*
X0191132Y0096579D01*
X0192200Y0095512D01*
X0192200Y0093377D01*
X0191132Y0092309D01*
X0192200Y0098754D02*
X0192200Y0103025D01*
X0192200Y0100890D02*
X0185795Y0100890D01*
X0187930Y0098754D01*
D13*
X0191750Y0041049D02*
X0191750Y0038046D01*
X0191750Y0039547D02*
X0187246Y0039547D01*
X0188747Y0038046D01*
X0187997Y0036445D02*
X0187246Y0035694D01*
X0187246Y0034193D01*
X0187997Y0033442D01*
X0190999Y0033442D01*
X0191750Y0034193D01*
X0191750Y0035694D01*
X0190999Y0036445D01*
M02*
