G75*
%MOIN*%
%OFA0B0*%
%FSLAX25Y25*%
%IPPOS*%
%LPD*%
%AMOC8*
5,1,8,0,0,1.08239X$1,22.5*
%
%ADD10R,0.07000X0.25000*%
%ADD11OC8,0.05200*%
%ADD12C,0.05200*%
%ADD13C,0.01000*%
%ADD14C,0.02400*%
%ADD15C,0.03569*%
D10*
X0009000Y0013900D03*
X0019000Y0013900D03*
X0029000Y0013900D03*
X0039000Y0013900D03*
X0049000Y0013900D03*
X0059000Y0013900D03*
X0069000Y0013900D03*
X0079000Y0013900D03*
X0089000Y0013900D03*
X0099000Y0013900D03*
X0109000Y0013900D03*
X0119000Y0013900D03*
X0129000Y0013900D03*
X0139000Y0013900D03*
X0149000Y0013900D03*
X0159000Y0013900D03*
X0169000Y0013900D03*
X0179000Y0013900D03*
X0189000Y0013900D03*
D11*
X0189000Y0048900D03*
X0189000Y0068900D03*
D12*
X0179000Y0051500D02*
X0179000Y0046300D01*
X0169000Y0046300D02*
X0169000Y0051500D01*
X0159000Y0051500D02*
X0159000Y0046300D01*
X0149000Y0046300D02*
X0149000Y0051500D01*
X0139000Y0051500D02*
X0139000Y0046300D01*
X0129000Y0046300D02*
X0129000Y0051500D01*
X0119000Y0051500D02*
X0119000Y0046300D01*
X0109000Y0046300D02*
X0109000Y0051500D01*
X0099000Y0051500D02*
X0099000Y0046300D01*
X0089000Y0046300D02*
X0089000Y0051500D01*
X0079000Y0051500D02*
X0079000Y0046300D01*
X0069000Y0046300D02*
X0069000Y0051500D01*
X0059000Y0051500D02*
X0059000Y0046300D01*
X0049000Y0046300D02*
X0049000Y0051500D01*
X0049000Y0106300D02*
X0049000Y0111500D01*
X0059000Y0111500D02*
X0059000Y0106300D01*
X0069000Y0106300D02*
X0069000Y0111500D01*
X0079000Y0111500D02*
X0079000Y0106300D01*
X0089000Y0106300D02*
X0089000Y0111500D01*
X0099000Y0111500D02*
X0099000Y0106300D01*
X0109000Y0106300D02*
X0109000Y0111500D01*
X0119000Y0111500D02*
X0119000Y0106300D01*
X0129000Y0106300D02*
X0129000Y0111500D01*
X0139000Y0111500D02*
X0139000Y0106300D01*
X0149000Y0106300D02*
X0149000Y0111500D01*
X0159000Y0111500D02*
X0159000Y0106300D01*
X0169000Y0106300D02*
X0169000Y0111500D01*
X0179000Y0111500D02*
X0179000Y0106300D01*
D13*
X0182802Y0104765D02*
X0194750Y0104765D01*
X0194750Y0105763D02*
X0183100Y0105763D01*
X0183100Y0105484D02*
X0183100Y0112316D01*
X0182476Y0113822D01*
X0181648Y0114650D01*
X0194750Y0114650D01*
X0194750Y0028900D01*
X0191700Y0028900D01*
X0191700Y0045802D01*
X0193100Y0047202D01*
X0193100Y0050598D01*
X0190698Y0053000D01*
X0187302Y0053000D01*
X0185902Y0051600D01*
X0183100Y0051600D01*
X0183100Y0052316D01*
X0182476Y0053822D01*
X0181700Y0054598D01*
X0181700Y0103202D01*
X0182476Y0103978D01*
X0183100Y0105484D01*
X0183100Y0106762D02*
X0194750Y0106762D01*
X0194750Y0107760D02*
X0183100Y0107760D01*
X0183100Y0108759D02*
X0194750Y0108759D01*
X0194750Y0109757D02*
X0183100Y0109757D01*
X0183100Y0110756D02*
X0194750Y0110756D01*
X0194750Y0111754D02*
X0183100Y0111754D01*
X0182919Y0112753D02*
X0194750Y0112753D01*
X0194750Y0113751D02*
X0182505Y0113751D01*
X0176352Y0114650D02*
X0175524Y0113822D01*
X0174900Y0112316D01*
X0174900Y0105484D01*
X0175524Y0103978D01*
X0176300Y0103202D01*
X0176300Y0054598D01*
X0175524Y0053822D01*
X0174900Y0052316D01*
X0174900Y0050900D01*
X0173100Y0050900D01*
X0173100Y0052316D01*
X0172476Y0053822D01*
X0171322Y0054976D01*
X0169816Y0055600D01*
X0168184Y0055600D01*
X0166678Y0054976D01*
X0165524Y0053822D01*
X0164900Y0052316D01*
X0164900Y0045484D01*
X0165524Y0043978D01*
X0166678Y0042824D01*
X0168184Y0042200D01*
X0169816Y0042200D01*
X0171322Y0042824D01*
X0172476Y0043978D01*
X0173100Y0045484D01*
X0173100Y0046900D01*
X0174900Y0046900D01*
X0174900Y0045484D01*
X0175524Y0043978D01*
X0176678Y0042824D01*
X0178184Y0042200D01*
X0179816Y0042200D01*
X0181322Y0042824D01*
X0182476Y0043978D01*
X0183100Y0045484D01*
X0183100Y0046200D01*
X0185902Y0046200D01*
X0186300Y0045802D01*
X0186300Y0037150D01*
X0180672Y0037150D01*
X0179500Y0035978D01*
X0177000Y0033478D01*
X0177000Y0028900D01*
X0151000Y0028900D01*
X0151000Y0031255D01*
X0151784Y0032040D01*
X0152284Y0033247D01*
X0152284Y0034553D01*
X0151784Y0035760D01*
X0150860Y0036684D01*
X0149978Y0037050D01*
X0154828Y0041900D01*
X0154828Y0041900D01*
X0156000Y0043072D01*
X0156000Y0043502D01*
X0156678Y0042824D01*
X0158184Y0042200D01*
X0159816Y0042200D01*
X0161322Y0042824D01*
X0162476Y0043978D01*
X0163100Y0045484D01*
X0163100Y0052316D01*
X0162476Y0053822D01*
X0161322Y0054976D01*
X0159816Y0055600D01*
X0158184Y0055600D01*
X0156678Y0054976D01*
X0156000Y0054298D01*
X0156000Y0086822D01*
X0169828Y0100650D01*
X0171000Y0101822D01*
X0171000Y0102691D01*
X0171322Y0102824D01*
X0172476Y0103978D01*
X0173100Y0105484D01*
X0173100Y0112316D01*
X0172476Y0113822D01*
X0171648Y0114650D01*
X0176352Y0114650D01*
X0175495Y0113751D02*
X0172505Y0113751D01*
X0172919Y0112753D02*
X0175081Y0112753D01*
X0174900Y0111754D02*
X0173100Y0111754D01*
X0173100Y0110756D02*
X0174900Y0110756D01*
X0174900Y0109757D02*
X0173100Y0109757D01*
X0173100Y0108759D02*
X0174900Y0108759D01*
X0174900Y0107760D02*
X0173100Y0107760D01*
X0173100Y0106762D02*
X0174900Y0106762D01*
X0174900Y0105763D02*
X0173100Y0105763D01*
X0172802Y0104765D02*
X0175198Y0104765D01*
X0175736Y0103766D02*
X0172264Y0103766D01*
X0171186Y0102768D02*
X0176300Y0102768D01*
X0176300Y0101769D02*
X0170947Y0101769D01*
X0169949Y0100770D02*
X0176300Y0100770D01*
X0176300Y0099772D02*
X0168950Y0099772D01*
X0167952Y0098773D02*
X0176300Y0098773D01*
X0176300Y0097775D02*
X0166953Y0097775D01*
X0165955Y0096776D02*
X0176300Y0096776D01*
X0176300Y0095778D02*
X0164956Y0095778D01*
X0163958Y0094779D02*
X0176300Y0094779D01*
X0176300Y0093781D02*
X0162959Y0093781D01*
X0161961Y0092782D02*
X0176300Y0092782D01*
X0176300Y0091784D02*
X0160962Y0091784D01*
X0159964Y0090785D02*
X0176300Y0090785D01*
X0176300Y0089787D02*
X0158965Y0089787D01*
X0157967Y0088788D02*
X0176300Y0088788D01*
X0176300Y0087790D02*
X0156968Y0087790D01*
X0156000Y0086791D02*
X0176300Y0086791D01*
X0176300Y0085793D02*
X0156000Y0085793D01*
X0156000Y0084794D02*
X0176300Y0084794D01*
X0176300Y0083796D02*
X0156000Y0083796D01*
X0156000Y0082797D02*
X0176300Y0082797D01*
X0176300Y0081799D02*
X0156000Y0081799D01*
X0156000Y0080800D02*
X0176300Y0080800D01*
X0176300Y0079802D02*
X0156000Y0079802D01*
X0156000Y0078803D02*
X0176300Y0078803D01*
X0176300Y0077805D02*
X0156000Y0077805D01*
X0156000Y0076806D02*
X0176300Y0076806D01*
X0176300Y0075808D02*
X0156000Y0075808D01*
X0156000Y0074809D02*
X0176300Y0074809D01*
X0176300Y0073811D02*
X0156000Y0073811D01*
X0156000Y0072812D02*
X0176300Y0072812D01*
X0176300Y0071814D02*
X0156000Y0071814D01*
X0156000Y0070815D02*
X0176300Y0070815D01*
X0176300Y0069817D02*
X0156000Y0069817D01*
X0156000Y0068818D02*
X0176300Y0068818D01*
X0176300Y0067820D02*
X0156000Y0067820D01*
X0156000Y0066821D02*
X0176300Y0066821D01*
X0176300Y0065823D02*
X0156000Y0065823D01*
X0156000Y0064824D02*
X0176300Y0064824D01*
X0176300Y0063826D02*
X0156000Y0063826D01*
X0156000Y0062827D02*
X0176300Y0062827D01*
X0176300Y0061829D02*
X0156000Y0061829D01*
X0156000Y0060830D02*
X0176300Y0060830D01*
X0176300Y0059832D02*
X0156000Y0059832D01*
X0156000Y0058833D02*
X0176300Y0058833D01*
X0176300Y0057834D02*
X0156000Y0057834D01*
X0156000Y0056836D02*
X0176300Y0056836D01*
X0176300Y0055837D02*
X0156000Y0055837D01*
X0156000Y0054839D02*
X0156541Y0054839D01*
X0161459Y0054839D02*
X0166541Y0054839D01*
X0165542Y0053840D02*
X0162458Y0053840D01*
X0162882Y0052842D02*
X0165118Y0052842D01*
X0164900Y0051843D02*
X0163100Y0051843D01*
X0163100Y0050845D02*
X0164900Y0050845D01*
X0164900Y0049846D02*
X0163100Y0049846D01*
X0163100Y0048848D02*
X0164900Y0048848D01*
X0164900Y0047849D02*
X0163100Y0047849D01*
X0163100Y0046851D02*
X0164900Y0046851D01*
X0164900Y0045852D02*
X0163100Y0045852D01*
X0162839Y0044854D02*
X0165161Y0044854D01*
X0165646Y0043855D02*
X0162354Y0043855D01*
X0161355Y0042857D02*
X0166645Y0042857D01*
X0171355Y0042857D02*
X0176645Y0042857D01*
X0175646Y0043855D02*
X0172354Y0043855D01*
X0172839Y0044854D02*
X0175161Y0044854D01*
X0174900Y0045852D02*
X0173100Y0045852D01*
X0173100Y0046851D02*
X0174900Y0046851D01*
X0179000Y0048900D02*
X0169000Y0048900D01*
X0173100Y0051843D02*
X0174900Y0051843D01*
X0175118Y0052842D02*
X0172882Y0052842D01*
X0172458Y0053840D02*
X0175542Y0053840D01*
X0176300Y0054839D02*
X0171459Y0054839D01*
X0181700Y0054839D02*
X0194750Y0054839D01*
X0194750Y0055837D02*
X0181700Y0055837D01*
X0181700Y0056836D02*
X0194750Y0056836D01*
X0194750Y0057834D02*
X0181700Y0057834D01*
X0181700Y0058833D02*
X0194750Y0058833D01*
X0194750Y0059832D02*
X0181700Y0059832D01*
X0181700Y0060830D02*
X0194750Y0060830D01*
X0194750Y0061829D02*
X0181700Y0061829D01*
X0181700Y0062827D02*
X0194750Y0062827D01*
X0194750Y0063826D02*
X0181700Y0063826D01*
X0181700Y0064824D02*
X0187278Y0064824D01*
X0187302Y0064800D02*
X0184900Y0067202D01*
X0184900Y0068600D01*
X0188700Y0068600D01*
X0188700Y0069200D01*
X0188700Y0073000D01*
X0187302Y0073000D01*
X0184900Y0070598D01*
X0184900Y0069200D01*
X0188700Y0069200D01*
X0189300Y0069200D01*
X0189300Y0073000D01*
X0190698Y0073000D01*
X0193100Y0070598D01*
X0193100Y0069200D01*
X0189300Y0069200D01*
X0189300Y0068600D01*
X0193100Y0068600D01*
X0193100Y0067202D01*
X0190698Y0064800D01*
X0189300Y0064800D01*
X0189300Y0068600D01*
X0188700Y0068600D01*
X0188700Y0064800D01*
X0187302Y0064800D01*
X0188700Y0064824D02*
X0189300Y0064824D01*
X0189300Y0065823D02*
X0188700Y0065823D01*
X0188700Y0066821D02*
X0189300Y0066821D01*
X0189300Y0067820D02*
X0188700Y0067820D01*
X0188700Y0068818D02*
X0181700Y0068818D01*
X0181700Y0067820D02*
X0184900Y0067820D01*
X0185281Y0066821D02*
X0181700Y0066821D01*
X0181700Y0065823D02*
X0186279Y0065823D01*
X0190722Y0064824D02*
X0194750Y0064824D01*
X0194750Y0065823D02*
X0191721Y0065823D01*
X0192719Y0066821D02*
X0194750Y0066821D01*
X0194750Y0067820D02*
X0193100Y0067820D01*
X0194750Y0068818D02*
X0189300Y0068818D01*
X0189300Y0069817D02*
X0188700Y0069817D01*
X0188700Y0070815D02*
X0189300Y0070815D01*
X0189300Y0071814D02*
X0188700Y0071814D01*
X0188700Y0072812D02*
X0189300Y0072812D01*
X0190886Y0072812D02*
X0194750Y0072812D01*
X0194750Y0071814D02*
X0191885Y0071814D01*
X0192883Y0070815D02*
X0194750Y0070815D01*
X0194750Y0069817D02*
X0193100Y0069817D01*
X0194750Y0073811D02*
X0181700Y0073811D01*
X0181700Y0074809D02*
X0194750Y0074809D01*
X0194750Y0075808D02*
X0181700Y0075808D01*
X0181700Y0076806D02*
X0194750Y0076806D01*
X0194750Y0077805D02*
X0181700Y0077805D01*
X0181700Y0078803D02*
X0194750Y0078803D01*
X0194750Y0079802D02*
X0181700Y0079802D01*
X0181700Y0080800D02*
X0194750Y0080800D01*
X0194750Y0081799D02*
X0181700Y0081799D01*
X0181700Y0082797D02*
X0194750Y0082797D01*
X0194750Y0083796D02*
X0181700Y0083796D01*
X0181700Y0084794D02*
X0194750Y0084794D01*
X0194750Y0085793D02*
X0181700Y0085793D01*
X0181700Y0086791D02*
X0194750Y0086791D01*
X0194750Y0087790D02*
X0181700Y0087790D01*
X0181700Y0088788D02*
X0194750Y0088788D01*
X0194750Y0089787D02*
X0181700Y0089787D01*
X0181700Y0090785D02*
X0194750Y0090785D01*
X0194750Y0091784D02*
X0181700Y0091784D01*
X0181700Y0092782D02*
X0194750Y0092782D01*
X0194750Y0093781D02*
X0181700Y0093781D01*
X0181700Y0094779D02*
X0194750Y0094779D01*
X0194750Y0095778D02*
X0181700Y0095778D01*
X0181700Y0096776D02*
X0194750Y0096776D01*
X0194750Y0097775D02*
X0181700Y0097775D01*
X0181700Y0098773D02*
X0194750Y0098773D01*
X0194750Y0099772D02*
X0181700Y0099772D01*
X0181700Y0100770D02*
X0194750Y0100770D01*
X0194750Y0101769D02*
X0181700Y0101769D01*
X0181700Y0102768D02*
X0194750Y0102768D01*
X0194750Y0103766D02*
X0182264Y0103766D01*
X0169000Y0102650D02*
X0169000Y0108900D01*
X0164900Y0108759D02*
X0163100Y0108759D01*
X0163100Y0109757D02*
X0164900Y0109757D01*
X0164900Y0110756D02*
X0163100Y0110756D01*
X0163100Y0111754D02*
X0164900Y0111754D01*
X0164900Y0112316D02*
X0164900Y0105484D01*
X0165524Y0103978D01*
X0166512Y0102990D01*
X0152000Y0088478D01*
X0152000Y0054298D01*
X0151322Y0054976D01*
X0150350Y0055379D01*
X0146000Y0059728D01*
X0144828Y0060900D01*
X0120078Y0060900D01*
X0161000Y0101822D01*
X0161000Y0102691D01*
X0161322Y0102824D01*
X0162476Y0103978D01*
X0163100Y0105484D01*
X0163100Y0112316D01*
X0162476Y0113822D01*
X0161648Y0114650D01*
X0166352Y0114650D01*
X0165524Y0113822D01*
X0164900Y0112316D01*
X0165081Y0112753D02*
X0162919Y0112753D01*
X0162505Y0113751D02*
X0165495Y0113751D01*
X0159000Y0108900D02*
X0159000Y0102650D01*
X0117750Y0061400D01*
X0091500Y0061400D01*
X0084000Y0053900D01*
X0084000Y0041400D01*
X0089000Y0036400D01*
X0089000Y0013900D01*
X0079000Y0013900D02*
X0079000Y0036400D01*
X0074000Y0041400D01*
X0074000Y0053900D01*
X0084000Y0063900D01*
X0116500Y0063900D01*
X0149000Y0096400D01*
X0149000Y0108900D01*
X0144900Y0108759D02*
X0143100Y0108759D01*
X0143100Y0109757D02*
X0144900Y0109757D01*
X0144900Y0110756D02*
X0143100Y0110756D01*
X0143100Y0111754D02*
X0144900Y0111754D01*
X0144900Y0112316D02*
X0144900Y0105484D01*
X0145524Y0103978D01*
X0146678Y0102824D01*
X0147000Y0102691D01*
X0147000Y0097228D01*
X0141000Y0091228D01*
X0141000Y0102691D01*
X0141322Y0102824D01*
X0142476Y0103978D01*
X0143100Y0105484D01*
X0143100Y0112316D01*
X0142476Y0113822D01*
X0141648Y0114650D01*
X0146352Y0114650D01*
X0145524Y0113822D01*
X0144900Y0112316D01*
X0145081Y0112753D02*
X0142919Y0112753D01*
X0142505Y0113751D02*
X0145495Y0113751D01*
X0139000Y0108900D02*
X0139000Y0090150D01*
X0115250Y0066400D01*
X0076500Y0066400D01*
X0064000Y0053900D01*
X0064000Y0041400D01*
X0069000Y0036400D01*
X0069000Y0013900D01*
X0059000Y0013900D02*
X0059000Y0036400D01*
X0054000Y0041400D01*
X0054000Y0053900D01*
X0069000Y0068900D01*
X0114000Y0068900D01*
X0129000Y0083900D01*
X0129000Y0108900D01*
X0133100Y0108759D02*
X0134900Y0108759D01*
X0134900Y0109757D02*
X0133100Y0109757D01*
X0133100Y0110756D02*
X0134900Y0110756D01*
X0134900Y0111754D02*
X0133100Y0111754D01*
X0133100Y0112316D02*
X0132476Y0113822D01*
X0131648Y0114650D01*
X0136352Y0114650D01*
X0135524Y0113822D01*
X0134900Y0112316D01*
X0134900Y0105484D01*
X0135524Y0103978D01*
X0136678Y0102824D01*
X0137000Y0102691D01*
X0137000Y0090978D01*
X0131000Y0084978D01*
X0131000Y0102691D01*
X0131322Y0102824D01*
X0132476Y0103978D01*
X0133100Y0105484D01*
X0133100Y0112316D01*
X0132919Y0112753D02*
X0135081Y0112753D01*
X0135495Y0113751D02*
X0132505Y0113751D01*
X0126352Y0114650D02*
X0125524Y0113822D01*
X0124900Y0112316D01*
X0124900Y0105484D01*
X0125524Y0103978D01*
X0126678Y0102824D01*
X0127000Y0102691D01*
X0127000Y0084728D01*
X0121000Y0078728D01*
X0121000Y0102691D01*
X0121322Y0102824D01*
X0122476Y0103978D01*
X0123100Y0105484D01*
X0123100Y0112316D01*
X0122476Y0113822D01*
X0121648Y0114650D01*
X0126352Y0114650D01*
X0125495Y0113751D02*
X0122505Y0113751D01*
X0122919Y0112753D02*
X0125081Y0112753D01*
X0124900Y0111754D02*
X0123100Y0111754D01*
X0123100Y0110756D02*
X0124900Y0110756D01*
X0124900Y0109757D02*
X0123100Y0109757D01*
X0123100Y0108759D02*
X0124900Y0108759D01*
X0124900Y0107760D02*
X0123100Y0107760D01*
X0123100Y0106762D02*
X0124900Y0106762D01*
X0124900Y0105763D02*
X0123100Y0105763D01*
X0122802Y0104765D02*
X0125198Y0104765D01*
X0125736Y0103766D02*
X0122264Y0103766D01*
X0121186Y0102768D02*
X0126814Y0102768D01*
X0127000Y0101769D02*
X0121000Y0101769D01*
X0121000Y0100770D02*
X0127000Y0100770D01*
X0127000Y0099772D02*
X0121000Y0099772D01*
X0121000Y0098773D02*
X0127000Y0098773D01*
X0127000Y0097775D02*
X0121000Y0097775D01*
X0121000Y0096776D02*
X0127000Y0096776D01*
X0127000Y0095778D02*
X0121000Y0095778D01*
X0121000Y0094779D02*
X0127000Y0094779D01*
X0127000Y0093781D02*
X0121000Y0093781D01*
X0121000Y0092782D02*
X0127000Y0092782D01*
X0127000Y0091784D02*
X0121000Y0091784D01*
X0121000Y0090785D02*
X0127000Y0090785D01*
X0127000Y0089787D02*
X0121000Y0089787D01*
X0121000Y0088788D02*
X0127000Y0088788D01*
X0127000Y0087790D02*
X0121000Y0087790D01*
X0121000Y0086791D02*
X0127000Y0086791D01*
X0127000Y0085793D02*
X0121000Y0085793D01*
X0121000Y0084794D02*
X0127000Y0084794D01*
X0126067Y0083796D02*
X0121000Y0083796D01*
X0121000Y0082797D02*
X0125069Y0082797D01*
X0124070Y0081799D02*
X0121000Y0081799D01*
X0121000Y0080800D02*
X0123072Y0080800D01*
X0122073Y0079802D02*
X0121000Y0079802D01*
X0121000Y0078803D02*
X0121075Y0078803D01*
X0119000Y0077650D02*
X0112750Y0071400D01*
X0061500Y0071400D01*
X0044000Y0053900D01*
X0044000Y0041400D01*
X0049000Y0036400D01*
X0049000Y0013900D01*
X0039000Y0013900D02*
X0039000Y0052650D01*
X0060250Y0073900D01*
X0104000Y0073900D01*
X0109000Y0078900D01*
X0109000Y0108900D01*
X0113100Y0108759D02*
X0114900Y0108759D01*
X0114900Y0109757D02*
X0113100Y0109757D01*
X0113100Y0110756D02*
X0114900Y0110756D01*
X0114900Y0111754D02*
X0113100Y0111754D01*
X0113100Y0112316D02*
X0112476Y0113822D01*
X0111648Y0114650D01*
X0116352Y0114650D01*
X0115524Y0113822D01*
X0114900Y0112316D01*
X0114900Y0105484D01*
X0115524Y0103978D01*
X0116678Y0102824D01*
X0117000Y0102691D01*
X0117000Y0078478D01*
X0111922Y0073400D01*
X0106328Y0073400D01*
X0111000Y0078072D01*
X0111000Y0102691D01*
X0111322Y0102824D01*
X0112476Y0103978D01*
X0113100Y0105484D01*
X0113100Y0112316D01*
X0112919Y0112753D02*
X0115081Y0112753D01*
X0115495Y0113751D02*
X0112505Y0113751D01*
X0106352Y0114650D02*
X0105524Y0113822D01*
X0104900Y0112316D01*
X0104900Y0105484D01*
X0105524Y0103978D01*
X0106678Y0102824D01*
X0107000Y0102691D01*
X0107000Y0079728D01*
X0103172Y0075900D01*
X0092578Y0075900D01*
X0101000Y0084322D01*
X0101000Y0102691D01*
X0101322Y0102824D01*
X0102476Y0103978D01*
X0103100Y0105484D01*
X0103100Y0112316D01*
X0102476Y0113822D01*
X0101648Y0114650D01*
X0106352Y0114650D01*
X0105495Y0113751D02*
X0102505Y0113751D01*
X0102919Y0112753D02*
X0105081Y0112753D01*
X0104900Y0111754D02*
X0103100Y0111754D01*
X0103100Y0110756D02*
X0104900Y0110756D01*
X0104900Y0109757D02*
X0103100Y0109757D01*
X0103100Y0108759D02*
X0104900Y0108759D01*
X0104900Y0107760D02*
X0103100Y0107760D01*
X0103100Y0106762D02*
X0104900Y0106762D01*
X0104900Y0105763D02*
X0103100Y0105763D01*
X0102802Y0104765D02*
X0105198Y0104765D01*
X0105736Y0103766D02*
X0102264Y0103766D01*
X0101186Y0102768D02*
X0106814Y0102768D01*
X0107000Y0101769D02*
X0101000Y0101769D01*
X0101000Y0100770D02*
X0107000Y0100770D01*
X0107000Y0099772D02*
X0101000Y0099772D01*
X0101000Y0098773D02*
X0107000Y0098773D01*
X0107000Y0097775D02*
X0101000Y0097775D01*
X0101000Y0096776D02*
X0107000Y0096776D01*
X0107000Y0095778D02*
X0101000Y0095778D01*
X0101000Y0094779D02*
X0107000Y0094779D01*
X0107000Y0093781D02*
X0101000Y0093781D01*
X0101000Y0092782D02*
X0107000Y0092782D01*
X0107000Y0091784D02*
X0101000Y0091784D01*
X0101000Y0090785D02*
X0107000Y0090785D01*
X0107000Y0089787D02*
X0101000Y0089787D01*
X0101000Y0088788D02*
X0107000Y0088788D01*
X0107000Y0087790D02*
X0101000Y0087790D01*
X0101000Y0086791D02*
X0107000Y0086791D01*
X0107000Y0085793D02*
X0101000Y0085793D01*
X0101000Y0084794D02*
X0107000Y0084794D01*
X0107000Y0083796D02*
X0100474Y0083796D01*
X0099476Y0082797D02*
X0107000Y0082797D01*
X0107000Y0081799D02*
X0098477Y0081799D01*
X0097479Y0080800D02*
X0107000Y0080800D01*
X0107000Y0079802D02*
X0096480Y0079802D01*
X0095482Y0078803D02*
X0106075Y0078803D01*
X0105076Y0077805D02*
X0094483Y0077805D01*
X0093485Y0076806D02*
X0104078Y0076806D01*
X0107738Y0074809D02*
X0113331Y0074809D01*
X0114329Y0075808D02*
X0108736Y0075808D01*
X0109735Y0076806D02*
X0115328Y0076806D01*
X0116326Y0077805D02*
X0110733Y0077805D01*
X0111000Y0078803D02*
X0117000Y0078803D01*
X0117000Y0079802D02*
X0111000Y0079802D01*
X0111000Y0080800D02*
X0117000Y0080800D01*
X0117000Y0081799D02*
X0111000Y0081799D01*
X0111000Y0082797D02*
X0117000Y0082797D01*
X0117000Y0083796D02*
X0111000Y0083796D01*
X0111000Y0084794D02*
X0117000Y0084794D01*
X0117000Y0085793D02*
X0111000Y0085793D01*
X0111000Y0086791D02*
X0117000Y0086791D01*
X0117000Y0087790D02*
X0111000Y0087790D01*
X0111000Y0088788D02*
X0117000Y0088788D01*
X0117000Y0089787D02*
X0111000Y0089787D01*
X0111000Y0090785D02*
X0117000Y0090785D01*
X0117000Y0091784D02*
X0111000Y0091784D01*
X0111000Y0092782D02*
X0117000Y0092782D01*
X0117000Y0093781D02*
X0111000Y0093781D01*
X0111000Y0094779D02*
X0117000Y0094779D01*
X0117000Y0095778D02*
X0111000Y0095778D01*
X0111000Y0096776D02*
X0117000Y0096776D01*
X0117000Y0097775D02*
X0111000Y0097775D01*
X0111000Y0098773D02*
X0117000Y0098773D01*
X0117000Y0099772D02*
X0111000Y0099772D01*
X0111000Y0100770D02*
X0117000Y0100770D01*
X0117000Y0101769D02*
X0111000Y0101769D01*
X0111186Y0102768D02*
X0116814Y0102768D01*
X0115736Y0103766D02*
X0112264Y0103766D01*
X0112802Y0104765D02*
X0115198Y0104765D01*
X0114900Y0105763D02*
X0113100Y0105763D01*
X0113100Y0106762D02*
X0114900Y0106762D01*
X0114900Y0107760D02*
X0113100Y0107760D01*
X0119000Y0108900D02*
X0119000Y0077650D01*
X0112332Y0073811D02*
X0106739Y0073811D01*
X0092820Y0081799D02*
X0085977Y0081799D01*
X0086976Y0082797D02*
X0093819Y0082797D01*
X0094817Y0083796D02*
X0087974Y0083796D01*
X0088973Y0084794D02*
X0095816Y0084794D01*
X0096814Y0085793D02*
X0089971Y0085793D01*
X0090970Y0086791D02*
X0097000Y0086791D01*
X0097000Y0085978D02*
X0089422Y0078400D01*
X0082578Y0078400D01*
X0091000Y0086822D01*
X0091000Y0102691D01*
X0091322Y0102824D01*
X0092476Y0103978D01*
X0093100Y0105484D01*
X0093100Y0112316D01*
X0092476Y0113822D01*
X0091648Y0114650D01*
X0096352Y0114650D01*
X0095524Y0113822D01*
X0094900Y0112316D01*
X0094900Y0105484D01*
X0095524Y0103978D01*
X0096678Y0102824D01*
X0097000Y0102691D01*
X0097000Y0085978D01*
X0097000Y0087790D02*
X0091000Y0087790D01*
X0091000Y0088788D02*
X0097000Y0088788D01*
X0097000Y0089787D02*
X0091000Y0089787D01*
X0091000Y0090785D02*
X0097000Y0090785D01*
X0097000Y0091784D02*
X0091000Y0091784D01*
X0091000Y0092782D02*
X0097000Y0092782D01*
X0097000Y0093781D02*
X0091000Y0093781D01*
X0091000Y0094779D02*
X0097000Y0094779D01*
X0097000Y0095778D02*
X0091000Y0095778D01*
X0091000Y0096776D02*
X0097000Y0096776D01*
X0097000Y0097775D02*
X0091000Y0097775D01*
X0091000Y0098773D02*
X0097000Y0098773D01*
X0097000Y0099772D02*
X0091000Y0099772D01*
X0091000Y0100770D02*
X0097000Y0100770D01*
X0097000Y0101769D02*
X0091000Y0101769D01*
X0091186Y0102768D02*
X0096814Y0102768D01*
X0095736Y0103766D02*
X0092264Y0103766D01*
X0092802Y0104765D02*
X0095198Y0104765D01*
X0094900Y0105763D02*
X0093100Y0105763D01*
X0093100Y0106762D02*
X0094900Y0106762D01*
X0094900Y0107760D02*
X0093100Y0107760D01*
X0093100Y0108759D02*
X0094900Y0108759D01*
X0094900Y0109757D02*
X0093100Y0109757D01*
X0093100Y0110756D02*
X0094900Y0110756D01*
X0094900Y0111754D02*
X0093100Y0111754D01*
X0092919Y0112753D02*
X0095081Y0112753D01*
X0095495Y0113751D02*
X0092505Y0113751D01*
X0086352Y0114650D02*
X0085524Y0113822D01*
X0084900Y0112316D01*
X0084900Y0105484D01*
X0085524Y0103978D01*
X0086678Y0102824D01*
X0087000Y0102691D01*
X0087000Y0088478D01*
X0079422Y0080900D01*
X0058828Y0080900D01*
X0080350Y0102421D01*
X0081322Y0102824D01*
X0082476Y0103978D01*
X0083100Y0105484D01*
X0083100Y0112316D01*
X0082476Y0113822D01*
X0081648Y0114650D01*
X0086352Y0114650D01*
X0085495Y0113751D02*
X0082505Y0113751D01*
X0082919Y0112753D02*
X0085081Y0112753D01*
X0084900Y0111754D02*
X0083100Y0111754D01*
X0083100Y0110756D02*
X0084900Y0110756D01*
X0084900Y0109757D02*
X0083100Y0109757D01*
X0083100Y0108759D02*
X0084900Y0108759D01*
X0084900Y0107760D02*
X0083100Y0107760D01*
X0083100Y0106762D02*
X0084900Y0106762D01*
X0084900Y0105763D02*
X0083100Y0105763D01*
X0082802Y0104765D02*
X0085198Y0104765D01*
X0085736Y0103766D02*
X0082264Y0103766D01*
X0081186Y0102768D02*
X0086814Y0102768D01*
X0087000Y0101769D02*
X0079697Y0101769D01*
X0078699Y0100770D02*
X0087000Y0100770D01*
X0087000Y0099772D02*
X0077700Y0099772D01*
X0076702Y0098773D02*
X0087000Y0098773D01*
X0087000Y0097775D02*
X0075703Y0097775D01*
X0074705Y0096776D02*
X0087000Y0096776D01*
X0087000Y0095778D02*
X0073706Y0095778D01*
X0072708Y0094779D02*
X0087000Y0094779D01*
X0087000Y0093781D02*
X0071709Y0093781D01*
X0070711Y0092782D02*
X0087000Y0092782D01*
X0087000Y0091784D02*
X0069712Y0091784D01*
X0068714Y0090785D02*
X0087000Y0090785D01*
X0087000Y0089787D02*
X0067715Y0089787D01*
X0066717Y0088788D02*
X0087000Y0088788D01*
X0086311Y0087790D02*
X0065718Y0087790D01*
X0064720Y0086791D02*
X0085313Y0086791D01*
X0084314Y0085793D02*
X0063721Y0085793D01*
X0062723Y0084794D02*
X0083316Y0084794D01*
X0082317Y0083796D02*
X0061724Y0083796D01*
X0060726Y0082797D02*
X0081319Y0082797D01*
X0080320Y0081799D02*
X0059727Y0081799D01*
X0057750Y0078900D02*
X0019000Y0040150D01*
X0019000Y0013900D01*
X0029000Y0013900D02*
X0029000Y0046400D01*
X0059000Y0076400D01*
X0090250Y0076400D01*
X0099000Y0085150D01*
X0099000Y0108900D01*
X0089000Y0108900D02*
X0089000Y0087650D01*
X0080250Y0078900D01*
X0057750Y0078900D01*
X0049566Y0084794D02*
X0003250Y0084794D01*
X0003250Y0083796D02*
X0048567Y0083796D01*
X0047569Y0082797D02*
X0003250Y0082797D01*
X0003250Y0081799D02*
X0046570Y0081799D01*
X0045572Y0080800D02*
X0003250Y0080800D01*
X0003250Y0079802D02*
X0044573Y0079802D01*
X0043575Y0078803D02*
X0003250Y0078803D01*
X0003250Y0077805D02*
X0042576Y0077805D01*
X0041578Y0076806D02*
X0003250Y0076806D01*
X0003250Y0075808D02*
X0038041Y0075808D01*
X0038347Y0075934D02*
X0037140Y0075434D01*
X0036216Y0074510D01*
X0035716Y0073303D01*
X0035716Y0071997D01*
X0036216Y0070790D01*
X0037140Y0069866D01*
X0038022Y0069500D01*
X0030398Y0061876D01*
X0029653Y0062184D01*
X0028347Y0062184D01*
X0027140Y0061684D01*
X0026216Y0060760D01*
X0025716Y0059553D01*
X0025716Y0058247D01*
X0026216Y0057040D01*
X0027140Y0056116D01*
X0028022Y0055750D01*
X0020398Y0048126D01*
X0019653Y0048434D01*
X0018347Y0048434D01*
X0017140Y0047934D01*
X0016216Y0047010D01*
X0015716Y0045803D01*
X0015716Y0044497D01*
X0016216Y0043290D01*
X0017140Y0042366D01*
X0018022Y0042000D01*
X0017000Y0040978D01*
X0017000Y0028900D01*
X0003250Y0028900D01*
X0003250Y0114650D01*
X0046360Y0114650D01*
X0046329Y0114627D01*
X0045873Y0114171D01*
X0045493Y0113649D01*
X0045200Y0113074D01*
X0045001Y0112460D01*
X0044900Y0111823D01*
X0044900Y0109200D01*
X0048700Y0109200D01*
X0048700Y0108600D01*
X0049300Y0108600D01*
X0049300Y0109200D01*
X0053100Y0109200D01*
X0053100Y0111823D01*
X0052999Y0112460D01*
X0052800Y0113074D01*
X0052507Y0113649D01*
X0052127Y0114171D01*
X0051671Y0114627D01*
X0051640Y0114650D01*
X0056352Y0114650D01*
X0055524Y0113822D01*
X0054900Y0112316D01*
X0054900Y0105484D01*
X0055524Y0103978D01*
X0056678Y0102824D01*
X0057000Y0102691D01*
X0057000Y0092228D01*
X0040398Y0075626D01*
X0039653Y0075934D01*
X0038347Y0075934D01*
X0039959Y0075808D02*
X0040579Y0075808D01*
X0036515Y0074809D02*
X0003250Y0074809D01*
X0003250Y0073811D02*
X0035926Y0073811D01*
X0035716Y0072812D02*
X0003250Y0072812D01*
X0003250Y0071814D02*
X0035792Y0071814D01*
X0036205Y0070815D02*
X0003250Y0070815D01*
X0003250Y0069817D02*
X0037258Y0069817D01*
X0037340Y0068818D02*
X0003250Y0068818D01*
X0003250Y0067820D02*
X0036341Y0067820D01*
X0035343Y0066821D02*
X0003250Y0066821D01*
X0003250Y0065823D02*
X0034344Y0065823D01*
X0033346Y0064824D02*
X0003250Y0064824D01*
X0003250Y0063826D02*
X0032347Y0063826D01*
X0031349Y0062827D02*
X0003250Y0062827D01*
X0003250Y0061829D02*
X0027488Y0061829D01*
X0026285Y0060830D02*
X0003250Y0060830D01*
X0003250Y0059832D02*
X0025831Y0059832D01*
X0025716Y0058833D02*
X0003250Y0058833D01*
X0003250Y0057834D02*
X0025886Y0057834D01*
X0026419Y0056836D02*
X0003250Y0056836D01*
X0003250Y0055837D02*
X0027811Y0055837D01*
X0027111Y0054839D02*
X0003250Y0054839D01*
X0003250Y0053840D02*
X0026112Y0053840D01*
X0025114Y0052842D02*
X0003250Y0052842D01*
X0003250Y0051843D02*
X0024115Y0051843D01*
X0023117Y0050845D02*
X0003250Y0050845D01*
X0003250Y0049846D02*
X0022118Y0049846D01*
X0021119Y0048848D02*
X0003250Y0048848D01*
X0003250Y0047849D02*
X0017055Y0047849D01*
X0016150Y0046851D02*
X0003250Y0046851D01*
X0003250Y0045852D02*
X0015736Y0045852D01*
X0015716Y0044854D02*
X0003250Y0044854D01*
X0003250Y0043855D02*
X0015981Y0043855D01*
X0016649Y0042857D02*
X0003250Y0042857D01*
X0003250Y0041858D02*
X0017880Y0041858D01*
X0017000Y0040860D02*
X0003250Y0040860D01*
X0003250Y0039861D02*
X0017000Y0039861D01*
X0017000Y0038863D02*
X0003250Y0038863D01*
X0003250Y0037864D02*
X0017000Y0037864D01*
X0017000Y0036866D02*
X0003250Y0036866D01*
X0003250Y0035867D02*
X0017000Y0035867D01*
X0017000Y0034869D02*
X0003250Y0034869D01*
X0003250Y0033870D02*
X0017000Y0033870D01*
X0017000Y0032872D02*
X0003250Y0032872D01*
X0003250Y0031873D02*
X0017000Y0031873D01*
X0017000Y0030875D02*
X0003250Y0030875D01*
X0003250Y0029876D02*
X0017000Y0029876D01*
X0021000Y0029876D02*
X0027000Y0029876D01*
X0027000Y0028900D02*
X0021000Y0028900D01*
X0021000Y0039322D01*
X0027000Y0045322D01*
X0027000Y0028900D01*
X0027000Y0030875D02*
X0021000Y0030875D01*
X0021000Y0031873D02*
X0027000Y0031873D01*
X0027000Y0032872D02*
X0021000Y0032872D01*
X0021000Y0033870D02*
X0027000Y0033870D01*
X0027000Y0034869D02*
X0021000Y0034869D01*
X0021000Y0035867D02*
X0027000Y0035867D01*
X0027000Y0036866D02*
X0021000Y0036866D01*
X0021000Y0037864D02*
X0027000Y0037864D01*
X0027000Y0038863D02*
X0021000Y0038863D01*
X0021540Y0039861D02*
X0027000Y0039861D01*
X0027000Y0040860D02*
X0022538Y0040860D01*
X0023537Y0041858D02*
X0027000Y0041858D01*
X0027000Y0042857D02*
X0024535Y0042857D01*
X0025534Y0043855D02*
X0027000Y0043855D01*
X0027000Y0044854D02*
X0026532Y0044854D01*
X0031000Y0044854D02*
X0037000Y0044854D01*
X0037000Y0045852D02*
X0031281Y0045852D01*
X0031000Y0045572D02*
X0037000Y0051572D01*
X0037000Y0028900D01*
X0031000Y0028900D01*
X0031000Y0045572D01*
X0031000Y0043855D02*
X0037000Y0043855D01*
X0037000Y0042857D02*
X0031000Y0042857D01*
X0031000Y0041858D02*
X0037000Y0041858D01*
X0037000Y0040860D02*
X0031000Y0040860D01*
X0031000Y0039861D02*
X0037000Y0039861D01*
X0037000Y0038863D02*
X0031000Y0038863D01*
X0031000Y0037864D02*
X0037000Y0037864D01*
X0037000Y0036866D02*
X0031000Y0036866D01*
X0031000Y0035867D02*
X0037000Y0035867D01*
X0037000Y0034869D02*
X0031000Y0034869D01*
X0031000Y0033870D02*
X0037000Y0033870D01*
X0037000Y0032872D02*
X0031000Y0032872D01*
X0031000Y0031873D02*
X0037000Y0031873D01*
X0037000Y0030875D02*
X0031000Y0030875D01*
X0031000Y0029876D02*
X0037000Y0029876D01*
X0041000Y0029876D02*
X0047000Y0029876D01*
X0047000Y0028900D02*
X0041000Y0028900D01*
X0041000Y0051822D01*
X0042000Y0052822D01*
X0042000Y0040572D01*
X0047000Y0035572D01*
X0047000Y0028900D01*
X0047000Y0030875D02*
X0041000Y0030875D01*
X0041000Y0031873D02*
X0047000Y0031873D01*
X0047000Y0032872D02*
X0041000Y0032872D01*
X0041000Y0033870D02*
X0047000Y0033870D01*
X0047000Y0034869D02*
X0041000Y0034869D01*
X0041000Y0035867D02*
X0046704Y0035867D01*
X0045706Y0036866D02*
X0041000Y0036866D01*
X0041000Y0037864D02*
X0044707Y0037864D01*
X0043709Y0038863D02*
X0041000Y0038863D01*
X0041000Y0039861D02*
X0042710Y0039861D01*
X0042000Y0040860D02*
X0041000Y0040860D01*
X0041000Y0041858D02*
X0042000Y0041858D01*
X0042000Y0042857D02*
X0041000Y0042857D01*
X0041000Y0043855D02*
X0042000Y0043855D01*
X0042000Y0044854D02*
X0041000Y0044854D01*
X0041000Y0045852D02*
X0042000Y0045852D01*
X0042000Y0046851D02*
X0041000Y0046851D01*
X0041000Y0047849D02*
X0042000Y0047849D01*
X0042000Y0048848D02*
X0041000Y0048848D01*
X0041000Y0049846D02*
X0042000Y0049846D01*
X0042000Y0050845D02*
X0041000Y0050845D01*
X0041022Y0051843D02*
X0042000Y0051843D01*
X0037000Y0050845D02*
X0036273Y0050845D01*
X0037000Y0049846D02*
X0035275Y0049846D01*
X0034276Y0048848D02*
X0037000Y0048848D01*
X0037000Y0047849D02*
X0033278Y0047849D01*
X0032279Y0046851D02*
X0037000Y0046851D01*
X0046000Y0043502D02*
X0046000Y0042228D01*
X0049828Y0038400D01*
X0051000Y0037228D01*
X0051000Y0028900D01*
X0057000Y0028900D01*
X0057000Y0035572D01*
X0052000Y0040572D01*
X0052000Y0043502D01*
X0051322Y0042824D01*
X0049816Y0042200D01*
X0048184Y0042200D01*
X0046678Y0042824D01*
X0046000Y0043502D01*
X0046000Y0042857D02*
X0046645Y0042857D01*
X0046370Y0041858D02*
X0052000Y0041858D01*
X0052000Y0040860D02*
X0047369Y0040860D01*
X0048367Y0039861D02*
X0052710Y0039861D01*
X0053709Y0038863D02*
X0049366Y0038863D01*
X0050364Y0037864D02*
X0054707Y0037864D01*
X0055706Y0036866D02*
X0051000Y0036866D01*
X0051000Y0035867D02*
X0056704Y0035867D01*
X0057000Y0034869D02*
X0051000Y0034869D01*
X0051000Y0033870D02*
X0057000Y0033870D01*
X0057000Y0032872D02*
X0051000Y0032872D01*
X0051000Y0031873D02*
X0057000Y0031873D01*
X0057000Y0030875D02*
X0051000Y0030875D01*
X0051000Y0029876D02*
X0057000Y0029876D01*
X0061000Y0029876D02*
X0067000Y0029876D01*
X0067000Y0028900D02*
X0061000Y0028900D01*
X0061000Y0037228D01*
X0059828Y0038400D01*
X0056000Y0042228D01*
X0056000Y0043502D01*
X0056678Y0042824D01*
X0058184Y0042200D01*
X0059816Y0042200D01*
X0061322Y0042824D01*
X0062000Y0043502D01*
X0062000Y0040572D01*
X0067000Y0035572D01*
X0067000Y0028900D01*
X0067000Y0030875D02*
X0061000Y0030875D01*
X0061000Y0031873D02*
X0067000Y0031873D01*
X0067000Y0032872D02*
X0061000Y0032872D01*
X0061000Y0033870D02*
X0067000Y0033870D01*
X0067000Y0034869D02*
X0061000Y0034869D01*
X0061000Y0035867D02*
X0066704Y0035867D01*
X0065706Y0036866D02*
X0061000Y0036866D01*
X0060364Y0037864D02*
X0064707Y0037864D01*
X0063709Y0038863D02*
X0059366Y0038863D01*
X0058367Y0039861D02*
X0062710Y0039861D01*
X0062000Y0040860D02*
X0057369Y0040860D01*
X0056370Y0041858D02*
X0062000Y0041858D01*
X0062000Y0042857D02*
X0061355Y0042857D01*
X0056645Y0042857D02*
X0056000Y0042857D01*
X0052000Y0042857D02*
X0051355Y0042857D01*
X0066000Y0042857D02*
X0066645Y0042857D01*
X0066678Y0042824D02*
X0068184Y0042200D01*
X0069816Y0042200D01*
X0071322Y0042824D01*
X0072000Y0043502D01*
X0072000Y0040572D01*
X0077000Y0035572D01*
X0077000Y0028900D01*
X0071000Y0028900D01*
X0071000Y0037228D01*
X0069828Y0038400D01*
X0066000Y0042228D01*
X0066000Y0043502D01*
X0066678Y0042824D01*
X0066370Y0041858D02*
X0072000Y0041858D01*
X0072000Y0040860D02*
X0067369Y0040860D01*
X0068367Y0039861D02*
X0072710Y0039861D01*
X0073709Y0038863D02*
X0069366Y0038863D01*
X0069828Y0038400D02*
X0069828Y0038400D01*
X0070364Y0037864D02*
X0074707Y0037864D01*
X0075706Y0036866D02*
X0071000Y0036866D01*
X0071000Y0035867D02*
X0076704Y0035867D01*
X0077000Y0034869D02*
X0071000Y0034869D01*
X0071000Y0033870D02*
X0077000Y0033870D01*
X0077000Y0032872D02*
X0071000Y0032872D01*
X0071000Y0031873D02*
X0077000Y0031873D01*
X0077000Y0030875D02*
X0071000Y0030875D01*
X0071000Y0029876D02*
X0077000Y0029876D01*
X0081000Y0029876D02*
X0087000Y0029876D01*
X0087000Y0028900D02*
X0081000Y0028900D01*
X0081000Y0037228D01*
X0079828Y0038400D01*
X0076000Y0042228D01*
X0076000Y0043502D01*
X0076678Y0042824D01*
X0078184Y0042200D01*
X0079816Y0042200D01*
X0081322Y0042824D01*
X0082000Y0043502D01*
X0082000Y0040572D01*
X0087000Y0035572D01*
X0087000Y0028900D01*
X0087000Y0030875D02*
X0081000Y0030875D01*
X0081000Y0031873D02*
X0087000Y0031873D01*
X0087000Y0032872D02*
X0081000Y0032872D01*
X0081000Y0033870D02*
X0087000Y0033870D01*
X0087000Y0034869D02*
X0081000Y0034869D01*
X0081000Y0035867D02*
X0086704Y0035867D01*
X0085706Y0036866D02*
X0081000Y0036866D01*
X0080364Y0037864D02*
X0084707Y0037864D01*
X0083709Y0038863D02*
X0079366Y0038863D01*
X0078367Y0039861D02*
X0082710Y0039861D01*
X0082000Y0040860D02*
X0077369Y0040860D01*
X0076370Y0041858D02*
X0082000Y0041858D01*
X0082000Y0042857D02*
X0081355Y0042857D01*
X0086000Y0042857D02*
X0086645Y0042857D01*
X0086678Y0042824D02*
X0088184Y0042200D01*
X0089816Y0042200D01*
X0091322Y0042824D01*
X0092000Y0043502D01*
X0092000Y0040572D01*
X0097000Y0035572D01*
X0097000Y0028900D01*
X0091000Y0028900D01*
X0091000Y0037228D01*
X0089828Y0038400D01*
X0086000Y0042228D01*
X0086000Y0043502D01*
X0086678Y0042824D01*
X0086370Y0041858D02*
X0092000Y0041858D01*
X0092000Y0040860D02*
X0087369Y0040860D01*
X0088367Y0039861D02*
X0092710Y0039861D01*
X0093709Y0038863D02*
X0089366Y0038863D01*
X0090364Y0037864D02*
X0094707Y0037864D01*
X0095706Y0036866D02*
X0091000Y0036866D01*
X0091000Y0035867D02*
X0096704Y0035867D01*
X0097000Y0034869D02*
X0091000Y0034869D01*
X0091000Y0033870D02*
X0097000Y0033870D01*
X0097000Y0032872D02*
X0091000Y0032872D01*
X0091000Y0031873D02*
X0097000Y0031873D01*
X0097000Y0030875D02*
X0091000Y0030875D01*
X0091000Y0029876D02*
X0097000Y0029876D01*
X0101000Y0029876D02*
X0107000Y0029876D01*
X0107000Y0028900D02*
X0101000Y0028900D01*
X0101000Y0037228D01*
X0099828Y0038400D01*
X0096000Y0042228D01*
X0096000Y0043502D01*
X0096678Y0042824D01*
X0098184Y0042200D01*
X0099816Y0042200D01*
X0101322Y0042824D01*
X0102000Y0043502D01*
X0102000Y0040572D01*
X0107000Y0035572D01*
X0107000Y0028900D01*
X0107000Y0030875D02*
X0101000Y0030875D01*
X0101000Y0031873D02*
X0107000Y0031873D01*
X0107000Y0032872D02*
X0101000Y0032872D01*
X0101000Y0033870D02*
X0107000Y0033870D01*
X0107000Y0034869D02*
X0101000Y0034869D01*
X0101000Y0035867D02*
X0106704Y0035867D01*
X0105706Y0036866D02*
X0101000Y0036866D01*
X0100364Y0037864D02*
X0104707Y0037864D01*
X0103709Y0038863D02*
X0099366Y0038863D01*
X0098367Y0039861D02*
X0102710Y0039861D01*
X0102000Y0040860D02*
X0097369Y0040860D01*
X0096370Y0041858D02*
X0102000Y0041858D01*
X0102000Y0042857D02*
X0101355Y0042857D01*
X0104000Y0041400D02*
X0109000Y0036400D01*
X0109000Y0013900D01*
X0099000Y0013900D02*
X0099000Y0036400D01*
X0094000Y0041400D01*
X0094000Y0053900D01*
X0099000Y0058900D01*
X0144000Y0058900D01*
X0149000Y0053900D01*
X0149000Y0048900D01*
X0144900Y0048848D02*
X0143100Y0048848D01*
X0143100Y0049846D02*
X0144900Y0049846D01*
X0144900Y0050845D02*
X0143100Y0050845D01*
X0143100Y0051843D02*
X0144900Y0051843D01*
X0144900Y0052316D02*
X0144900Y0045484D01*
X0145524Y0043978D01*
X0146678Y0042824D01*
X0148184Y0042200D01*
X0149472Y0042200D01*
X0138172Y0030900D01*
X0138172Y0030900D01*
X0137000Y0029728D01*
X0137000Y0028900D01*
X0131000Y0028900D01*
X0131000Y0042691D01*
X0131322Y0042824D01*
X0132476Y0043978D01*
X0133100Y0045484D01*
X0133100Y0052316D01*
X0132476Y0053822D01*
X0131898Y0054400D01*
X0135672Y0054400D01*
X0135887Y0054185D01*
X0135524Y0053822D01*
X0134900Y0052316D01*
X0134900Y0045484D01*
X0135524Y0043978D01*
X0136678Y0042824D01*
X0138184Y0042200D01*
X0139816Y0042200D01*
X0141322Y0042824D01*
X0142476Y0043978D01*
X0143100Y0045484D01*
X0143100Y0052316D01*
X0142476Y0053822D01*
X0141322Y0054976D01*
X0140350Y0055379D01*
X0138828Y0056900D01*
X0143172Y0056900D01*
X0145887Y0054185D01*
X0145524Y0053822D01*
X0144900Y0052316D01*
X0145118Y0052842D02*
X0142882Y0052842D01*
X0142458Y0053840D02*
X0145542Y0053840D01*
X0145233Y0054839D02*
X0141459Y0054839D01*
X0139891Y0055837D02*
X0144234Y0055837D01*
X0143236Y0056836D02*
X0138892Y0056836D01*
X0136500Y0056400D02*
X0106500Y0056400D01*
X0104000Y0053900D01*
X0104000Y0041400D01*
X0109000Y0041400D02*
X0119000Y0031400D01*
X0119000Y0013900D01*
X0129000Y0013900D02*
X0129000Y0048900D01*
X0133100Y0048848D02*
X0134900Y0048848D01*
X0134900Y0049846D02*
X0133100Y0049846D01*
X0133100Y0050845D02*
X0134900Y0050845D01*
X0134900Y0051843D02*
X0133100Y0051843D01*
X0132882Y0052842D02*
X0135118Y0052842D01*
X0135542Y0053840D02*
X0132458Y0053840D01*
X0136500Y0056400D02*
X0139000Y0053900D01*
X0139000Y0048900D01*
X0143100Y0047849D02*
X0144900Y0047849D01*
X0144900Y0046851D02*
X0143100Y0046851D01*
X0143100Y0045852D02*
X0144900Y0045852D01*
X0145161Y0044854D02*
X0142839Y0044854D01*
X0142354Y0043855D02*
X0145646Y0043855D01*
X0146645Y0042857D02*
X0141355Y0042857D01*
X0136645Y0042857D02*
X0131355Y0042857D01*
X0131000Y0041858D02*
X0149130Y0041858D01*
X0148131Y0040860D02*
X0131000Y0040860D01*
X0131000Y0039861D02*
X0147133Y0039861D01*
X0146134Y0038863D02*
X0131000Y0038863D01*
X0131000Y0037864D02*
X0145136Y0037864D01*
X0144137Y0036866D02*
X0131000Y0036866D01*
X0131000Y0035867D02*
X0143139Y0035867D01*
X0142140Y0034869D02*
X0131000Y0034869D01*
X0131000Y0033870D02*
X0141142Y0033870D01*
X0140143Y0032872D02*
X0131000Y0032872D01*
X0131000Y0031873D02*
X0139145Y0031873D01*
X0138146Y0030875D02*
X0131000Y0030875D01*
X0131000Y0029876D02*
X0137148Y0029876D01*
X0139000Y0028900D02*
X0154000Y0043900D01*
X0154000Y0087650D01*
X0169000Y0102650D01*
X0166289Y0102768D02*
X0161186Y0102768D01*
X0160947Y0101769D02*
X0165291Y0101769D01*
X0164292Y0100770D02*
X0159949Y0100770D01*
X0158950Y0099772D02*
X0163294Y0099772D01*
X0162295Y0098773D02*
X0157952Y0098773D01*
X0156953Y0097775D02*
X0161297Y0097775D01*
X0160298Y0096776D02*
X0155955Y0096776D01*
X0154956Y0095778D02*
X0159300Y0095778D01*
X0158301Y0094779D02*
X0153958Y0094779D01*
X0152959Y0093781D02*
X0157302Y0093781D01*
X0156304Y0092782D02*
X0151961Y0092782D01*
X0150962Y0091784D02*
X0155305Y0091784D01*
X0154307Y0090785D02*
X0149964Y0090785D01*
X0148965Y0089787D02*
X0153308Y0089787D01*
X0152310Y0088788D02*
X0147967Y0088788D01*
X0146968Y0087790D02*
X0152000Y0087790D01*
X0152000Y0086791D02*
X0145970Y0086791D01*
X0144971Y0085793D02*
X0152000Y0085793D01*
X0152000Y0084794D02*
X0143973Y0084794D01*
X0142974Y0083796D02*
X0152000Y0083796D01*
X0152000Y0082797D02*
X0141976Y0082797D01*
X0140977Y0081799D02*
X0152000Y0081799D01*
X0152000Y0080800D02*
X0139979Y0080800D01*
X0138980Y0079802D02*
X0152000Y0079802D01*
X0152000Y0078803D02*
X0137982Y0078803D01*
X0136983Y0077805D02*
X0152000Y0077805D01*
X0152000Y0076806D02*
X0135985Y0076806D01*
X0134986Y0075808D02*
X0152000Y0075808D01*
X0152000Y0074809D02*
X0133988Y0074809D01*
X0132989Y0073811D02*
X0152000Y0073811D01*
X0152000Y0072812D02*
X0131991Y0072812D01*
X0130992Y0071814D02*
X0152000Y0071814D01*
X0152000Y0070815D02*
X0129994Y0070815D01*
X0128995Y0069817D02*
X0152000Y0069817D01*
X0152000Y0068818D02*
X0127997Y0068818D01*
X0126998Y0067820D02*
X0152000Y0067820D01*
X0152000Y0066821D02*
X0126000Y0066821D01*
X0125001Y0065823D02*
X0152000Y0065823D01*
X0152000Y0064824D02*
X0124002Y0064824D01*
X0123004Y0063826D02*
X0152000Y0063826D01*
X0152000Y0062827D02*
X0122005Y0062827D01*
X0121007Y0061829D02*
X0152000Y0061829D01*
X0152000Y0060830D02*
X0144898Y0060830D01*
X0145897Y0059832D02*
X0152000Y0059832D01*
X0152000Y0058833D02*
X0146895Y0058833D01*
X0147894Y0057834D02*
X0152000Y0057834D01*
X0152000Y0056836D02*
X0148892Y0056836D01*
X0149891Y0055837D02*
X0152000Y0055837D01*
X0152000Y0054839D02*
X0151459Y0054839D01*
X0134900Y0047849D02*
X0133100Y0047849D01*
X0133100Y0046851D02*
X0134900Y0046851D01*
X0134900Y0045852D02*
X0133100Y0045852D01*
X0132839Y0044854D02*
X0135161Y0044854D01*
X0135646Y0043855D02*
X0132354Y0043855D01*
X0127000Y0042691D02*
X0127000Y0028900D01*
X0121000Y0028900D01*
X0121000Y0032228D01*
X0119828Y0033400D01*
X0111000Y0042228D01*
X0111000Y0042691D01*
X0111322Y0042824D01*
X0112476Y0043978D01*
X0113100Y0045484D01*
X0113100Y0052316D01*
X0112476Y0053822D01*
X0111898Y0054400D01*
X0116102Y0054400D01*
X0115524Y0053822D01*
X0114900Y0052316D01*
X0114900Y0045484D01*
X0115524Y0043978D01*
X0116678Y0042824D01*
X0118184Y0042200D01*
X0119816Y0042200D01*
X0121322Y0042824D01*
X0122476Y0043978D01*
X0123100Y0045484D01*
X0123100Y0052316D01*
X0122476Y0053822D01*
X0121898Y0054400D01*
X0126102Y0054400D01*
X0125524Y0053822D01*
X0124900Y0052316D01*
X0124900Y0045484D01*
X0125524Y0043978D01*
X0126678Y0042824D01*
X0127000Y0042691D01*
X0126645Y0042857D02*
X0121355Y0042857D01*
X0122354Y0043855D02*
X0125646Y0043855D01*
X0125161Y0044854D02*
X0122839Y0044854D01*
X0123100Y0045852D02*
X0124900Y0045852D01*
X0124900Y0046851D02*
X0123100Y0046851D01*
X0123100Y0047849D02*
X0124900Y0047849D01*
X0124900Y0048848D02*
X0123100Y0048848D01*
X0123100Y0049846D02*
X0124900Y0049846D01*
X0124900Y0050845D02*
X0123100Y0050845D01*
X0123100Y0051843D02*
X0124900Y0051843D01*
X0125118Y0052842D02*
X0122882Y0052842D01*
X0122458Y0053840D02*
X0125542Y0053840D01*
X0115542Y0053840D02*
X0112458Y0053840D01*
X0112882Y0052842D02*
X0115118Y0052842D01*
X0114900Y0051843D02*
X0113100Y0051843D01*
X0113100Y0050845D02*
X0114900Y0050845D01*
X0114900Y0049846D02*
X0113100Y0049846D01*
X0113100Y0048848D02*
X0114900Y0048848D01*
X0114900Y0047849D02*
X0113100Y0047849D01*
X0113100Y0046851D02*
X0114900Y0046851D01*
X0114900Y0045852D02*
X0113100Y0045852D01*
X0112839Y0044854D02*
X0115161Y0044854D01*
X0115646Y0043855D02*
X0112354Y0043855D01*
X0111355Y0042857D02*
X0116645Y0042857D01*
X0112369Y0040860D02*
X0127000Y0040860D01*
X0127000Y0041858D02*
X0111370Y0041858D01*
X0109000Y0041400D02*
X0109000Y0048900D01*
X0096645Y0042857D02*
X0096000Y0042857D01*
X0092000Y0042857D02*
X0091355Y0042857D01*
X0076645Y0042857D02*
X0076000Y0042857D01*
X0072000Y0042857D02*
X0071355Y0042857D01*
X0072000Y0054298D02*
X0071322Y0054976D01*
X0069816Y0055600D01*
X0068528Y0055600D01*
X0077328Y0064400D01*
X0081672Y0064400D01*
X0073172Y0055900D01*
X0072000Y0054728D01*
X0072000Y0054298D01*
X0072111Y0054839D02*
X0071459Y0054839D01*
X0073109Y0055837D02*
X0068766Y0055837D01*
X0069764Y0056836D02*
X0074108Y0056836D01*
X0075106Y0057834D02*
X0070763Y0057834D01*
X0071761Y0058833D02*
X0076105Y0058833D01*
X0077103Y0059832D02*
X0072760Y0059832D01*
X0073758Y0060830D02*
X0078102Y0060830D01*
X0079100Y0061829D02*
X0074757Y0061829D01*
X0075755Y0062827D02*
X0080099Y0062827D01*
X0081097Y0063826D02*
X0076754Y0063826D01*
X0074093Y0066821D02*
X0069750Y0066821D01*
X0069828Y0066900D02*
X0074172Y0066900D01*
X0062000Y0054728D01*
X0062000Y0054298D01*
X0061322Y0054976D01*
X0059816Y0055600D01*
X0058528Y0055600D01*
X0069828Y0066900D01*
X0068751Y0065823D02*
X0073094Y0065823D01*
X0072096Y0064824D02*
X0067752Y0064824D01*
X0066754Y0063826D02*
X0071097Y0063826D01*
X0070099Y0062827D02*
X0065755Y0062827D01*
X0064757Y0061829D02*
X0069100Y0061829D01*
X0068102Y0060830D02*
X0063758Y0060830D01*
X0062760Y0059832D02*
X0067103Y0059832D01*
X0066105Y0058833D02*
X0061761Y0058833D01*
X0060763Y0057834D02*
X0065106Y0057834D01*
X0064108Y0056836D02*
X0059764Y0056836D01*
X0058766Y0055837D02*
X0063109Y0055837D01*
X0062111Y0054839D02*
X0061459Y0054839D01*
X0056105Y0058833D02*
X0051761Y0058833D01*
X0050763Y0057834D02*
X0055106Y0057834D01*
X0054108Y0056836D02*
X0049764Y0056836D01*
X0049816Y0055600D02*
X0048528Y0055600D01*
X0062328Y0069400D01*
X0066672Y0069400D01*
X0053172Y0055900D01*
X0052000Y0054728D01*
X0052000Y0054298D01*
X0051322Y0054976D01*
X0049816Y0055600D01*
X0048766Y0055837D02*
X0053109Y0055837D01*
X0052111Y0054839D02*
X0051459Y0054839D01*
X0052760Y0059832D02*
X0057103Y0059832D01*
X0058102Y0060830D02*
X0053758Y0060830D01*
X0054757Y0061829D02*
X0059100Y0061829D01*
X0060099Y0062827D02*
X0055755Y0062827D01*
X0056754Y0063826D02*
X0061097Y0063826D01*
X0062096Y0064824D02*
X0057752Y0064824D01*
X0058751Y0065823D02*
X0063094Y0065823D01*
X0064093Y0066821D02*
X0059750Y0066821D01*
X0060748Y0067820D02*
X0065091Y0067820D01*
X0066090Y0068818D02*
X0061747Y0068818D01*
X0080763Y0057834D02*
X0085106Y0057834D01*
X0084108Y0056836D02*
X0079764Y0056836D01*
X0079816Y0055600D02*
X0078528Y0055600D01*
X0084828Y0061900D01*
X0089172Y0061900D01*
X0083172Y0055900D01*
X0082000Y0054728D01*
X0082000Y0054298D01*
X0081322Y0054976D01*
X0079816Y0055600D01*
X0078766Y0055837D02*
X0083109Y0055837D01*
X0082111Y0054839D02*
X0081459Y0054839D01*
X0081761Y0058833D02*
X0086105Y0058833D01*
X0087103Y0059832D02*
X0082760Y0059832D01*
X0083758Y0060830D02*
X0088102Y0060830D01*
X0089100Y0061829D02*
X0084757Y0061829D01*
X0082982Y0078803D02*
X0089825Y0078803D01*
X0090823Y0079802D02*
X0083980Y0079802D01*
X0084979Y0080800D02*
X0091822Y0080800D01*
X0069000Y0097650D02*
X0030250Y0058900D01*
X0029000Y0058900D01*
X0020250Y0045150D02*
X0019000Y0045150D01*
X0020250Y0045150D02*
X0079000Y0103900D01*
X0079000Y0108900D01*
X0069000Y0108900D02*
X0069000Y0097650D01*
X0067000Y0098478D02*
X0061000Y0092478D01*
X0061000Y0102691D01*
X0061322Y0102824D01*
X0062476Y0103978D01*
X0063100Y0105484D01*
X0063100Y0112316D01*
X0062476Y0113822D01*
X0061648Y0114650D01*
X0066352Y0114650D01*
X0065524Y0113822D01*
X0064900Y0112316D01*
X0064900Y0105484D01*
X0065524Y0103978D01*
X0066678Y0102824D01*
X0067000Y0102691D01*
X0067000Y0098478D01*
X0067000Y0098773D02*
X0061000Y0098773D01*
X0061000Y0097775D02*
X0066297Y0097775D01*
X0065298Y0096776D02*
X0061000Y0096776D01*
X0061000Y0095778D02*
X0064300Y0095778D01*
X0063301Y0094779D02*
X0061000Y0094779D01*
X0061000Y0093781D02*
X0062302Y0093781D01*
X0061304Y0092782D02*
X0061000Y0092782D01*
X0059000Y0091400D02*
X0040250Y0072650D01*
X0039000Y0072650D01*
X0050564Y0085793D02*
X0003250Y0085793D01*
X0003250Y0086791D02*
X0051563Y0086791D01*
X0052561Y0087790D02*
X0003250Y0087790D01*
X0003250Y0088788D02*
X0053560Y0088788D01*
X0054558Y0089787D02*
X0003250Y0089787D01*
X0003250Y0090785D02*
X0055557Y0090785D01*
X0056555Y0091784D02*
X0003250Y0091784D01*
X0003250Y0092782D02*
X0057000Y0092782D01*
X0057000Y0093781D02*
X0003250Y0093781D01*
X0003250Y0094779D02*
X0057000Y0094779D01*
X0057000Y0095778D02*
X0003250Y0095778D01*
X0003250Y0096776D02*
X0057000Y0096776D01*
X0057000Y0097775D02*
X0003250Y0097775D01*
X0003250Y0098773D02*
X0009532Y0098773D01*
X0009949Y0098601D02*
X0007082Y0099788D01*
X0004888Y0101982D01*
X0003701Y0104849D01*
X0003701Y0107951D01*
X0004888Y0110818D01*
X0007082Y0113012D01*
X0009949Y0114199D01*
X0013051Y0114199D01*
X0015918Y0113012D01*
X0018112Y0110818D01*
X0019299Y0107951D01*
X0019299Y0104849D01*
X0018112Y0101982D01*
X0015918Y0099788D01*
X0013051Y0098601D01*
X0009949Y0098601D01*
X0013468Y0098773D02*
X0057000Y0098773D01*
X0057000Y0099772D02*
X0015879Y0099772D01*
X0016900Y0100770D02*
X0057000Y0100770D01*
X0057000Y0101769D02*
X0017899Y0101769D01*
X0018437Y0102768D02*
X0046902Y0102768D01*
X0046851Y0102793D02*
X0047426Y0102500D01*
X0048040Y0102301D01*
X0048677Y0102200D01*
X0048700Y0102200D01*
X0048700Y0108600D01*
X0044900Y0108600D01*
X0044900Y0105977D01*
X0045001Y0105340D01*
X0045200Y0104726D01*
X0045493Y0104151D01*
X0045873Y0103629D01*
X0046329Y0103173D01*
X0046851Y0102793D01*
X0045773Y0103766D02*
X0018851Y0103766D01*
X0019264Y0104765D02*
X0045188Y0104765D01*
X0044934Y0105763D02*
X0019299Y0105763D01*
X0019299Y0106762D02*
X0044900Y0106762D01*
X0044900Y0107760D02*
X0019299Y0107760D01*
X0018965Y0108759D02*
X0048700Y0108759D01*
X0049300Y0108759D02*
X0054900Y0108759D01*
X0054900Y0109757D02*
X0053100Y0109757D01*
X0053100Y0110756D02*
X0054900Y0110756D01*
X0054900Y0111754D02*
X0053100Y0111754D01*
X0052904Y0112753D02*
X0055081Y0112753D01*
X0055495Y0113751D02*
X0052432Y0113751D01*
X0045568Y0113751D02*
X0014133Y0113751D01*
X0016177Y0112753D02*
X0045096Y0112753D01*
X0044900Y0111754D02*
X0017176Y0111754D01*
X0018138Y0110756D02*
X0044900Y0110756D01*
X0044900Y0109757D02*
X0018551Y0109757D01*
X0008867Y0113751D02*
X0003250Y0113751D01*
X0003250Y0112753D02*
X0006823Y0112753D01*
X0005824Y0111754D02*
X0003250Y0111754D01*
X0003250Y0110756D02*
X0004862Y0110756D01*
X0004449Y0109757D02*
X0003250Y0109757D01*
X0003250Y0108759D02*
X0004035Y0108759D01*
X0003701Y0107760D02*
X0003250Y0107760D01*
X0003250Y0106762D02*
X0003701Y0106762D01*
X0003701Y0105763D02*
X0003250Y0105763D01*
X0003250Y0104765D02*
X0003736Y0104765D01*
X0004149Y0103766D02*
X0003250Y0103766D01*
X0003250Y0102768D02*
X0004563Y0102768D01*
X0005101Y0101769D02*
X0003250Y0101769D01*
X0003250Y0100770D02*
X0006100Y0100770D01*
X0007121Y0099772D02*
X0003250Y0099772D01*
X0048700Y0102768D02*
X0049300Y0102768D01*
X0049300Y0102200D02*
X0049323Y0102200D01*
X0049960Y0102301D01*
X0050574Y0102500D01*
X0051149Y0102793D01*
X0051671Y0103173D01*
X0052127Y0103629D01*
X0052507Y0104151D01*
X0052800Y0104726D01*
X0052999Y0105340D01*
X0053100Y0105977D01*
X0053100Y0108600D01*
X0049300Y0108600D01*
X0049300Y0102200D01*
X0049300Y0103766D02*
X0048700Y0103766D01*
X0048700Y0104765D02*
X0049300Y0104765D01*
X0049300Y0105763D02*
X0048700Y0105763D01*
X0048700Y0106762D02*
X0049300Y0106762D01*
X0049300Y0107760D02*
X0048700Y0107760D01*
X0053100Y0107760D02*
X0054900Y0107760D01*
X0054900Y0106762D02*
X0053100Y0106762D01*
X0053066Y0105763D02*
X0054900Y0105763D01*
X0055198Y0104765D02*
X0052812Y0104765D01*
X0052227Y0103766D02*
X0055736Y0103766D01*
X0056814Y0102768D02*
X0051098Y0102768D01*
X0061000Y0101769D02*
X0067000Y0101769D01*
X0067000Y0100770D02*
X0061000Y0100770D01*
X0061000Y0099772D02*
X0067000Y0099772D01*
X0066814Y0102768D02*
X0061186Y0102768D01*
X0062264Y0103766D02*
X0065736Y0103766D01*
X0065198Y0104765D02*
X0062802Y0104765D01*
X0063100Y0105763D02*
X0064900Y0105763D01*
X0064900Y0106762D02*
X0063100Y0106762D01*
X0063100Y0107760D02*
X0064900Y0107760D01*
X0064900Y0108759D02*
X0063100Y0108759D01*
X0063100Y0109757D02*
X0064900Y0109757D01*
X0064900Y0110756D02*
X0063100Y0110756D01*
X0063100Y0111754D02*
X0064900Y0111754D01*
X0065081Y0112753D02*
X0062919Y0112753D01*
X0062505Y0113751D02*
X0065495Y0113751D01*
X0059000Y0108900D02*
X0059000Y0091400D01*
X0131000Y0091784D02*
X0137000Y0091784D01*
X0137000Y0092782D02*
X0131000Y0092782D01*
X0131000Y0093781D02*
X0137000Y0093781D01*
X0137000Y0094779D02*
X0131000Y0094779D01*
X0131000Y0095778D02*
X0137000Y0095778D01*
X0137000Y0096776D02*
X0131000Y0096776D01*
X0131000Y0097775D02*
X0137000Y0097775D01*
X0137000Y0098773D02*
X0131000Y0098773D01*
X0131000Y0099772D02*
X0137000Y0099772D01*
X0137000Y0100770D02*
X0131000Y0100770D01*
X0131000Y0101769D02*
X0137000Y0101769D01*
X0136814Y0102768D02*
X0131186Y0102768D01*
X0132264Y0103766D02*
X0135736Y0103766D01*
X0135198Y0104765D02*
X0132802Y0104765D01*
X0133100Y0105763D02*
X0134900Y0105763D01*
X0134900Y0106762D02*
X0133100Y0106762D01*
X0133100Y0107760D02*
X0134900Y0107760D01*
X0141186Y0102768D02*
X0146814Y0102768D01*
X0147000Y0101769D02*
X0141000Y0101769D01*
X0141000Y0100770D02*
X0147000Y0100770D01*
X0147000Y0099772D02*
X0141000Y0099772D01*
X0141000Y0098773D02*
X0147000Y0098773D01*
X0147000Y0097775D02*
X0141000Y0097775D01*
X0141000Y0096776D02*
X0146548Y0096776D01*
X0145550Y0095778D02*
X0141000Y0095778D01*
X0141000Y0094779D02*
X0144551Y0094779D01*
X0143552Y0093781D02*
X0141000Y0093781D01*
X0141000Y0092782D02*
X0142554Y0092782D01*
X0141555Y0091784D02*
X0141000Y0091784D01*
X0136807Y0090785D02*
X0131000Y0090785D01*
X0131000Y0089787D02*
X0135808Y0089787D01*
X0134810Y0088788D02*
X0131000Y0088788D01*
X0131000Y0087790D02*
X0133811Y0087790D01*
X0132813Y0086791D02*
X0131000Y0086791D01*
X0131000Y0085793D02*
X0131814Y0085793D01*
X0142264Y0103766D02*
X0145736Y0103766D01*
X0145198Y0104765D02*
X0142802Y0104765D01*
X0143100Y0105763D02*
X0144900Y0105763D01*
X0144900Y0106762D02*
X0143100Y0106762D01*
X0143100Y0107760D02*
X0144900Y0107760D01*
X0162264Y0103766D02*
X0165736Y0103766D01*
X0165198Y0104765D02*
X0162802Y0104765D01*
X0163100Y0105763D02*
X0164900Y0105763D01*
X0164900Y0106762D02*
X0163100Y0106762D01*
X0163100Y0107760D02*
X0164900Y0107760D01*
X0181700Y0072812D02*
X0187114Y0072812D01*
X0186115Y0071814D02*
X0181700Y0071814D01*
X0181700Y0070815D02*
X0185117Y0070815D01*
X0184900Y0069817D02*
X0181700Y0069817D01*
X0182458Y0053840D02*
X0194750Y0053840D01*
X0194750Y0052842D02*
X0190856Y0052842D01*
X0191855Y0051843D02*
X0194750Y0051843D01*
X0194750Y0050845D02*
X0192853Y0050845D01*
X0193100Y0049846D02*
X0194750Y0049846D01*
X0194750Y0048848D02*
X0193100Y0048848D01*
X0193100Y0047849D02*
X0194750Y0047849D01*
X0194750Y0046851D02*
X0192749Y0046851D01*
X0191751Y0045852D02*
X0194750Y0045852D01*
X0194750Y0044854D02*
X0191700Y0044854D01*
X0191700Y0043855D02*
X0194750Y0043855D01*
X0194750Y0042857D02*
X0191700Y0042857D01*
X0191700Y0041858D02*
X0194750Y0041858D01*
X0194750Y0040860D02*
X0191700Y0040860D01*
X0191700Y0039861D02*
X0194750Y0039861D01*
X0194750Y0038863D02*
X0191700Y0038863D01*
X0191700Y0037864D02*
X0194750Y0037864D01*
X0194750Y0036866D02*
X0191700Y0036866D01*
X0191700Y0035867D02*
X0194750Y0035867D01*
X0194750Y0034869D02*
X0191700Y0034869D01*
X0191700Y0033870D02*
X0194750Y0033870D01*
X0194750Y0032872D02*
X0191700Y0032872D01*
X0191700Y0031873D02*
X0194750Y0031873D01*
X0194750Y0030875D02*
X0191700Y0030875D01*
X0191700Y0029876D02*
X0194750Y0029876D01*
X0189000Y0035150D02*
X0181500Y0035150D01*
X0179000Y0032650D01*
X0179000Y0013900D01*
X0177000Y0029876D02*
X0151000Y0029876D01*
X0151000Y0030875D02*
X0177000Y0030875D01*
X0177000Y0031873D02*
X0151618Y0031873D01*
X0152129Y0032872D02*
X0177000Y0032872D01*
X0177392Y0033870D02*
X0152284Y0033870D01*
X0152154Y0034869D02*
X0178390Y0034869D01*
X0179389Y0035867D02*
X0151677Y0035867D01*
X0150422Y0036866D02*
X0180387Y0036866D01*
X0179500Y0035978D02*
X0179500Y0035978D01*
X0186300Y0037864D02*
X0150793Y0037864D01*
X0151791Y0038863D02*
X0186300Y0038863D01*
X0186300Y0039861D02*
X0152790Y0039861D01*
X0153788Y0040860D02*
X0186300Y0040860D01*
X0186300Y0041858D02*
X0154787Y0041858D01*
X0155785Y0042857D02*
X0156645Y0042857D01*
X0149000Y0033900D02*
X0149000Y0013900D01*
X0139000Y0013900D02*
X0139000Y0028900D01*
X0127000Y0029876D02*
X0121000Y0029876D01*
X0121000Y0030875D02*
X0127000Y0030875D01*
X0127000Y0031873D02*
X0121000Y0031873D01*
X0120357Y0032872D02*
X0127000Y0032872D01*
X0127000Y0033870D02*
X0119358Y0033870D01*
X0118360Y0034869D02*
X0127000Y0034869D01*
X0127000Y0035867D02*
X0117361Y0035867D01*
X0116363Y0036866D02*
X0127000Y0036866D01*
X0127000Y0037864D02*
X0115364Y0037864D01*
X0114366Y0038863D02*
X0127000Y0038863D01*
X0127000Y0039861D02*
X0113367Y0039861D01*
X0111000Y0036572D02*
X0117000Y0030572D01*
X0117000Y0028900D01*
X0111000Y0028900D01*
X0111000Y0036572D01*
X0111000Y0035867D02*
X0111704Y0035867D01*
X0111000Y0034869D02*
X0112703Y0034869D01*
X0113701Y0033870D02*
X0111000Y0033870D01*
X0111000Y0032872D02*
X0114700Y0032872D01*
X0115698Y0031873D02*
X0111000Y0031873D01*
X0111000Y0030875D02*
X0116697Y0030875D01*
X0117000Y0029876D02*
X0111000Y0029876D01*
X0181355Y0042857D02*
X0186300Y0042857D01*
X0186300Y0043855D02*
X0182354Y0043855D01*
X0182839Y0044854D02*
X0186300Y0044854D01*
X0186249Y0045852D02*
X0183100Y0045852D01*
X0183100Y0051843D02*
X0186145Y0051843D01*
X0187144Y0052842D02*
X0182882Y0052842D01*
D14*
X0179000Y0048900D02*
X0179000Y0108900D01*
X0179000Y0048900D02*
X0189000Y0048900D01*
X0189000Y0035150D01*
X0189000Y0013900D01*
X0009000Y0013900D02*
X0009000Y0035150D01*
D15*
X0009000Y0031400D03*
X0024000Y0033900D03*
X0034000Y0033900D03*
X0044000Y0033900D03*
X0054000Y0033900D03*
X0064000Y0033900D03*
X0074000Y0032650D03*
X0084000Y0032650D03*
X0094000Y0032650D03*
X0104000Y0032650D03*
X0112750Y0032650D03*
X0124000Y0033900D03*
X0114000Y0042650D03*
X0139000Y0036400D03*
X0149000Y0033900D03*
X0156500Y0032650D03*
X0144000Y0043900D03*
X0150250Y0060150D03*
X0159000Y0067650D03*
X0174000Y0056400D03*
X0182750Y0040150D03*
X0125250Y0062650D03*
X0111500Y0076400D03*
X0097750Y0078900D03*
X0087750Y0081400D03*
X0064000Y0082650D03*
X0054000Y0093900D03*
X0064000Y0098900D03*
X0084000Y0100150D03*
X0094000Y0101400D03*
X0104000Y0101400D03*
X0114000Y0101400D03*
X0124000Y0101400D03*
X0134000Y0101400D03*
X0144000Y0101400D03*
X0134000Y0091400D03*
X0124000Y0087650D03*
X0159000Y0086400D03*
X0172750Y0098900D03*
X0164000Y0102650D03*
X0184000Y0097650D03*
X0189000Y0107650D03*
X0184000Y0078900D03*
X0084000Y0058900D03*
X0075250Y0060150D03*
X0066500Y0061400D03*
X0062750Y0067650D03*
X0052750Y0057650D03*
X0030250Y0065150D03*
X0029000Y0058900D03*
X0019000Y0045150D03*
X0006500Y0055150D03*
X0039000Y0072650D03*
X0006500Y0082650D03*
X0027750Y0111400D03*
M02*
