G75*
%MOIN*%
%OFA0B0*%
%FSLAX25Y25*%
%IPPOS*%
%LPD*%
%AMOC8*
5,1,8,0,0,1.08239X$1,22.5*
%
%ADD10R,0.06299X0.05118*%
%ADD11R,0.05118X0.06299*%
%ADD12R,0.09449X0.09449*%
%ADD13R,0.02600X0.08000*%
%ADD14R,0.02756X0.05118*%
%ADD15R,0.14000X0.10000*%
%ADD16R,0.08000X0.02600*%
%ADD17R,0.05000X0.03000*%
%ADD18R,0.08661X0.02362*%
%ADD19R,0.02362X0.08661*%
%ADD20R,0.04600X0.06300*%
%ADD21R,0.06300X0.04600*%
%ADD22R,0.14173X0.07087*%
%ADD23R,0.07600X0.21000*%
%ADD24R,0.03937X0.05512*%
%ADD25R,0.02362X0.03543*%
%ADD26R,0.09843X0.07874*%
%ADD27R,0.09843X0.01969*%
%ADD28R,0.01181X0.02362*%
%ADD29C,0.00400*%
%ADD30R,0.07087X0.05512*%
%ADD31R,0.09449X0.07874*%
D10*
X0116928Y0212660D03*
X0116928Y0220140D03*
X0128178Y0266213D03*
X0128178Y0274087D03*
X0116928Y0272660D03*
X0116928Y0280140D03*
X0116928Y0288713D03*
X0116928Y0296587D03*
X0149428Y0344963D03*
X0149428Y0352837D03*
X0168178Y0275337D03*
X0168178Y0267463D03*
X0166928Y0170337D03*
X0166928Y0162463D03*
X0166928Y0152640D03*
X0166928Y0145160D03*
X0166928Y0135140D03*
X0166928Y0127660D03*
X0166928Y0117837D03*
X0166928Y0109963D03*
X0168178Y0038890D03*
X0168178Y0031410D03*
X0176928Y0031410D03*
X0176928Y0038890D03*
X0185678Y0038890D03*
X0185678Y0031410D03*
X0150678Y0031213D03*
X0150678Y0039087D03*
X0209428Y0109963D03*
X0209428Y0117837D03*
X0229428Y0115140D03*
X0229428Y0107660D03*
X0229428Y0123713D03*
X0229428Y0131587D03*
X0238178Y0141213D03*
X0238178Y0149087D03*
X0263178Y0192463D03*
X0263178Y0200337D03*
X0271928Y0200140D03*
X0271928Y0192660D03*
X0280678Y0192660D03*
X0280678Y0182640D03*
X0280678Y0175160D03*
X0280678Y0165140D03*
X0280678Y0157660D03*
X0265678Y0125140D03*
X0265678Y0117660D03*
X0280678Y0039087D03*
X0280678Y0031213D03*
X0314428Y0162463D03*
X0314428Y0170337D03*
X0280678Y0200140D03*
X0284428Y0256213D03*
X0284428Y0264087D03*
X0229428Y0252640D03*
X0229428Y0245160D03*
X0335678Y0442463D03*
X0335678Y0450337D03*
X0356928Y0434087D03*
X0356928Y0426213D03*
X0365678Y0426213D03*
X0365678Y0434087D03*
X0359428Y0491410D03*
X0359428Y0498890D03*
X0299428Y0480337D03*
X0299428Y0472463D03*
X0289428Y0472463D03*
X0289428Y0480337D03*
X0230678Y0521410D03*
X0230678Y0528890D03*
X0221928Y0528890D03*
X0221928Y0521410D03*
X0211928Y0521410D03*
X0211928Y0528890D03*
X0201928Y0528890D03*
X0201928Y0521410D03*
X0191928Y0521410D03*
X0191928Y0528890D03*
X0181928Y0528890D03*
X0181928Y0521410D03*
X0171928Y0521410D03*
X0171928Y0528890D03*
X0161928Y0528890D03*
X0161928Y0521410D03*
D11*
X0197991Y0477650D03*
X0205865Y0477650D03*
X0214438Y0477650D03*
X0221919Y0477650D03*
X0231938Y0477650D03*
X0239419Y0477650D03*
X0238169Y0466400D03*
X0230688Y0466400D03*
X0246938Y0465150D03*
X0254419Y0465150D03*
X0255865Y0477650D03*
X0247991Y0477650D03*
X0270688Y0446400D03*
X0265865Y0436400D03*
X0257991Y0436400D03*
X0275491Y0430150D03*
X0283365Y0430150D03*
X0278169Y0446400D03*
X0318188Y0450150D03*
X0318188Y0441400D03*
X0325669Y0441400D03*
X0325669Y0450150D03*
G36*
X0328879Y0501402D02*
X0332498Y0497783D01*
X0328045Y0493330D01*
X0324426Y0496949D01*
X0328879Y0501402D01*
G37*
G36*
X0323312Y0506970D02*
X0326931Y0503351D01*
X0322478Y0498898D01*
X0318859Y0502517D01*
X0323312Y0506970D01*
G37*
X0206919Y0438900D03*
X0199438Y0438900D03*
X0190669Y0438900D03*
X0183188Y0438900D03*
X0173169Y0438900D03*
X0165688Y0438900D03*
X0165865Y0448900D03*
X0157991Y0448900D03*
X0221938Y0210150D03*
X0229419Y0210150D03*
X0214615Y0163900D03*
X0206741Y0163900D03*
X0230491Y0098900D03*
X0238365Y0098900D03*
X0246741Y0098900D03*
X0254615Y0098900D03*
X0254419Y0141400D03*
X0246938Y0141400D03*
X0246741Y0155150D03*
X0254615Y0155150D03*
X0262991Y0155150D03*
X0270865Y0155150D03*
X0219615Y0032650D03*
X0211741Y0032650D03*
X0169419Y0073900D03*
X0161938Y0073900D03*
X0153169Y0073900D03*
X0145688Y0073900D03*
D12*
X0219428Y0445239D03*
X0219428Y0462561D03*
D13*
X0226928Y0072450D03*
X0231928Y0072450D03*
X0236928Y0072450D03*
X0241928Y0072450D03*
X0246928Y0072450D03*
X0251928Y0072450D03*
X0256928Y0072450D03*
X0261928Y0072450D03*
X0266928Y0072450D03*
X0271928Y0072450D03*
X0289428Y0072450D03*
X0294428Y0072450D03*
X0299428Y0072450D03*
X0304428Y0072450D03*
X0309428Y0072450D03*
X0314428Y0072450D03*
X0319428Y0072450D03*
X0324428Y0072450D03*
X0329428Y0072450D03*
X0334428Y0072450D03*
X0334428Y0032850D03*
X0329428Y0032850D03*
X0324428Y0032850D03*
X0319428Y0032850D03*
X0314428Y0032850D03*
X0309428Y0032850D03*
X0304428Y0032850D03*
X0299428Y0032850D03*
X0294428Y0032850D03*
X0289428Y0032850D03*
X0271928Y0032850D03*
X0266928Y0032850D03*
X0261928Y0032850D03*
X0256928Y0032850D03*
X0251928Y0032850D03*
X0246928Y0032850D03*
X0241928Y0032850D03*
X0236928Y0032850D03*
X0231928Y0032850D03*
X0226928Y0032850D03*
D14*
X0264428Y0458073D03*
X0269428Y0458073D03*
X0274428Y0458073D03*
X0279428Y0458073D03*
X0279428Y0479727D03*
X0274428Y0479727D03*
X0269428Y0479727D03*
X0264428Y0479727D03*
D15*
X0271928Y0468900D03*
D16*
X0207778Y0398900D03*
X0207778Y0393900D03*
X0207778Y0388900D03*
X0207778Y0383900D03*
X0207778Y0378900D03*
X0207778Y0373900D03*
X0207778Y0368900D03*
X0207778Y0363900D03*
X0183578Y0363900D03*
X0183578Y0368900D03*
X0183578Y0373900D03*
X0183578Y0378900D03*
X0183578Y0383900D03*
X0183578Y0388900D03*
X0183578Y0393900D03*
X0183578Y0398900D03*
X0164028Y0398900D03*
X0164028Y0393900D03*
X0164028Y0388900D03*
X0164028Y0383900D03*
X0164028Y0378900D03*
X0164028Y0373900D03*
X0164028Y0368900D03*
X0164028Y0363900D03*
X0139828Y0363900D03*
X0139828Y0368900D03*
X0139828Y0373900D03*
X0139828Y0378900D03*
X0139828Y0383900D03*
X0139828Y0388900D03*
X0139828Y0393900D03*
X0139828Y0398900D03*
X0180878Y0263900D03*
X0180878Y0258900D03*
X0180878Y0253900D03*
X0180878Y0248900D03*
X0180878Y0243900D03*
X0180878Y0238900D03*
X0180878Y0233900D03*
X0180878Y0228900D03*
X0180878Y0223900D03*
X0180878Y0218900D03*
X0184828Y0201400D03*
X0184828Y0196400D03*
X0184828Y0191400D03*
X0184828Y0186400D03*
X0184828Y0181400D03*
X0184828Y0176400D03*
X0184828Y0171400D03*
X0184828Y0156400D03*
X0184828Y0151400D03*
X0184828Y0146400D03*
X0184828Y0141400D03*
X0184828Y0136400D03*
X0184828Y0131400D03*
X0184828Y0126400D03*
X0209028Y0126400D03*
X0209028Y0131400D03*
X0209028Y0136400D03*
X0209028Y0141400D03*
X0209028Y0146400D03*
X0209028Y0151400D03*
X0209028Y0156400D03*
X0209028Y0171400D03*
X0209028Y0176400D03*
X0209028Y0181400D03*
X0209028Y0186400D03*
X0209028Y0191400D03*
X0209028Y0196400D03*
X0209028Y0201400D03*
X0220478Y0218900D03*
X0220478Y0223900D03*
X0220478Y0228900D03*
X0220478Y0233900D03*
X0220478Y0238900D03*
X0220478Y0243900D03*
X0220478Y0248900D03*
X0220478Y0253900D03*
X0220478Y0258900D03*
X0220478Y0263900D03*
X0242328Y0248900D03*
X0242328Y0243900D03*
X0242328Y0238900D03*
X0242328Y0233900D03*
X0242328Y0228900D03*
X0242328Y0223900D03*
X0242328Y0218900D03*
X0249028Y0201400D03*
X0249028Y0196400D03*
X0249028Y0191400D03*
X0249028Y0186400D03*
X0249028Y0181400D03*
X0249028Y0176400D03*
X0249028Y0171400D03*
X0249028Y0166400D03*
X0224828Y0166400D03*
X0224828Y0171400D03*
X0224828Y0176400D03*
X0224828Y0181400D03*
X0224828Y0186400D03*
X0224828Y0191400D03*
X0224828Y0196400D03*
X0224828Y0201400D03*
X0266528Y0218900D03*
X0266528Y0223900D03*
X0266528Y0228900D03*
X0266528Y0233900D03*
X0266528Y0238900D03*
X0266528Y0243900D03*
X0266528Y0248900D03*
X0284828Y0248900D03*
X0284828Y0243900D03*
X0284828Y0238900D03*
X0284828Y0233900D03*
X0284828Y0228900D03*
X0284828Y0223900D03*
X0284828Y0218900D03*
X0309028Y0218900D03*
X0309028Y0223900D03*
X0309028Y0228900D03*
X0309028Y0233900D03*
X0309028Y0238900D03*
X0309028Y0243900D03*
X0309028Y0248900D03*
X0313378Y0150150D03*
X0313378Y0145150D03*
X0313378Y0140150D03*
X0313378Y0135150D03*
X0313378Y0130150D03*
X0313378Y0125150D03*
X0313378Y0120150D03*
X0313378Y0115150D03*
X0313378Y0110150D03*
X0313378Y0105150D03*
X0352978Y0105150D03*
X0352978Y0110150D03*
X0352978Y0115150D03*
X0352978Y0120150D03*
X0352978Y0125150D03*
X0352978Y0130150D03*
X0352978Y0135150D03*
X0352978Y0140150D03*
X0352978Y0145150D03*
X0352978Y0150150D03*
X0167978Y0213900D03*
X0167978Y0218900D03*
X0167978Y0223900D03*
X0167978Y0228900D03*
X0167978Y0233900D03*
X0167978Y0238900D03*
X0167978Y0243900D03*
X0167978Y0248900D03*
X0167978Y0253900D03*
X0167978Y0258900D03*
X0128378Y0258900D03*
X0128378Y0253900D03*
X0128378Y0248900D03*
X0128378Y0243900D03*
X0128378Y0238900D03*
X0128378Y0233900D03*
X0128378Y0228900D03*
X0128378Y0223900D03*
X0128378Y0218900D03*
X0128378Y0213900D03*
D17*
X0285678Y0287650D03*
X0285678Y0292650D03*
X0285678Y0297650D03*
X0285678Y0302650D03*
X0285678Y0307650D03*
X0285678Y0312650D03*
X0285678Y0317650D03*
X0285678Y0322650D03*
X0285678Y0327650D03*
X0285678Y0332650D03*
X0285678Y0337650D03*
X0285678Y0342650D03*
X0285678Y0347650D03*
X0285678Y0352650D03*
X0326178Y0352650D03*
X0326178Y0347650D03*
X0326178Y0342650D03*
X0326178Y0337650D03*
X0326178Y0332650D03*
X0326178Y0327650D03*
X0326178Y0322650D03*
X0326178Y0317650D03*
X0326178Y0312650D03*
X0326178Y0307650D03*
X0326178Y0302650D03*
X0326178Y0297650D03*
X0326178Y0292650D03*
X0326178Y0287650D03*
D18*
X0262568Y0303900D03*
X0262568Y0308900D03*
X0262568Y0313900D03*
X0262568Y0318900D03*
X0262568Y0323900D03*
X0262568Y0328900D03*
X0262568Y0333900D03*
X0208789Y0333900D03*
X0208789Y0328900D03*
X0208789Y0323900D03*
X0208789Y0318900D03*
X0208789Y0313900D03*
X0208789Y0308900D03*
X0208789Y0303900D03*
D19*
X0215678Y0297010D03*
X0220678Y0297010D03*
X0225678Y0297010D03*
X0230678Y0297010D03*
X0235678Y0297010D03*
X0240678Y0297010D03*
X0245678Y0297010D03*
X0250678Y0297010D03*
X0255678Y0297010D03*
X0255678Y0340790D03*
X0250678Y0340790D03*
X0245678Y0340790D03*
X0240678Y0340790D03*
X0235678Y0340790D03*
X0230678Y0340790D03*
X0225678Y0340790D03*
X0220678Y0340790D03*
X0215678Y0340790D03*
X0190678Y0449914D03*
X0185678Y0449914D03*
X0180678Y0449914D03*
X0175678Y0449914D03*
X0175678Y0470386D03*
X0180678Y0470386D03*
X0185678Y0470386D03*
X0190678Y0470386D03*
X0240678Y0131636D03*
X0245678Y0131636D03*
X0250678Y0131636D03*
X0255678Y0131636D03*
X0255678Y0111164D03*
X0250678Y0111164D03*
X0245678Y0111164D03*
X0240678Y0111164D03*
D20*
X0169928Y0180150D03*
X0163928Y0180150D03*
X0163928Y0191400D03*
X0169928Y0191400D03*
D21*
X0186928Y0116900D03*
X0186928Y0110900D03*
X0199428Y0110900D03*
X0199428Y0116900D03*
D22*
X0203178Y0451026D03*
X0203178Y0466774D03*
D23*
X0149428Y0160400D03*
X0149428Y0122400D03*
D24*
X0264438Y0108231D03*
X0268178Y0099569D03*
X0271919Y0108231D03*
X0251928Y0444569D03*
X0248188Y0453231D03*
X0255669Y0453231D03*
D25*
X0238169Y0453428D03*
X0234428Y0453428D03*
X0230688Y0453428D03*
X0230688Y0444372D03*
X0234428Y0444372D03*
X0238169Y0444372D03*
D26*
X0347086Y0444077D03*
X0347086Y0479117D03*
X0368739Y0479117D03*
X0368739Y0443683D03*
D27*
X0347086Y0455101D03*
X0347086Y0458250D03*
X0347086Y0461400D03*
X0347086Y0464550D03*
X0347086Y0467699D03*
D28*
X0324350Y0467463D03*
X0322381Y0467463D03*
X0320413Y0467463D03*
X0318444Y0467463D03*
X0316476Y0467463D03*
X0314507Y0467463D03*
X0314507Y0471400D03*
X0316476Y0471400D03*
X0318444Y0471400D03*
X0320413Y0471400D03*
X0322381Y0471400D03*
X0324350Y0471400D03*
X0324350Y0475337D03*
X0322381Y0475337D03*
X0320413Y0475337D03*
X0318444Y0475337D03*
X0316476Y0475337D03*
X0314507Y0475337D03*
D29*
X0311259Y0474648D02*
X0309488Y0474648D01*
X0309488Y0474057D01*
X0311259Y0474057D01*
X0311259Y0474648D01*
X0311259Y0474433D02*
X0309488Y0474433D01*
X0309488Y0476026D02*
X0309488Y0476617D01*
X0311259Y0476617D01*
X0311259Y0476026D01*
X0309488Y0476026D01*
X0309488Y0476027D02*
X0311259Y0476027D01*
X0311259Y0476425D02*
X0309488Y0476425D01*
X0309488Y0477994D02*
X0309488Y0478585D01*
X0311062Y0478585D01*
X0311259Y0478388D01*
X0311259Y0477994D01*
X0309488Y0477994D01*
X0309488Y0478020D02*
X0311259Y0478020D01*
X0311229Y0478418D02*
X0309488Y0478418D01*
X0312243Y0479766D02*
X0312440Y0479569D01*
X0312834Y0479569D01*
X0312834Y0481341D01*
X0312243Y0481341D01*
X0312243Y0479766D01*
X0312396Y0479614D02*
X0312834Y0479614D01*
X0312834Y0480012D02*
X0312243Y0480012D01*
X0312243Y0480411D02*
X0312834Y0480411D01*
X0312834Y0480809D02*
X0312243Y0480809D01*
X0312243Y0481208D02*
X0312834Y0481208D01*
X0314212Y0481208D02*
X0314802Y0481208D01*
X0314802Y0481341D02*
X0314212Y0481341D01*
X0314212Y0479569D01*
X0314802Y0479569D01*
X0314802Y0481341D01*
X0314802Y0480809D02*
X0314212Y0480809D01*
X0314212Y0480411D02*
X0314802Y0480411D01*
X0314802Y0480012D02*
X0314212Y0480012D01*
X0314212Y0479614D02*
X0314802Y0479614D01*
X0316180Y0479614D02*
X0316771Y0479614D01*
X0316771Y0479569D02*
X0316771Y0481341D01*
X0316180Y0481341D01*
X0316180Y0479569D01*
X0316771Y0479569D01*
X0316771Y0480012D02*
X0316180Y0480012D01*
X0316180Y0480411D02*
X0316771Y0480411D01*
X0316771Y0480809D02*
X0316180Y0480809D01*
X0316180Y0481208D02*
X0316771Y0481208D01*
X0318149Y0481208D02*
X0318739Y0481208D01*
X0318739Y0481341D02*
X0318149Y0481341D01*
X0318149Y0479569D01*
X0318739Y0479569D01*
X0318739Y0481341D01*
X0318739Y0480809D02*
X0318149Y0480809D01*
X0318149Y0480411D02*
X0318739Y0480411D01*
X0318739Y0480012D02*
X0318149Y0480012D01*
X0318149Y0479614D02*
X0318739Y0479614D01*
X0320117Y0479614D02*
X0320708Y0479614D01*
X0320708Y0479569D02*
X0320708Y0481341D01*
X0320117Y0481341D01*
X0320117Y0479569D01*
X0320708Y0479569D01*
X0320708Y0480012D02*
X0320117Y0480012D01*
X0320117Y0480411D02*
X0320708Y0480411D01*
X0320708Y0480809D02*
X0320117Y0480809D01*
X0320117Y0481208D02*
X0320708Y0481208D01*
X0322086Y0481208D02*
X0322677Y0481208D01*
X0322677Y0481341D02*
X0322086Y0481341D01*
X0322086Y0479569D01*
X0322677Y0479569D01*
X0322677Y0481341D01*
X0322677Y0480809D02*
X0322086Y0480809D01*
X0322086Y0480411D02*
X0322677Y0480411D01*
X0322677Y0480012D02*
X0322086Y0480012D01*
X0322086Y0479614D02*
X0322677Y0479614D01*
X0324054Y0479614D02*
X0324645Y0479614D01*
X0324645Y0479569D02*
X0324645Y0481341D01*
X0324054Y0481341D01*
X0324054Y0479569D01*
X0324645Y0479569D01*
X0324645Y0480012D02*
X0324054Y0480012D01*
X0324054Y0480411D02*
X0324645Y0480411D01*
X0324645Y0480809D02*
X0324054Y0480809D01*
X0324054Y0481208D02*
X0324645Y0481208D01*
X0326023Y0481208D02*
X0326614Y0481208D01*
X0326614Y0481341D02*
X0326023Y0481341D01*
X0326023Y0479569D01*
X0326417Y0479569D01*
X0326614Y0479766D01*
X0326614Y0481341D01*
X0326614Y0480809D02*
X0326023Y0480809D01*
X0326023Y0480411D02*
X0326614Y0480411D01*
X0326614Y0480012D02*
X0326023Y0480012D01*
X0326023Y0479614D02*
X0326461Y0479614D01*
X0327628Y0478418D02*
X0329369Y0478418D01*
X0329369Y0478585D02*
X0329369Y0477994D01*
X0327598Y0477994D01*
X0327598Y0478388D01*
X0327795Y0478585D01*
X0329369Y0478585D01*
X0329369Y0478020D02*
X0327598Y0478020D01*
X0327598Y0476617D02*
X0327598Y0476026D01*
X0329369Y0476026D01*
X0329369Y0476617D01*
X0327598Y0476617D01*
X0327598Y0476425D02*
X0329369Y0476425D01*
X0329369Y0476027D02*
X0327598Y0476027D01*
X0327598Y0474648D02*
X0327598Y0474057D01*
X0329369Y0474057D01*
X0329369Y0474648D01*
X0327598Y0474648D01*
X0327598Y0474433D02*
X0329369Y0474433D01*
X0329369Y0472680D02*
X0329369Y0472089D01*
X0327598Y0472089D01*
X0327598Y0472680D01*
X0329369Y0472680D01*
X0329369Y0472440D02*
X0327598Y0472440D01*
X0327598Y0470711D02*
X0327598Y0470120D01*
X0329369Y0470120D01*
X0329369Y0470711D01*
X0327598Y0470711D01*
X0327598Y0470448D02*
X0329369Y0470448D01*
X0329369Y0468743D02*
X0329369Y0468152D01*
X0327598Y0468152D01*
X0327598Y0468743D01*
X0329369Y0468743D01*
X0329369Y0468455D02*
X0327598Y0468455D01*
X0327598Y0466774D02*
X0327598Y0466183D01*
X0329369Y0466183D01*
X0329369Y0466774D01*
X0327598Y0466774D01*
X0327598Y0466463D02*
X0329369Y0466463D01*
X0329369Y0464806D02*
X0329369Y0464215D01*
X0327795Y0464215D01*
X0327598Y0464412D01*
X0327598Y0464806D01*
X0329369Y0464806D01*
X0329369Y0464470D02*
X0327598Y0464470D01*
X0326417Y0463231D02*
X0326023Y0463231D01*
X0326023Y0461459D01*
X0326614Y0461459D01*
X0326614Y0463034D01*
X0326417Y0463231D01*
X0326614Y0462876D02*
X0326023Y0462876D01*
X0326023Y0462478D02*
X0326614Y0462478D01*
X0326614Y0462079D02*
X0326023Y0462079D01*
X0326023Y0461681D02*
X0326614Y0461681D01*
X0324645Y0461681D02*
X0324054Y0461681D01*
X0324054Y0461459D02*
X0324645Y0461459D01*
X0324645Y0463231D01*
X0324054Y0463231D01*
X0324054Y0461459D01*
X0324054Y0462079D02*
X0324645Y0462079D01*
X0324645Y0462478D02*
X0324054Y0462478D01*
X0324054Y0462876D02*
X0324645Y0462876D01*
X0322677Y0462876D02*
X0322086Y0462876D01*
X0322086Y0463231D02*
X0322086Y0461459D01*
X0322677Y0461459D01*
X0322677Y0463231D01*
X0322086Y0463231D01*
X0322086Y0462478D02*
X0322677Y0462478D01*
X0322677Y0462079D02*
X0322086Y0462079D01*
X0322086Y0461681D02*
X0322677Y0461681D01*
X0320708Y0461681D02*
X0320117Y0461681D01*
X0320117Y0461459D02*
X0320708Y0461459D01*
X0320708Y0463231D01*
X0320117Y0463231D01*
X0320117Y0461459D01*
X0320117Y0462079D02*
X0320708Y0462079D01*
X0320708Y0462478D02*
X0320117Y0462478D01*
X0320117Y0462876D02*
X0320708Y0462876D01*
X0318739Y0462876D02*
X0318149Y0462876D01*
X0318149Y0463231D02*
X0318149Y0461459D01*
X0318739Y0461459D01*
X0318739Y0463231D01*
X0318149Y0463231D01*
X0318149Y0462478D02*
X0318739Y0462478D01*
X0318739Y0462079D02*
X0318149Y0462079D01*
X0318149Y0461681D02*
X0318739Y0461681D01*
X0316771Y0461681D02*
X0316180Y0461681D01*
X0316180Y0461459D02*
X0316771Y0461459D01*
X0316771Y0463231D01*
X0316180Y0463231D01*
X0316180Y0461459D01*
X0316180Y0462079D02*
X0316771Y0462079D01*
X0316771Y0462478D02*
X0316180Y0462478D01*
X0316180Y0462876D02*
X0316771Y0462876D01*
X0314802Y0462876D02*
X0314212Y0462876D01*
X0314212Y0463231D02*
X0314212Y0461459D01*
X0314802Y0461459D01*
X0314802Y0463231D01*
X0314212Y0463231D01*
X0314212Y0462478D02*
X0314802Y0462478D01*
X0314802Y0462079D02*
X0314212Y0462079D01*
X0314212Y0461681D02*
X0314802Y0461681D01*
X0312834Y0461681D02*
X0312243Y0461681D01*
X0312243Y0461459D02*
X0312834Y0461459D01*
X0312834Y0463231D01*
X0312440Y0463231D01*
X0312243Y0463034D01*
X0312243Y0461459D01*
X0312243Y0462079D02*
X0312834Y0462079D01*
X0312834Y0462478D02*
X0312243Y0462478D01*
X0312243Y0462876D02*
X0312834Y0462876D01*
X0311259Y0464412D02*
X0311259Y0464806D01*
X0309488Y0464806D01*
X0309488Y0464215D01*
X0311062Y0464215D01*
X0311259Y0464412D01*
X0311259Y0464470D02*
X0309488Y0464470D01*
X0309488Y0466183D02*
X0309488Y0466774D01*
X0311259Y0466774D01*
X0311259Y0466183D01*
X0309488Y0466183D01*
X0309488Y0466463D02*
X0311259Y0466463D01*
X0311259Y0468152D02*
X0309488Y0468152D01*
X0309488Y0468743D01*
X0311259Y0468743D01*
X0311259Y0468152D01*
X0311259Y0468455D02*
X0309488Y0468455D01*
X0309488Y0470120D02*
X0309488Y0470711D01*
X0311259Y0470711D01*
X0311259Y0470120D01*
X0309488Y0470120D01*
X0309488Y0470448D02*
X0311259Y0470448D01*
X0311259Y0472089D02*
X0311259Y0472680D01*
X0309488Y0472680D01*
X0309488Y0472089D01*
X0311259Y0472089D01*
X0311259Y0472440D02*
X0309488Y0472440D01*
D30*
X0116928Y0264343D03*
X0116928Y0250957D03*
X0116928Y0241843D03*
X0116928Y0228457D03*
D31*
X0268178Y0181774D03*
X0268178Y0166026D03*
M02*
