%
M48
M72
T01C0.0197
T02C0.0236
T03C0.0315
T04C0.0320
T05C0.0350
T06C0.0354
T07C0.0394
T08C0.0984
T09C0.1260
%
T01
X10443Y13265
X10943Y14015
X11193Y15890
X10693Y17015
X11443Y18265
X11693Y19640
X12318Y20515
X12693Y20890
X13818Y22890
X13568Y24140
X13568Y25890
X13693Y27140
X14193Y27515
X14693Y27515
X14818Y26640
X15193Y27890
X15193Y28390
X14943Y28765
X15193Y29140
X14818Y29515
X15193Y29890
X14818Y30265
X15193Y30640
X14943Y31140
X14693Y32140
X14193Y32515
X13818Y33890
X13068Y35140
X13818Y35515
X13568Y35890
X14318Y35890
X14943Y36765
X15693Y35265
X16193Y35390
X16318Y35890
X17068Y35515
X17568Y35515
X17943Y35890
X17443Y37015
X18693Y35890
X18443Y35015
X17943Y34015
X17943Y33515
X17693Y32765
X17443Y31890
X17443Y31140
X16943Y30890
X16193Y32515
X16443Y33890
X17068Y34015
X18443Y32890
X18693Y32390
X20193Y31640
X20130Y30890
X21818Y31765
X21818Y33140
X20818Y35390
X20443Y35140
X20443Y34640
X20193Y34140
X21568Y36765
X22193Y37515
X21693Y38015
X19818Y39015
X20068Y40015
X19068Y40265
X18568Y40390
X18193Y41140
X17943Y41890
X18943Y41640
X19443Y43265
X19943Y41390
X21318Y43265
X22443Y43265
X22943Y42140
X23443Y43265
X24318Y44015
X24443Y43265
X24943Y41890
X25943Y41640
X25943Y40890
X26943Y40890
X26943Y41390
X27443Y39390
X28318Y38890
X28443Y41140
X29943Y42390
X30318Y40765
X30443Y40265
X29943Y39390
X30318Y38390
X30568Y38015
X31068Y37515
X31318Y38890
X31943Y40640
X32943Y40765
X35568Y37515
X36193Y38640
X37318Y39015
X37943Y37390
X37943Y35140
X37068Y34265
X36193Y34515
X36193Y33765
X36568Y32390
X37943Y32890
X36443Y30265
X35693Y29140
X36880Y28765
X37943Y27890
X36880Y26140
X37818Y25515
X37193Y24765
X36943Y23640
X36193Y24140
X35818Y23765
X35818Y24765
X35318Y24640
X35818Y22390
X35943Y21015
X36318Y20265
X35943Y19390
X36818Y18890
X35818Y17390
X36068Y16140
X35318Y15515
X34568Y15765
X36068Y14015
X36068Y13140
X36068Y11890
X35818Y10015
X35318Y10078
X37068Y6265
X37818Y5140
X37318Y3390
X36193Y2390
X35068Y890
X33943Y3640
X32818Y5890
X32193Y9890
X32568Y11140
X30693Y13265
X30443Y13890
X30193Y14265
X29943Y14640
X29693Y15765
X30068Y16140
X30318Y16640
X30693Y17015
X31193Y17640
X30943Y18390
X31068Y19015
X30943Y19515
X31193Y20515
X31568Y20890
X31568Y22140
X32068Y23890
X31693Y24265
X31068Y25515
X31318Y27140
X32318Y26140
X32818Y25640
X33068Y25140
X32568Y25140
X32818Y24640
X33568Y25765
X33130Y26515
X33818Y27890
X33943Y29015
X34193Y29390
X34443Y29765
X34693Y30140
X33443Y33265
X33193Y34015
X32068Y34765
X31693Y35390
X29568Y31765
X29943Y30890
X29943Y30390
X30068Y29640
X29193Y29640
X29193Y30390
X29193Y30890
X27943Y31265
X27693Y32265
X27193Y32015
X26318Y33890
X25818Y35015
X25318Y35015
X24443Y35515
X24818Y36390
X24818Y38890
X24568Y39640
X23943Y38890
X25693Y38890
X27818Y34390
X28068Y34015
X27818Y29890
X27068Y29890
X26693Y29140
X27193Y28890
X27443Y27140
X27318Y26265
X27693Y25515
X26443Y26765
X25693Y24890
X24818Y25390
X24943Y26390
X24193Y26390
X23443Y26203
X23568Y25140
X23443Y23765
X24943Y23515
X23943Y21265
X24943Y20890
X25818Y20890
X25693Y20015
X26568Y20640
X26693Y21390
X27443Y21015
X27818Y20640
X28568Y20640
X28818Y19890
X29318Y20140
X29443Y19390
X28818Y19015
X29443Y18140
X29443Y21140
X29443Y21765
X29443Y22890
X29443Y23390
X29443Y24515
X29318Y25265
X29068Y25890
X29568Y27015
X29568Y27515
X29818Y27890
X29443Y28265
X30818Y31015
X31818Y30390
X31818Y29890
X31818Y29390
X35068Y35265
X36443Y36015
X37943Y40890
X37943Y42515
X37943Y44015
X37943Y46140
X37943Y48140
X37943Y50265
X37943Y52140
X37818Y54140
X37318Y54890
X36568Y53890
X36193Y53515
X35693Y53890
X35318Y53515
X34943Y53890
X34568Y53515
X34193Y53890
X33818Y53515
X34193Y52890
X33193Y52765
X32318Y52890
X32193Y52140
X31318Y52890
X30068Y52390
X28818Y50640
X28318Y50640
X27818Y50765
X26943Y50765
X26193Y50390
X25443Y50140
X24568Y50640
X24068Y50890
X23943Y49890
X22943Y49640
X23193Y50890
X23693Y51890
X25693Y51890
X26943Y52390
X27693Y53140
X28193Y52140
X28568Y52390
X28943Y49390
X27693Y48890
X27193Y46890
X26068Y46515
X25568Y47140
X25443Y48515
X24193Y48390
X22818Y45890
X24318Y44890
X26443Y45015
X27443Y43640
X28443Y44890
X28943Y45390
X29193Y44140
X28943Y43515
X29818Y44390
X30068Y44890
X30568Y45640
X30443Y46140
X30568Y47265
X30568Y48015
X30443Y48515
X30318Y49640
X31193Y50140
X29443Y46640
X32068Y45640
X33318Y46140
X33318Y47015
X34818Y48765
X34318Y50390
X35068Y50765
X32693Y53765
X34943Y56015
X35318Y56265
X37943Y56265
X25193Y32265
X24568Y31140
X23818Y33265
X24568Y28390
X21693Y26890
X21318Y27265
X21068Y26015
X21068Y25265
X21193Y24765
X20318Y23890
X20318Y23140
X20193Y22015
X20443Y21140
X19943Y20890
X19568Y20265
X20068Y20140
X19943Y19640
X20068Y19140
X19693Y17640
X18693Y16140
X18318Y16640
X19318Y15765
X19318Y15140
X19943Y15640
X20193Y14390
X20193Y13140
X21568Y15765
X21693Y17140
X21693Y18140
X21693Y19265
X21693Y20203
X21568Y20890
X21193Y22140
X24193Y18765
X24193Y17890
X24193Y16890
X24693Y16140
X23943Y15640
X22943Y14640
X23568Y13140
X22068Y13140
X21693Y12765
X21943Y12390
X21693Y11015
X22068Y9890
X22693Y9265
X23193Y8640
X22193Y8640
X22068Y7390
X20693Y5765
X20318Y6265
X20693Y4890
X20318Y4515
X20443Y3515
X19818Y3390
X19193Y4265
X18818Y4765
X18443Y5015
X18068Y5265
X17693Y5515
X17693Y6765
X18068Y7015
X18443Y7265
X18818Y7515
X19193Y7765
X18818Y9890
X18193Y10515
X17443Y10640
X17568Y11390
X16443Y10140
X15693Y9640
X15193Y10328
X15693Y11640
X14693Y10890
X14443Y10015
X14443Y9515
X14443Y9015
X14693Y6765
X15317Y6766
X15943Y6765
X17568Y7390
X15818Y3890
X16068Y3515
X14443Y3890
X13818Y2890
X12818Y1640
X11818Y2765
X11193Y4765
X11193Y5890
X11193Y8140
X11193Y8890
X11193Y9515
X10943Y11015
X10818Y11515
X11193Y12015
X14443Y14015
X14443Y14515
X15380Y14578
X15255Y13640
X16068Y15515
X15818Y16765
X15568Y18015
X15693Y18515
X14818Y17890
X16568Y20765
X17568Y18765
X14818Y24390
X15318Y24640
X15193Y25265
X15943Y25265
X16068Y26390
X16068Y27265
X17443Y26890
X17943Y26890
X13193Y28890
X12318Y28015
X10943Y28515
X10193Y29390
X10818Y29765
X10318Y30140
X10693Y30765
X11193Y30765
X10318Y31515
X10318Y33015
X10318Y34140
X10318Y35515
X12943Y37890
X13068Y39890
X14318Y40390
X15068Y41140
X15318Y40765
X15818Y40765
X16443Y40515
X16943Y41640
X15943Y42140
X15318Y44140
X15068Y45515
X14818Y46890
X14818Y47890
X15693Y48390
X15943Y49640
X16068Y50265
X15568Y50390
X15443Y49765
X14943Y50390
X14568Y51390
X14443Y52390
X14943Y52390
X14068Y53390
X14693Y54140
X13943Y54765
X13443Y56265
X12943Y53640
X12818Y51890
X13068Y51015
X12943Y50140
X13568Y50265
X11943Y50015
X11568Y48890
X11818Y47890
X11818Y47390
X11568Y46890
X11318Y46390
X11068Y45890
X10318Y46140
X10818Y47765
X10568Y50015
X11068Y51390
X11318Y53515
X10818Y56515
X15693Y54515
X17068Y55015
X18943Y50390
X17943Y50140
X16943Y49890
X15943Y46390
X15943Y45765
X14068Y42515
X14443Y41890
X14693Y41515
X13318Y42265
X13068Y43890
X12068Y42640
X10318Y41890
X10318Y40140
X10318Y44015
X17318Y39390
X17693Y40265
X18693Y45765
X19068Y46265
X18193Y46265
X20693Y45890
X21443Y48515
X20943Y48640
X11068Y26890
X11693Y25765
X11693Y23515
X10193Y23890
X10193Y22265
X10193Y20640
X10193Y25890
X19943Y9890
X21068Y9640
X24193Y8640
X25193Y8640
X26068Y10265
X25568Y12140
X26193Y14390
X26943Y14890
X27568Y14890
X28318Y15140
X28693Y14140
X28068Y12765
X27443Y13140
X27943Y11015
X27693Y10015
X29193Y9890
X30068Y9890
X28505Y7328
X27818Y6765
X27318Y5640
X27693Y5390
X28068Y5140
X28443Y4890
X28818Y4640
X29193Y4390
X29568Y4140
X29193Y1890
X28443Y1390
X27193Y1890
X26693Y640
X26193Y1890
X25193Y1890
X24193Y1890
X23193Y1890
X22568Y640
X24193Y4015
X24693Y4390
X25068Y4015
X25443Y4390
X25818Y4765
X26193Y5140
X26568Y5515
X26943Y5890
X27693Y4765
X30193Y1765
X30693Y1390
X30443Y640
X35443Y4640
X37818Y8265
X37818Y10015
X37818Y12015
X37943Y13140
X37318Y14890
X34318Y18890
X31443Y15515
X27818Y21765
X27443Y22765
X25568Y17140
X25068Y14765
X23693Y4390
X22943Y4265
X20943Y4390
X20193Y1765
X19693Y1015
X17693Y765
X14568Y765
X12443Y5265
T02
X14943Y42890
X15943Y42890
X16943Y42890
X17943Y42890
X18943Y42890
X19943Y42890
X21943Y42890
X22943Y42890
X23943Y42890
X24943Y42890
X25943Y42890
X26943Y42890
X28943Y42890
X29943Y42890
X30943Y42890
X31943Y42890
X32943Y42890
X33943Y42890
X33943Y48890
X32943Y48890
X31943Y48890
X30943Y48890
X29943Y48890
X28943Y48890
X26943Y48890
X25943Y48890
X24943Y48890
X23943Y48890
X22943Y48890
X21943Y48890
X19943Y48890
X18943Y48890
X17943Y48890
X16943Y48890
X15943Y48890
X14943Y48890
T03
X15193Y51515
X16193Y51515
X17193Y51515
X18193Y51515
X19193Y51515
X20193Y51515
X21193Y51515
X22193Y51515
X23193Y51515
X24193Y51515
X25193Y51515
X26193Y51515
X27193Y51515
X28193Y51515
X29193Y51515
X30193Y51515
X31193Y51515
X32193Y51515
X33193Y51515
X33193Y53515
X32193Y53515
X31193Y53515
X30193Y53515
X29193Y53515
X28193Y53515
X27193Y53515
X26193Y53515
X25193Y53515
X24193Y53515
X23193Y53515
X22193Y53515
X21193Y53515
X20193Y53515
X19193Y53515
X18193Y53515
X17193Y53515
X16193Y53515
X15193Y53515
X29049Y46140
X29837Y46140
T04
X11967Y50890
X11967Y51890
X11967Y52890
X10668Y52890
X10668Y51890
X10668Y50890
T05
X14693Y8265
X15693Y8265
X16693Y8265
X17693Y8265
X18693Y8265
X19693Y8265
X20693Y8265
X21693Y8265
X22693Y8265
X23693Y8265
X24693Y8265
X25693Y8265
X26693Y8265
X27693Y8265
X28693Y8265
X29693Y8265
X30693Y8265
X31693Y8265
X32693Y8265
X33693Y8265
X33693Y2265
X32693Y2265
X31693Y2265
X30693Y2265
X29693Y2265
X28693Y2265
X27693Y2265
X26693Y2265
X25693Y2265
X24693Y2265
X23693Y2265
X22693Y2265
X21693Y2265
X20693Y2265
X19693Y2265
X18693Y2265
X17693Y2265
X16693Y2265
X15693Y2265
X14693Y2265
T06
X35693Y45274
X35693Y47006
T07
X34821Y49933
X34821Y42847
X14443Y43390
X14443Y44390
X14443Y45390
X14443Y46390
X14443Y47390
X14443Y48390
X14443Y49390
X13443Y49390
X13443Y48390
X13443Y47390
X13443Y46390
X13443Y45390
X13443Y44390
X13443Y43390
T08
X13758Y41075
X13758Y51705
X34624Y51705
X34624Y41075
T09
X36398Y55665
X11988Y55665
X11068Y1390
X37318Y1390
M30
