G75*
%MOIN*%
%OFA0B0*%
%FSLAX25Y25*%
%IPPOS*%
%LPD*%
%AMOC8*
5,1,8,0,0,1.08239X$1,22.5*
%
%ADD10R,0.06299X0.05512*%
%ADD11R,0.07087X0.05512*%
%ADD12R,0.04724X0.04724*%
%ADD13R,0.05118X0.06299*%
%ADD14R,0.06299X0.05118*%
%ADD15R,0.02362X0.08661*%
%ADD16R,0.05512X0.06299*%
%ADD17R,0.05118X0.05118*%
%ADD18R,0.07874X0.05118*%
D10*
X0135393Y0110042D03*
X0135393Y0127758D03*
X0135393Y0165042D03*
X0135393Y0182758D03*
X0135393Y0215042D03*
X0135393Y0232758D03*
X0135393Y0265042D03*
X0135393Y0282758D03*
X0135393Y0315042D03*
X0135393Y0332758D03*
X0135393Y0365042D03*
X0135393Y0382758D03*
X0168464Y0382758D03*
X0168464Y0373900D03*
X0168464Y0365042D03*
X0168464Y0332758D03*
X0168464Y0323900D03*
X0168464Y0315042D03*
X0168464Y0282758D03*
X0168464Y0273900D03*
X0168464Y0265042D03*
X0168464Y0232758D03*
X0168464Y0223900D03*
X0168464Y0215042D03*
X0168464Y0182758D03*
X0168464Y0173900D03*
X0168464Y0165042D03*
X0168464Y0127758D03*
X0168464Y0118900D03*
X0168464Y0110042D03*
X0195393Y0110042D03*
X0195393Y0127758D03*
X0195393Y0165042D03*
X0195393Y0182758D03*
X0195393Y0215042D03*
X0195393Y0232758D03*
X0195393Y0265042D03*
X0195393Y0282758D03*
X0195393Y0315042D03*
X0195393Y0332758D03*
X0195393Y0365042D03*
X0195393Y0382758D03*
X0228464Y0382758D03*
X0228464Y0373900D03*
X0228464Y0365042D03*
X0228464Y0332758D03*
X0228464Y0323900D03*
X0228464Y0315042D03*
X0228464Y0282758D03*
X0228464Y0273900D03*
X0228464Y0265042D03*
X0228464Y0232758D03*
X0228464Y0223900D03*
X0228464Y0215042D03*
X0228464Y0182758D03*
X0228464Y0173900D03*
X0228464Y0165042D03*
X0228464Y0127758D03*
X0228464Y0118900D03*
X0228464Y0110042D03*
X0255393Y0110042D03*
X0255393Y0127758D03*
X0255393Y0165042D03*
X0255393Y0182758D03*
X0255393Y0215042D03*
X0255393Y0232758D03*
X0255393Y0265042D03*
X0255393Y0282758D03*
X0255393Y0315042D03*
X0255393Y0332758D03*
X0255393Y0365042D03*
X0255393Y0382758D03*
X0288464Y0382758D03*
X0288464Y0373900D03*
X0288464Y0365042D03*
X0288464Y0332758D03*
X0288464Y0323900D03*
X0288464Y0315042D03*
X0288464Y0282758D03*
X0288464Y0273900D03*
X0288464Y0265042D03*
X0288464Y0232758D03*
X0288464Y0223900D03*
X0288464Y0215042D03*
X0288464Y0182758D03*
X0288464Y0173900D03*
X0288464Y0165042D03*
X0288464Y0127758D03*
X0288464Y0118900D03*
X0288464Y0110042D03*
X0315393Y0110042D03*
X0315393Y0127758D03*
X0315393Y0165042D03*
X0315393Y0182758D03*
X0315393Y0215042D03*
X0315393Y0232758D03*
X0315393Y0265042D03*
X0315393Y0282758D03*
X0315393Y0315042D03*
X0315393Y0332758D03*
X0315393Y0365042D03*
X0315393Y0382758D03*
X0348464Y0382758D03*
X0348464Y0373900D03*
X0348464Y0365042D03*
X0348464Y0332758D03*
X0348464Y0323900D03*
X0348464Y0315042D03*
X0348464Y0282758D03*
X0348464Y0273900D03*
X0348464Y0265042D03*
X0348464Y0232758D03*
X0348464Y0223900D03*
X0348464Y0215042D03*
X0348464Y0182758D03*
X0348464Y0173900D03*
X0348464Y0165042D03*
X0348464Y0127758D03*
X0348464Y0118900D03*
X0348464Y0110042D03*
D11*
X0361928Y0112207D03*
X0361928Y0125593D03*
X0361928Y0167207D03*
X0361928Y0180593D03*
X0361928Y0217207D03*
X0361928Y0230593D03*
X0361928Y0267207D03*
X0361928Y0280593D03*
X0361928Y0317207D03*
X0361928Y0330593D03*
X0361928Y0367207D03*
X0361928Y0380593D03*
D12*
X0229428Y0551016D03*
X0229428Y0559284D03*
X0176928Y0559284D03*
X0176928Y0551016D03*
X0164428Y0551016D03*
X0164428Y0559284D03*
X0151928Y0559284D03*
X0151928Y0551016D03*
D13*
X0121919Y0448900D03*
X0114438Y0448900D03*
X0114438Y0440150D03*
X0121919Y0440150D03*
X0120865Y0102650D03*
X0112991Y0102650D03*
X0209241Y0012650D03*
X0217115Y0012650D03*
X0351938Y0065150D03*
X0351938Y0073900D03*
X0359419Y0073900D03*
X0359419Y0065150D03*
X0359419Y0082650D03*
X0359419Y0091400D03*
X0351938Y0091400D03*
X0351938Y0082650D03*
D14*
X0301928Y0120160D03*
X0301928Y0127640D03*
X0241928Y0127640D03*
X0241928Y0120160D03*
X0181928Y0120160D03*
X0181928Y0127640D03*
X0121928Y0127640D03*
X0121928Y0120160D03*
X0119428Y0158713D03*
X0119428Y0166587D03*
X0124428Y0389963D03*
X0124428Y0397837D03*
X0189428Y0551410D03*
X0189428Y0558890D03*
X0199428Y0558890D03*
X0199428Y0551410D03*
X0209428Y0551410D03*
X0209428Y0558890D03*
X0219428Y0558890D03*
X0219428Y0551410D03*
D15*
X0189428Y0234136D03*
X0184428Y0234136D03*
X0179428Y0234136D03*
X0174428Y0234136D03*
X0174428Y0213664D03*
X0179428Y0213664D03*
X0184428Y0213664D03*
X0189428Y0213664D03*
D16*
X0113070Y0036115D03*
X0130787Y0036115D03*
X0130787Y0069185D03*
X0121928Y0069185D03*
X0113070Y0069185D03*
D17*
X0112401Y0410573D03*
X0121456Y0410573D03*
D18*
X0116928Y0432227D03*
M02*
