G75*
%MOIN*%
%OFA0B0*%
%FSLAX25Y25*%
%IPPOS*%
%LPD*%
%AMOC8*
5,1,8,0,0,1.08239X$1,22.5*
%
%ADD10C,0.13398*%
%ADD11C,0.06400*%
%ADD12R,0.07099X0.05918*%
%ADD13R,0.05918X0.07099*%
%ADD14R,0.10249X0.10249*%
%ADD15OC8,0.05162*%
%ADD16R,0.03400X0.08800*%
%ADD17R,0.03556X0.05918*%
%ADD18R,0.14800X0.10800*%
%ADD19R,0.08800X0.03400*%
%ADD20R,0.05800X0.03800*%
%ADD21R,0.09461X0.03162*%
%ADD22R,0.03162X0.09461*%
%ADD23R,0.05400X0.07100*%
%ADD24R,0.00600X0.07200*%
%ADD25R,0.07100X0.05400*%
%ADD26R,0.07200X0.00600*%
%ADD27R,0.14973X0.07887*%
%ADD28OC8,0.06737*%
%ADD29C,0.10643*%
%ADD30R,0.08400X0.21800*%
%ADD31R,0.04737X0.06312*%
%ADD32OC8,0.06000*%
%ADD33C,0.06000*%
%ADD34R,0.03162X0.04343*%
%ADD35C,0.07100*%
%ADD36R,0.07100X0.07100*%
%ADD37R,0.10643X0.08674*%
%ADD38R,0.10643X0.02769*%
%ADD39C,0.04343*%
%ADD40C,0.01969*%
%ADD41C,0.00400*%
%ADD42R,0.07887X0.06312*%
%ADD43R,0.05950X0.05950*%
%ADD44C,0.05950*%
%ADD45R,0.10249X0.08674*%
D10*
X0110678Y0013900D03*
X0373178Y0013900D03*
X0363976Y0556646D03*
X0119881Y0556646D03*
D11*
X0290491Y0461400D03*
X0298365Y0461400D03*
D12*
X0299428Y0472463D03*
X0299428Y0480337D03*
X0289428Y0480337D03*
X0289428Y0472463D03*
X0335678Y0450337D03*
X0335678Y0442463D03*
X0356928Y0434087D03*
X0356928Y0426213D03*
X0365678Y0426213D03*
X0365678Y0434087D03*
X0359428Y0491410D03*
X0359428Y0498890D03*
X0230678Y0521410D03*
X0230678Y0528890D03*
X0221928Y0528890D03*
X0221928Y0521410D03*
X0211928Y0521410D03*
X0211928Y0528890D03*
X0201928Y0528890D03*
X0201928Y0521410D03*
X0191928Y0521410D03*
X0191928Y0528890D03*
X0181928Y0528890D03*
X0181928Y0521410D03*
X0171928Y0521410D03*
X0171928Y0528890D03*
X0161928Y0528890D03*
X0161928Y0521410D03*
X0149428Y0352837D03*
X0149428Y0344963D03*
X0116928Y0296587D03*
X0116928Y0288713D03*
X0116928Y0280140D03*
X0116928Y0272660D03*
X0128178Y0274087D03*
X0128178Y0266213D03*
X0116928Y0220140D03*
X0116928Y0212660D03*
X0166928Y0170337D03*
X0166928Y0162463D03*
X0166928Y0152640D03*
X0166928Y0145160D03*
X0166928Y0135140D03*
X0166928Y0127660D03*
X0166928Y0117837D03*
X0166928Y0109963D03*
X0168178Y0038890D03*
X0168178Y0031410D03*
X0176928Y0031410D03*
X0176928Y0038890D03*
X0185678Y0038890D03*
X0185678Y0031410D03*
X0150678Y0031213D03*
X0150678Y0039087D03*
X0209428Y0109963D03*
X0209428Y0117837D03*
X0229428Y0115140D03*
X0229428Y0107660D03*
X0229428Y0123713D03*
X0229428Y0131587D03*
X0238178Y0141213D03*
X0238178Y0149087D03*
X0263178Y0192463D03*
X0263178Y0200337D03*
X0271928Y0200140D03*
X0271928Y0192660D03*
X0280678Y0192660D03*
X0280678Y0182640D03*
X0280678Y0175160D03*
X0280678Y0165140D03*
X0280678Y0157660D03*
X0265678Y0125140D03*
X0265678Y0117660D03*
X0280678Y0039087D03*
X0280678Y0031213D03*
X0314428Y0162463D03*
X0314428Y0170337D03*
X0280678Y0200140D03*
X0284428Y0256213D03*
X0284428Y0264087D03*
X0229428Y0252640D03*
X0229428Y0245160D03*
X0168178Y0267463D03*
X0168178Y0275337D03*
D13*
X0221938Y0210150D03*
X0229419Y0210150D03*
X0214615Y0163900D03*
X0206741Y0163900D03*
X0230491Y0098900D03*
X0238365Y0098900D03*
X0246741Y0098900D03*
X0254615Y0098900D03*
X0254419Y0141400D03*
X0246938Y0141400D03*
X0246741Y0155150D03*
X0254615Y0155150D03*
X0262991Y0155150D03*
X0270865Y0155150D03*
X0219615Y0032650D03*
X0211741Y0032650D03*
X0169419Y0073900D03*
X0161938Y0073900D03*
X0153169Y0073900D03*
X0145688Y0073900D03*
X0275491Y0430150D03*
X0283365Y0430150D03*
X0278169Y0446400D03*
X0270688Y0446400D03*
X0265865Y0436400D03*
X0257991Y0436400D03*
X0254419Y0465150D03*
X0246938Y0465150D03*
X0238169Y0466400D03*
X0230688Y0466400D03*
X0231938Y0477650D03*
X0239419Y0477650D03*
X0247991Y0477650D03*
X0255865Y0477650D03*
X0221919Y0477650D03*
X0214438Y0477650D03*
X0205865Y0477650D03*
X0197991Y0477650D03*
X0199438Y0438900D03*
X0206919Y0438900D03*
X0190669Y0438900D03*
X0183188Y0438900D03*
X0173169Y0438900D03*
X0165688Y0438900D03*
X0165865Y0448900D03*
X0157991Y0448900D03*
X0318188Y0450150D03*
X0318188Y0441400D03*
X0325669Y0441400D03*
X0325669Y0450150D03*
G36*
X0328879Y0501967D02*
X0333063Y0497783D01*
X0328045Y0492765D01*
X0323861Y0496949D01*
X0328879Y0501967D01*
G37*
G36*
X0323312Y0507535D02*
X0327496Y0503351D01*
X0322478Y0498333D01*
X0318294Y0502517D01*
X0323312Y0507535D01*
G37*
D14*
X0219428Y0462561D03*
X0219428Y0445239D03*
D15*
X0219428Y0428900D03*
X0229428Y0428900D03*
X0239428Y0428900D03*
X0249428Y0428900D03*
X0259428Y0428900D03*
X0269428Y0428900D03*
X0289428Y0428900D03*
X0299428Y0428900D03*
X0309428Y0428900D03*
X0319428Y0428900D03*
X0329428Y0428900D03*
X0339428Y0428900D03*
X0339428Y0488900D03*
X0329428Y0488900D03*
X0319428Y0488900D03*
X0309428Y0488900D03*
X0299428Y0488900D03*
X0289428Y0488900D03*
X0269428Y0488900D03*
X0259428Y0488900D03*
X0249428Y0488900D03*
X0239428Y0488900D03*
X0229428Y0488900D03*
X0219428Y0488900D03*
X0199428Y0488900D03*
X0189428Y0488900D03*
X0179428Y0488900D03*
X0169428Y0488900D03*
X0159428Y0488900D03*
X0149428Y0488900D03*
X0149428Y0428900D03*
X0159428Y0428900D03*
X0169428Y0428900D03*
X0179428Y0428900D03*
X0189428Y0428900D03*
X0199428Y0428900D03*
D16*
X0226928Y0072450D03*
X0231928Y0072450D03*
X0236928Y0072450D03*
X0241928Y0072450D03*
X0246928Y0072450D03*
X0251928Y0072450D03*
X0256928Y0072450D03*
X0261928Y0072450D03*
X0266928Y0072450D03*
X0271928Y0072450D03*
X0289428Y0072450D03*
X0294428Y0072450D03*
X0299428Y0072450D03*
X0304428Y0072450D03*
X0309428Y0072450D03*
X0314428Y0072450D03*
X0319428Y0072450D03*
X0324428Y0072450D03*
X0329428Y0072450D03*
X0334428Y0072450D03*
X0334428Y0032850D03*
X0329428Y0032850D03*
X0324428Y0032850D03*
X0319428Y0032850D03*
X0314428Y0032850D03*
X0309428Y0032850D03*
X0304428Y0032850D03*
X0299428Y0032850D03*
X0294428Y0032850D03*
X0289428Y0032850D03*
X0271928Y0032850D03*
X0266928Y0032850D03*
X0261928Y0032850D03*
X0256928Y0032850D03*
X0251928Y0032850D03*
X0246928Y0032850D03*
X0241928Y0032850D03*
X0236928Y0032850D03*
X0231928Y0032850D03*
X0226928Y0032850D03*
D17*
X0264428Y0458073D03*
X0269428Y0458073D03*
X0274428Y0458073D03*
X0279428Y0458073D03*
X0279428Y0479727D03*
X0274428Y0479727D03*
X0269428Y0479727D03*
X0264428Y0479727D03*
D18*
X0271928Y0468900D03*
D19*
X0207778Y0398900D03*
X0207778Y0393900D03*
X0207778Y0388900D03*
X0207778Y0383900D03*
X0207778Y0378900D03*
X0207778Y0373900D03*
X0207778Y0368900D03*
X0207778Y0363900D03*
X0183578Y0363900D03*
X0183578Y0368900D03*
X0183578Y0373900D03*
X0183578Y0378900D03*
X0183578Y0383900D03*
X0183578Y0388900D03*
X0183578Y0393900D03*
X0183578Y0398900D03*
X0164028Y0398900D03*
X0164028Y0393900D03*
X0164028Y0388900D03*
X0164028Y0383900D03*
X0164028Y0378900D03*
X0164028Y0373900D03*
X0164028Y0368900D03*
X0164028Y0363900D03*
X0139828Y0363900D03*
X0139828Y0368900D03*
X0139828Y0373900D03*
X0139828Y0378900D03*
X0139828Y0383900D03*
X0139828Y0388900D03*
X0139828Y0393900D03*
X0139828Y0398900D03*
X0180878Y0263900D03*
X0180878Y0258900D03*
X0180878Y0253900D03*
X0180878Y0248900D03*
X0180878Y0243900D03*
X0180878Y0238900D03*
X0180878Y0233900D03*
X0180878Y0228900D03*
X0180878Y0223900D03*
X0180878Y0218900D03*
X0184828Y0201400D03*
X0184828Y0196400D03*
X0184828Y0191400D03*
X0184828Y0186400D03*
X0184828Y0181400D03*
X0184828Y0176400D03*
X0184828Y0171400D03*
X0184828Y0156400D03*
X0184828Y0151400D03*
X0184828Y0146400D03*
X0184828Y0141400D03*
X0184828Y0136400D03*
X0184828Y0131400D03*
X0184828Y0126400D03*
X0209028Y0126400D03*
X0209028Y0131400D03*
X0209028Y0136400D03*
X0209028Y0141400D03*
X0209028Y0146400D03*
X0209028Y0151400D03*
X0209028Y0156400D03*
X0209028Y0171400D03*
X0209028Y0176400D03*
X0209028Y0181400D03*
X0209028Y0186400D03*
X0209028Y0191400D03*
X0209028Y0196400D03*
X0209028Y0201400D03*
X0220478Y0218900D03*
X0220478Y0223900D03*
X0220478Y0228900D03*
X0220478Y0233900D03*
X0220478Y0238900D03*
X0220478Y0243900D03*
X0220478Y0248900D03*
X0220478Y0253900D03*
X0220478Y0258900D03*
X0220478Y0263900D03*
X0242328Y0248900D03*
X0242328Y0243900D03*
X0242328Y0238900D03*
X0242328Y0233900D03*
X0242328Y0228900D03*
X0242328Y0223900D03*
X0242328Y0218900D03*
X0249028Y0201400D03*
X0249028Y0196400D03*
X0249028Y0191400D03*
X0249028Y0186400D03*
X0249028Y0181400D03*
X0249028Y0176400D03*
X0249028Y0171400D03*
X0249028Y0166400D03*
X0224828Y0166400D03*
X0224828Y0171400D03*
X0224828Y0176400D03*
X0224828Y0181400D03*
X0224828Y0186400D03*
X0224828Y0191400D03*
X0224828Y0196400D03*
X0224828Y0201400D03*
X0266528Y0218900D03*
X0266528Y0223900D03*
X0266528Y0228900D03*
X0266528Y0233900D03*
X0266528Y0238900D03*
X0266528Y0243900D03*
X0266528Y0248900D03*
X0284828Y0248900D03*
X0284828Y0243900D03*
X0284828Y0238900D03*
X0284828Y0233900D03*
X0284828Y0228900D03*
X0284828Y0223900D03*
X0284828Y0218900D03*
X0309028Y0218900D03*
X0309028Y0223900D03*
X0309028Y0228900D03*
X0309028Y0233900D03*
X0309028Y0238900D03*
X0309028Y0243900D03*
X0309028Y0248900D03*
X0313378Y0150150D03*
X0313378Y0145150D03*
X0313378Y0140150D03*
X0313378Y0135150D03*
X0313378Y0130150D03*
X0313378Y0125150D03*
X0313378Y0120150D03*
X0313378Y0115150D03*
X0313378Y0110150D03*
X0313378Y0105150D03*
X0352978Y0105150D03*
X0352978Y0110150D03*
X0352978Y0115150D03*
X0352978Y0120150D03*
X0352978Y0125150D03*
X0352978Y0130150D03*
X0352978Y0135150D03*
X0352978Y0140150D03*
X0352978Y0145150D03*
X0352978Y0150150D03*
X0167978Y0213900D03*
X0167978Y0218900D03*
X0167978Y0223900D03*
X0167978Y0228900D03*
X0167978Y0233900D03*
X0167978Y0238900D03*
X0167978Y0243900D03*
X0167978Y0248900D03*
X0167978Y0253900D03*
X0167978Y0258900D03*
X0128378Y0258900D03*
X0128378Y0253900D03*
X0128378Y0248900D03*
X0128378Y0243900D03*
X0128378Y0238900D03*
X0128378Y0233900D03*
X0128378Y0228900D03*
X0128378Y0223900D03*
X0128378Y0218900D03*
X0128378Y0213900D03*
D20*
X0285678Y0287650D03*
X0285678Y0292650D03*
X0285678Y0297650D03*
X0285678Y0302650D03*
X0285678Y0307650D03*
X0285678Y0312650D03*
X0285678Y0317650D03*
X0285678Y0322650D03*
X0285678Y0327650D03*
X0285678Y0332650D03*
X0285678Y0337650D03*
X0285678Y0342650D03*
X0285678Y0347650D03*
X0285678Y0352650D03*
X0326178Y0352650D03*
X0326178Y0347650D03*
X0326178Y0342650D03*
X0326178Y0337650D03*
X0326178Y0332650D03*
X0326178Y0327650D03*
X0326178Y0322650D03*
X0326178Y0317650D03*
X0326178Y0312650D03*
X0326178Y0307650D03*
X0326178Y0302650D03*
X0326178Y0297650D03*
X0326178Y0292650D03*
X0326178Y0287650D03*
D21*
X0262568Y0303900D03*
X0262568Y0308900D03*
X0262568Y0313900D03*
X0262568Y0318900D03*
X0262568Y0323900D03*
X0262568Y0328900D03*
X0262568Y0333900D03*
X0208789Y0333900D03*
X0208789Y0328900D03*
X0208789Y0323900D03*
X0208789Y0318900D03*
X0208789Y0313900D03*
X0208789Y0308900D03*
X0208789Y0303900D03*
D22*
X0215678Y0297010D03*
X0220678Y0297010D03*
X0225678Y0297010D03*
X0230678Y0297010D03*
X0235678Y0297010D03*
X0240678Y0297010D03*
X0245678Y0297010D03*
X0250678Y0297010D03*
X0255678Y0297010D03*
X0255678Y0340790D03*
X0250678Y0340790D03*
X0245678Y0340790D03*
X0240678Y0340790D03*
X0235678Y0340790D03*
X0230678Y0340790D03*
X0225678Y0340790D03*
X0220678Y0340790D03*
X0215678Y0340790D03*
X0190678Y0449914D03*
X0185678Y0449914D03*
X0180678Y0449914D03*
X0175678Y0449914D03*
X0175678Y0470386D03*
X0180678Y0470386D03*
X0185678Y0470386D03*
X0190678Y0470386D03*
X0240678Y0131636D03*
X0245678Y0131636D03*
X0250678Y0131636D03*
X0255678Y0131636D03*
X0255678Y0111164D03*
X0250678Y0111164D03*
X0245678Y0111164D03*
X0240678Y0111164D03*
D23*
X0169928Y0180150D03*
X0163928Y0180150D03*
X0163928Y0191400D03*
X0169928Y0191400D03*
D24*
X0166928Y0191400D03*
X0166928Y0180150D03*
D25*
X0186928Y0116900D03*
X0186928Y0110900D03*
X0199428Y0110900D03*
X0199428Y0116900D03*
D26*
X0199428Y0113900D03*
X0186928Y0113900D03*
D27*
X0203178Y0451026D03*
X0203178Y0466774D03*
D28*
X0144428Y0463900D03*
X0144428Y0473900D03*
X0144428Y0483900D03*
X0144428Y0493900D03*
X0134428Y0493900D03*
X0134428Y0483900D03*
X0134428Y0473900D03*
X0134428Y0463900D03*
X0134428Y0453900D03*
X0134428Y0443900D03*
X0134428Y0433900D03*
X0144428Y0433900D03*
X0144428Y0443900D03*
X0144428Y0453900D03*
X0348208Y0428467D03*
X0348208Y0499333D03*
D29*
X0346239Y0517050D03*
X0346239Y0410750D03*
X0137578Y0410750D03*
X0137578Y0517050D03*
D30*
X0149428Y0160400D03*
X0149428Y0122400D03*
D31*
X0264438Y0108231D03*
X0268178Y0099569D03*
X0271919Y0108231D03*
X0251928Y0444569D03*
X0248188Y0453231D03*
X0255669Y0453231D03*
D32*
X0119675Y0518900D03*
X0106682Y0518900D03*
D33*
X0106682Y0528900D03*
X0119675Y0528900D03*
X0119675Y0508900D03*
X0106682Y0508900D03*
D34*
X0230688Y0453428D03*
X0234428Y0453428D03*
X0238169Y0453428D03*
X0238169Y0444372D03*
X0234428Y0444372D03*
X0230688Y0444372D03*
D35*
X0226928Y0082650D03*
X0216928Y0082650D03*
X0206928Y0082650D03*
X0196928Y0082650D03*
X0186928Y0082650D03*
X0176928Y0082650D03*
X0166928Y0082650D03*
X0156928Y0082650D03*
X0146928Y0082650D03*
X0156928Y0022650D03*
X0166928Y0022650D03*
X0176928Y0022650D03*
X0186928Y0022650D03*
X0196928Y0022650D03*
X0206928Y0022650D03*
X0216928Y0022650D03*
X0226928Y0022650D03*
X0236928Y0022650D03*
X0246928Y0022650D03*
X0256928Y0022650D03*
X0266928Y0022650D03*
X0276928Y0022650D03*
X0286928Y0022650D03*
X0296928Y0022650D03*
X0306928Y0022650D03*
X0316928Y0022650D03*
X0326928Y0022650D03*
X0336928Y0022650D03*
X0336928Y0082650D03*
X0326928Y0082650D03*
X0316928Y0082650D03*
X0306928Y0082650D03*
X0296928Y0082650D03*
X0286928Y0082650D03*
X0276928Y0082650D03*
X0266928Y0082650D03*
X0256928Y0082650D03*
X0246928Y0082650D03*
X0236928Y0082650D03*
D36*
X0146928Y0022650D03*
D37*
X0347086Y0444077D03*
X0347086Y0479117D03*
X0368739Y0479117D03*
X0368739Y0443683D03*
D38*
X0347086Y0455101D03*
X0347086Y0458250D03*
X0347086Y0461400D03*
X0347086Y0464550D03*
X0347086Y0467699D03*
D39*
X0356928Y0470061D03*
X0356928Y0452739D03*
D40*
X0324645Y0466183D02*
X0324645Y0476617D01*
X0314212Y0476617D01*
X0314212Y0466183D01*
X0324645Y0466183D01*
X0324645Y0467583D02*
X0314212Y0467583D01*
X0314212Y0469550D02*
X0324645Y0469550D01*
X0324645Y0471517D02*
X0314212Y0471517D01*
X0314212Y0473484D02*
X0324645Y0473484D01*
X0324645Y0475451D02*
X0314212Y0475451D01*
D41*
X0311358Y0475928D02*
X0311358Y0476715D01*
X0309389Y0476715D01*
X0309389Y0475928D01*
X0311358Y0475928D01*
X0311358Y0476027D02*
X0309389Y0476027D01*
X0309389Y0476425D02*
X0311358Y0476425D01*
X0311358Y0477896D02*
X0309389Y0477896D01*
X0309389Y0478683D01*
X0311161Y0478683D01*
X0311358Y0478487D01*
X0311358Y0477896D01*
X0311358Y0478020D02*
X0309389Y0478020D01*
X0309389Y0478418D02*
X0311358Y0478418D01*
X0312342Y0479471D02*
X0312932Y0479471D01*
X0312932Y0481439D01*
X0312145Y0481439D01*
X0312145Y0479668D01*
X0312342Y0479471D01*
X0312199Y0479614D02*
X0312932Y0479614D01*
X0312932Y0480012D02*
X0312145Y0480012D01*
X0312145Y0480411D02*
X0312932Y0480411D01*
X0312932Y0480809D02*
X0312145Y0480809D01*
X0312145Y0481208D02*
X0312932Y0481208D01*
X0314114Y0481208D02*
X0314901Y0481208D01*
X0314901Y0481439D02*
X0314114Y0481439D01*
X0314114Y0479471D01*
X0314901Y0479471D01*
X0314901Y0481439D01*
X0314901Y0480809D02*
X0314114Y0480809D01*
X0314114Y0480411D02*
X0314901Y0480411D01*
X0314901Y0480012D02*
X0314114Y0480012D01*
X0314114Y0479614D02*
X0314901Y0479614D01*
X0316082Y0479614D02*
X0316869Y0479614D01*
X0316869Y0479471D02*
X0316869Y0481439D01*
X0316082Y0481439D01*
X0316082Y0479471D01*
X0316869Y0479471D01*
X0316869Y0480012D02*
X0316082Y0480012D01*
X0316082Y0480411D02*
X0316869Y0480411D01*
X0316869Y0480809D02*
X0316082Y0480809D01*
X0316082Y0481208D02*
X0316869Y0481208D01*
X0318051Y0481208D02*
X0318838Y0481208D01*
X0318838Y0481439D02*
X0318051Y0481439D01*
X0318051Y0479471D01*
X0318838Y0479471D01*
X0318838Y0481439D01*
X0318838Y0480809D02*
X0318051Y0480809D01*
X0318051Y0480411D02*
X0318838Y0480411D01*
X0318838Y0480012D02*
X0318051Y0480012D01*
X0318051Y0479614D02*
X0318838Y0479614D01*
X0320019Y0479614D02*
X0320806Y0479614D01*
X0320806Y0479471D02*
X0320806Y0481439D01*
X0320019Y0481439D01*
X0320019Y0479471D01*
X0320806Y0479471D01*
X0320806Y0480012D02*
X0320019Y0480012D01*
X0320019Y0480411D02*
X0320806Y0480411D01*
X0320806Y0480809D02*
X0320019Y0480809D01*
X0320019Y0481208D02*
X0320806Y0481208D01*
X0321988Y0481208D02*
X0322775Y0481208D01*
X0322775Y0481439D02*
X0321988Y0481439D01*
X0321988Y0479471D01*
X0322775Y0479471D01*
X0322775Y0481439D01*
X0322775Y0480809D02*
X0321988Y0480809D01*
X0321988Y0480411D02*
X0322775Y0480411D01*
X0322775Y0480012D02*
X0321988Y0480012D01*
X0321988Y0479614D02*
X0322775Y0479614D01*
X0323956Y0479614D02*
X0324743Y0479614D01*
X0324743Y0479471D02*
X0324743Y0481439D01*
X0323956Y0481439D01*
X0323956Y0479471D01*
X0324743Y0479471D01*
X0324743Y0480012D02*
X0323956Y0480012D01*
X0323956Y0480411D02*
X0324743Y0480411D01*
X0324743Y0480809D02*
X0323956Y0480809D01*
X0323956Y0481208D02*
X0324743Y0481208D01*
X0325925Y0481208D02*
X0326712Y0481208D01*
X0326712Y0481439D02*
X0325925Y0481439D01*
X0325925Y0479471D01*
X0326515Y0479471D01*
X0326712Y0479668D01*
X0326712Y0481439D01*
X0326712Y0480809D02*
X0325925Y0480809D01*
X0325925Y0480411D02*
X0326712Y0480411D01*
X0326712Y0480012D02*
X0325925Y0480012D01*
X0325925Y0479614D02*
X0326658Y0479614D01*
X0327696Y0478683D02*
X0327499Y0478487D01*
X0327499Y0477896D01*
X0329468Y0477896D01*
X0329468Y0478683D01*
X0327696Y0478683D01*
X0327499Y0478418D02*
X0329468Y0478418D01*
X0329468Y0478020D02*
X0327499Y0478020D01*
X0327499Y0476715D02*
X0327499Y0475928D01*
X0329468Y0475928D01*
X0329468Y0476715D01*
X0327499Y0476715D01*
X0327499Y0476425D02*
X0329468Y0476425D01*
X0329468Y0476027D02*
X0327499Y0476027D01*
X0327499Y0474746D02*
X0327499Y0473959D01*
X0329468Y0473959D01*
X0329468Y0474746D01*
X0327499Y0474746D01*
X0327499Y0474433D02*
X0329468Y0474433D01*
X0329468Y0474034D02*
X0327499Y0474034D01*
X0327499Y0472778D02*
X0327499Y0471991D01*
X0329468Y0471991D01*
X0329468Y0472778D01*
X0327499Y0472778D01*
X0327499Y0472440D02*
X0329468Y0472440D01*
X0329468Y0472042D02*
X0327499Y0472042D01*
X0327499Y0470809D02*
X0327499Y0470022D01*
X0329468Y0470022D01*
X0329468Y0470809D01*
X0327499Y0470809D01*
X0327499Y0470448D02*
X0329468Y0470448D01*
X0329468Y0470049D02*
X0327499Y0470049D01*
X0327499Y0468841D02*
X0327499Y0468054D01*
X0329468Y0468054D01*
X0329468Y0468841D01*
X0327499Y0468841D01*
X0327499Y0468455D02*
X0329468Y0468455D01*
X0329468Y0468057D02*
X0327499Y0468057D01*
X0327499Y0466872D02*
X0327499Y0466085D01*
X0329468Y0466085D01*
X0329468Y0466872D01*
X0327499Y0466872D01*
X0327499Y0466861D02*
X0329468Y0466861D01*
X0329468Y0466463D02*
X0327499Y0466463D01*
X0327499Y0464904D02*
X0329468Y0464904D01*
X0329468Y0464117D01*
X0327696Y0464117D01*
X0327499Y0464313D01*
X0327499Y0464904D01*
X0327499Y0464869D02*
X0329468Y0464869D01*
X0329468Y0464470D02*
X0327499Y0464470D01*
X0326515Y0463329D02*
X0325925Y0463329D01*
X0325925Y0461361D01*
X0326712Y0461361D01*
X0326712Y0463132D01*
X0326515Y0463329D01*
X0326570Y0463275D02*
X0325925Y0463275D01*
X0325925Y0462876D02*
X0326712Y0462876D01*
X0326712Y0462478D02*
X0325925Y0462478D01*
X0325925Y0462079D02*
X0326712Y0462079D01*
X0326712Y0461681D02*
X0325925Y0461681D01*
X0324743Y0461681D02*
X0323956Y0461681D01*
X0323956Y0461361D02*
X0324743Y0461361D01*
X0324743Y0463329D01*
X0323956Y0463329D01*
X0323956Y0461361D01*
X0323956Y0462079D02*
X0324743Y0462079D01*
X0324743Y0462478D02*
X0323956Y0462478D01*
X0323956Y0462876D02*
X0324743Y0462876D01*
X0324743Y0463275D02*
X0323956Y0463275D01*
X0322775Y0463275D02*
X0321988Y0463275D01*
X0321988Y0463329D02*
X0321988Y0461361D01*
X0322775Y0461361D01*
X0322775Y0463329D01*
X0321988Y0463329D01*
X0321988Y0462876D02*
X0322775Y0462876D01*
X0322775Y0462478D02*
X0321988Y0462478D01*
X0321988Y0462079D02*
X0322775Y0462079D01*
X0322775Y0461681D02*
X0321988Y0461681D01*
X0320806Y0461681D02*
X0320019Y0461681D01*
X0320019Y0461361D02*
X0320806Y0461361D01*
X0320806Y0463329D01*
X0320019Y0463329D01*
X0320019Y0461361D01*
X0320019Y0462079D02*
X0320806Y0462079D01*
X0320806Y0462478D02*
X0320019Y0462478D01*
X0320019Y0462876D02*
X0320806Y0462876D01*
X0320806Y0463275D02*
X0320019Y0463275D01*
X0318838Y0463275D02*
X0318051Y0463275D01*
X0318051Y0463329D02*
X0318051Y0461361D01*
X0318838Y0461361D01*
X0318838Y0463329D01*
X0318051Y0463329D01*
X0318051Y0462876D02*
X0318838Y0462876D01*
X0318838Y0462478D02*
X0318051Y0462478D01*
X0318051Y0462079D02*
X0318838Y0462079D01*
X0318838Y0461681D02*
X0318051Y0461681D01*
X0316869Y0461681D02*
X0316082Y0461681D01*
X0316082Y0461361D02*
X0316869Y0461361D01*
X0316869Y0463329D01*
X0316082Y0463329D01*
X0316082Y0461361D01*
X0316082Y0462079D02*
X0316869Y0462079D01*
X0316869Y0462478D02*
X0316082Y0462478D01*
X0316082Y0462876D02*
X0316869Y0462876D01*
X0316869Y0463275D02*
X0316082Y0463275D01*
X0314901Y0463275D02*
X0314114Y0463275D01*
X0314114Y0463329D02*
X0314114Y0461361D01*
X0314901Y0461361D01*
X0314901Y0463329D01*
X0314114Y0463329D01*
X0314114Y0462876D02*
X0314901Y0462876D01*
X0314901Y0462478D02*
X0314114Y0462478D01*
X0314114Y0462079D02*
X0314901Y0462079D01*
X0314901Y0461681D02*
X0314114Y0461681D01*
X0312932Y0461681D02*
X0312145Y0461681D01*
X0312145Y0461361D02*
X0312932Y0461361D01*
X0312932Y0463329D01*
X0312342Y0463329D01*
X0312145Y0463132D01*
X0312145Y0461361D01*
X0312145Y0462079D02*
X0312932Y0462079D01*
X0312932Y0462478D02*
X0312145Y0462478D01*
X0312145Y0462876D02*
X0312932Y0462876D01*
X0312932Y0463275D02*
X0312287Y0463275D01*
X0311358Y0464313D02*
X0311358Y0464904D01*
X0309389Y0464904D01*
X0309389Y0464117D01*
X0311161Y0464117D01*
X0311358Y0464313D01*
X0311358Y0464470D02*
X0309389Y0464470D01*
X0309389Y0464869D02*
X0311358Y0464869D01*
X0311358Y0466085D02*
X0311358Y0466872D01*
X0309389Y0466872D01*
X0309389Y0466085D01*
X0311358Y0466085D01*
X0311358Y0466463D02*
X0309389Y0466463D01*
X0309389Y0466861D02*
X0311358Y0466861D01*
X0311358Y0468054D02*
X0311358Y0468841D01*
X0309389Y0468841D01*
X0309389Y0468054D01*
X0311358Y0468054D01*
X0311358Y0468057D02*
X0309389Y0468057D01*
X0309389Y0468455D02*
X0311358Y0468455D01*
X0311358Y0470022D02*
X0311358Y0470809D01*
X0309389Y0470809D01*
X0309389Y0470022D01*
X0311358Y0470022D01*
X0311358Y0470049D02*
X0309389Y0470049D01*
X0309389Y0470448D02*
X0311358Y0470448D01*
X0311358Y0471991D02*
X0311358Y0472778D01*
X0309389Y0472778D01*
X0309389Y0471991D01*
X0311358Y0471991D01*
X0311358Y0472042D02*
X0309389Y0472042D01*
X0309389Y0472440D02*
X0311358Y0472440D01*
X0311358Y0473959D02*
X0311358Y0474746D01*
X0309389Y0474746D01*
X0309389Y0473959D01*
X0311358Y0473959D01*
X0311358Y0474034D02*
X0309389Y0474034D01*
X0309389Y0474433D02*
X0311358Y0474433D01*
D42*
X0116928Y0264343D03*
X0116928Y0250957D03*
X0116928Y0241843D03*
X0116928Y0228457D03*
D43*
X0331928Y0515150D03*
D44*
X0321928Y0515150D03*
X0311928Y0515150D03*
X0301928Y0515150D03*
X0291928Y0515150D03*
X0281928Y0515150D03*
X0271928Y0515150D03*
X0261928Y0515150D03*
X0251928Y0515150D03*
X0241928Y0515150D03*
X0231928Y0515150D03*
X0221928Y0515150D03*
X0211928Y0515150D03*
X0201928Y0515150D03*
X0191928Y0515150D03*
X0181928Y0515150D03*
X0171928Y0515150D03*
X0161928Y0515150D03*
X0151928Y0515150D03*
X0151928Y0535150D03*
X0161928Y0535150D03*
X0171928Y0535150D03*
X0181928Y0535150D03*
X0191928Y0535150D03*
X0201928Y0535150D03*
X0211928Y0535150D03*
X0221928Y0535150D03*
X0231928Y0535150D03*
X0241928Y0535150D03*
X0251928Y0535150D03*
X0261928Y0535150D03*
X0271928Y0535150D03*
X0281928Y0535150D03*
X0291928Y0535150D03*
X0301928Y0535150D03*
X0311928Y0535150D03*
X0321928Y0535150D03*
X0331928Y0535150D03*
D45*
X0268178Y0181774D03*
X0268178Y0166026D03*
M02*
