G75*
%MOIN*%
%OFA0B0*%
%FSLAX25Y25*%
%IPPOS*%
%LPD*%
%AMOC8*
5,1,8,0,0,1.08239X$1,22.5*
%
%ADD10C,0.13398*%
%ADD11R,0.07099X0.06312*%
%ADD12C,0.06400*%
%ADD13R,0.07887X0.06312*%
%ADD14OC8,0.05162*%
%ADD15OC8,0.06737*%
%ADD16C,0.10643*%
%ADD17R,0.05524X0.05524*%
%ADD18R,0.05918X0.07099*%
%ADD19R,0.07099X0.05918*%
%ADD20OC8,0.06000*%
%ADD21C,0.06000*%
%ADD22C,0.07100*%
%ADD23R,0.07100X0.07100*%
%ADD24C,0.04343*%
%ADD25R,0.03162X0.09461*%
%ADD26R,0.05950X0.05950*%
%ADD27C,0.05950*%
%ADD28R,0.06312X0.07099*%
%ADD29R,0.05918X0.05918*%
%ADD30R,0.08674X0.05918*%
D10*
X0110678Y0013900D03*
X0373178Y0013900D03*
X0363976Y0556646D03*
X0119881Y0556646D03*
D11*
X0135393Y0382758D03*
X0135393Y0365042D03*
X0135393Y0332758D03*
X0135393Y0315042D03*
X0135393Y0282758D03*
X0135393Y0265042D03*
X0135393Y0232758D03*
X0135393Y0215042D03*
X0135393Y0182758D03*
X0135393Y0165042D03*
X0135393Y0127758D03*
X0135393Y0110042D03*
X0168464Y0110042D03*
X0168464Y0118900D03*
X0168464Y0127758D03*
X0168464Y0165042D03*
X0168464Y0173900D03*
X0168464Y0182758D03*
X0168464Y0215042D03*
X0168464Y0223900D03*
X0168464Y0232758D03*
X0168464Y0265042D03*
X0168464Y0273900D03*
X0168464Y0282758D03*
X0168464Y0315042D03*
X0168464Y0323900D03*
X0168464Y0332758D03*
X0168464Y0365042D03*
X0168464Y0373900D03*
X0168464Y0382758D03*
X0195393Y0382758D03*
X0195393Y0365042D03*
X0195393Y0332758D03*
X0195393Y0315042D03*
X0195393Y0282758D03*
X0195393Y0265042D03*
X0195393Y0232758D03*
X0195393Y0215042D03*
X0195393Y0182758D03*
X0195393Y0165042D03*
X0195393Y0127758D03*
X0195393Y0110042D03*
X0228464Y0110042D03*
X0228464Y0118900D03*
X0228464Y0127758D03*
X0228464Y0165042D03*
X0228464Y0173900D03*
X0228464Y0182758D03*
X0228464Y0215042D03*
X0228464Y0223900D03*
X0228464Y0232758D03*
X0228464Y0265042D03*
X0228464Y0273900D03*
X0228464Y0282758D03*
X0228464Y0315042D03*
X0228464Y0323900D03*
X0228464Y0332758D03*
X0228464Y0365042D03*
X0228464Y0373900D03*
X0228464Y0382758D03*
X0255393Y0382758D03*
X0255393Y0365042D03*
X0255393Y0332758D03*
X0255393Y0315042D03*
X0255393Y0282758D03*
X0255393Y0265042D03*
X0255393Y0232758D03*
X0255393Y0215042D03*
X0255393Y0182758D03*
X0255393Y0165042D03*
X0255393Y0127758D03*
X0255393Y0110042D03*
X0288464Y0110042D03*
X0288464Y0118900D03*
X0288464Y0127758D03*
X0288464Y0165042D03*
X0288464Y0173900D03*
X0288464Y0182758D03*
X0288464Y0215042D03*
X0288464Y0223900D03*
X0288464Y0232758D03*
X0288464Y0265042D03*
X0288464Y0273900D03*
X0288464Y0282758D03*
X0288464Y0315042D03*
X0288464Y0323900D03*
X0288464Y0332758D03*
X0288464Y0365042D03*
X0288464Y0373900D03*
X0288464Y0382758D03*
X0315393Y0382758D03*
X0315393Y0365042D03*
X0315393Y0332758D03*
X0315393Y0315042D03*
X0315393Y0282758D03*
X0315393Y0265042D03*
X0315393Y0232758D03*
X0315393Y0215042D03*
X0315393Y0182758D03*
X0315393Y0165042D03*
X0315393Y0127758D03*
X0315393Y0110042D03*
X0348464Y0110042D03*
X0348464Y0118900D03*
X0348464Y0127758D03*
X0348464Y0165042D03*
X0348464Y0173900D03*
X0348464Y0182758D03*
X0348464Y0215042D03*
X0348464Y0223900D03*
X0348464Y0232758D03*
X0348464Y0265042D03*
X0348464Y0273900D03*
X0348464Y0282758D03*
X0348464Y0315042D03*
X0348464Y0323900D03*
X0348464Y0332758D03*
X0348464Y0365042D03*
X0348464Y0373900D03*
X0348464Y0382758D03*
D12*
X0298365Y0461400D03*
X0290491Y0461400D03*
D13*
X0361928Y0380593D03*
X0361928Y0367207D03*
X0361928Y0330593D03*
X0361928Y0317207D03*
X0361928Y0280593D03*
X0361928Y0267207D03*
X0361928Y0230593D03*
X0361928Y0217207D03*
X0361928Y0180593D03*
X0361928Y0167207D03*
X0361928Y0125593D03*
X0361928Y0112207D03*
D14*
X0339428Y0428900D03*
X0329428Y0428900D03*
X0319428Y0428900D03*
X0309428Y0428900D03*
X0299428Y0428900D03*
X0289428Y0428900D03*
X0269428Y0428900D03*
X0259428Y0428900D03*
X0249428Y0428900D03*
X0239428Y0428900D03*
X0229428Y0428900D03*
X0219428Y0428900D03*
X0199428Y0428900D03*
X0189428Y0428900D03*
X0179428Y0428900D03*
X0169428Y0428900D03*
X0159428Y0428900D03*
X0149428Y0428900D03*
X0149428Y0488900D03*
X0159428Y0488900D03*
X0169428Y0488900D03*
X0179428Y0488900D03*
X0189428Y0488900D03*
X0199428Y0488900D03*
X0219428Y0488900D03*
X0229428Y0488900D03*
X0239428Y0488900D03*
X0249428Y0488900D03*
X0259428Y0488900D03*
X0269428Y0488900D03*
X0289428Y0488900D03*
X0299428Y0488900D03*
X0309428Y0488900D03*
X0319428Y0488900D03*
X0329428Y0488900D03*
X0339428Y0488900D03*
D15*
X0348208Y0499333D03*
X0348208Y0428467D03*
X0144428Y0433900D03*
X0144428Y0443900D03*
X0144428Y0453900D03*
X0144428Y0463900D03*
X0144428Y0473900D03*
X0144428Y0483900D03*
X0144428Y0493900D03*
X0134428Y0493900D03*
X0134428Y0483900D03*
X0134428Y0473900D03*
X0134428Y0463900D03*
X0134428Y0453900D03*
X0134428Y0443900D03*
X0134428Y0433900D03*
D16*
X0137578Y0410750D03*
X0137578Y0517050D03*
X0346239Y0517050D03*
X0346239Y0410750D03*
D17*
X0229428Y0551016D03*
X0229428Y0559284D03*
X0176928Y0559284D03*
X0176928Y0551016D03*
X0164428Y0551016D03*
X0164428Y0559284D03*
X0151928Y0559284D03*
X0151928Y0551016D03*
D18*
X0121919Y0448900D03*
X0114438Y0448900D03*
X0114438Y0440150D03*
X0121919Y0440150D03*
X0120865Y0102650D03*
X0112991Y0102650D03*
X0209241Y0012650D03*
X0217115Y0012650D03*
X0351938Y0065150D03*
X0351938Y0073900D03*
X0359419Y0073900D03*
X0359419Y0065150D03*
X0359419Y0082650D03*
X0359419Y0091400D03*
X0351938Y0091400D03*
X0351938Y0082650D03*
D19*
X0301928Y0120160D03*
X0301928Y0127640D03*
X0241928Y0127640D03*
X0241928Y0120160D03*
X0181928Y0120160D03*
X0181928Y0127640D03*
X0121928Y0127640D03*
X0121928Y0120160D03*
X0119428Y0158713D03*
X0119428Y0166587D03*
X0124428Y0389963D03*
X0124428Y0397837D03*
X0189428Y0551410D03*
X0189428Y0558890D03*
X0199428Y0558890D03*
X0199428Y0551410D03*
X0209428Y0551410D03*
X0209428Y0558890D03*
X0219428Y0558890D03*
X0219428Y0551410D03*
D20*
X0119675Y0518900D03*
X0106682Y0518900D03*
D21*
X0106682Y0528900D03*
X0119675Y0528900D03*
X0119675Y0508900D03*
X0106682Y0508900D03*
D22*
X0146928Y0082650D03*
X0156928Y0082650D03*
X0166928Y0082650D03*
X0176928Y0082650D03*
X0186928Y0082650D03*
X0196928Y0082650D03*
X0206928Y0082650D03*
X0216928Y0082650D03*
X0226928Y0082650D03*
X0236928Y0082650D03*
X0246928Y0082650D03*
X0256928Y0082650D03*
X0266928Y0082650D03*
X0276928Y0082650D03*
X0286928Y0082650D03*
X0296928Y0082650D03*
X0306928Y0082650D03*
X0316928Y0082650D03*
X0326928Y0082650D03*
X0336928Y0082650D03*
X0336928Y0022650D03*
X0326928Y0022650D03*
X0316928Y0022650D03*
X0306928Y0022650D03*
X0296928Y0022650D03*
X0286928Y0022650D03*
X0276928Y0022650D03*
X0266928Y0022650D03*
X0256928Y0022650D03*
X0246928Y0022650D03*
X0236928Y0022650D03*
X0226928Y0022650D03*
X0216928Y0022650D03*
X0206928Y0022650D03*
X0196928Y0022650D03*
X0186928Y0022650D03*
X0176928Y0022650D03*
X0166928Y0022650D03*
X0156928Y0022650D03*
D23*
X0146928Y0022650D03*
D24*
X0356928Y0452739D03*
X0356928Y0470061D03*
D25*
X0189428Y0234136D03*
X0184428Y0234136D03*
X0179428Y0234136D03*
X0174428Y0234136D03*
X0174428Y0213664D03*
X0179428Y0213664D03*
X0184428Y0213664D03*
X0189428Y0213664D03*
D26*
X0331928Y0515150D03*
D27*
X0321928Y0515150D03*
X0311928Y0515150D03*
X0301928Y0515150D03*
X0291928Y0515150D03*
X0281928Y0515150D03*
X0271928Y0515150D03*
X0261928Y0515150D03*
X0251928Y0515150D03*
X0241928Y0515150D03*
X0231928Y0515150D03*
X0221928Y0515150D03*
X0211928Y0515150D03*
X0201928Y0515150D03*
X0191928Y0515150D03*
X0181928Y0515150D03*
X0171928Y0515150D03*
X0161928Y0515150D03*
X0151928Y0515150D03*
X0151928Y0535150D03*
X0161928Y0535150D03*
X0171928Y0535150D03*
X0181928Y0535150D03*
X0191928Y0535150D03*
X0201928Y0535150D03*
X0211928Y0535150D03*
X0221928Y0535150D03*
X0231928Y0535150D03*
X0241928Y0535150D03*
X0251928Y0535150D03*
X0261928Y0535150D03*
X0271928Y0535150D03*
X0281928Y0535150D03*
X0291928Y0535150D03*
X0301928Y0535150D03*
X0311928Y0535150D03*
X0321928Y0535150D03*
X0331928Y0535150D03*
D28*
X0130787Y0069185D03*
X0121928Y0069185D03*
X0113070Y0069185D03*
X0113070Y0036115D03*
X0130787Y0036115D03*
D29*
X0121456Y0410573D03*
X0112401Y0410573D03*
D30*
X0116928Y0432227D03*
M02*
