%
M48
M72
T01C0.0197
%
T01
X650Y3515
X1775Y4015
X1400Y4265
X1400Y4765
X1775Y5015
X2150Y5265
X2525Y5515
X3025Y6265
X2775Y6765
X2525Y7265
X3275Y7515
X3775Y7015
X4525Y6765
X5025Y6265
X4525Y5765
X2150Y3765
X775Y7765
X650Y8390
X1150Y8765
X2525Y9265
X3900Y9515
X4275Y10015
X4650Y10515
X5025Y11015
X4900Y12015
X4150Y13265
X1650Y13265
X900Y12765
X6650Y13265
X9150Y13265
X11900Y13265
X14650Y13265
X17150Y13265
X18525Y11765
X18275Y11015
X18650Y10515
X19400Y10015
X20150Y9265
X19025Y9015
X18025Y8515
X13650Y8390
X9650Y8390
X8025Y8390
X11150Y4515
X11150Y3265
X18275Y5265
X18650Y5015
X19025Y4765
X19400Y4515
X19775Y4265
X20150Y4015
X20525Y3640
X21900Y3515
X22650Y3515
X21025Y4640
X21400Y5140
X22525Y5015
X22525Y6390
X22525Y7640
X22525Y9140
X22525Y11140
X20525Y11765
X22400Y13140
X19900Y13265
M30
