G75*
%MOIN*%
%OFA0B0*%
%FSLAX25Y25*%
%IPPOS*%
%LPD*%
%AMOC8*
5,1,8,0,0,1.08239X$1,22.5*
%
%ADD10R,0.07800X0.25800*%
%ADD11R,1.95000X0.27500*%
%ADD12R,0.05800X0.03800*%
%ADD13R,0.05918X0.06706*%
D10*
X0026500Y0013900D03*
X0036500Y0013900D03*
X0046500Y0013900D03*
X0056500Y0013900D03*
X0066500Y0013900D03*
X0076500Y0013900D03*
X0086500Y0013900D03*
X0096500Y0013900D03*
X0106500Y0013900D03*
X0116500Y0013900D03*
X0126500Y0013900D03*
X0136500Y0013900D03*
X0146500Y0013900D03*
X0156500Y0013900D03*
X0166500Y0013900D03*
X0176500Y0013900D03*
X0186500Y0013900D03*
X0196500Y0013900D03*
X0206500Y0013900D03*
D11*
X0116500Y0015150D03*
D12*
X0122250Y0057650D03*
X0122250Y0062650D03*
X0122250Y0067650D03*
X0122250Y0072650D03*
X0122250Y0077650D03*
X0122250Y0082650D03*
X0122250Y0087650D03*
X0122250Y0092650D03*
X0122250Y0097650D03*
X0122250Y0102650D03*
X0122250Y0107650D03*
X0122250Y0112650D03*
X0122250Y0117650D03*
X0122250Y0122650D03*
X0110250Y0122650D03*
X0110250Y0117650D03*
X0110250Y0112650D03*
X0110250Y0107650D03*
X0110250Y0102650D03*
X0110250Y0097650D03*
X0110250Y0092650D03*
X0110250Y0087650D03*
X0110250Y0082650D03*
X0110250Y0077650D03*
X0110250Y0072650D03*
X0110250Y0067650D03*
X0110250Y0062650D03*
X0110250Y0057650D03*
X0069750Y0057650D03*
X0069750Y0062650D03*
X0069750Y0067650D03*
X0069750Y0072650D03*
X0069750Y0077650D03*
X0069750Y0082650D03*
X0069750Y0087650D03*
X0069750Y0092650D03*
X0069750Y0097650D03*
X0069750Y0102650D03*
X0069750Y0107650D03*
X0069750Y0112650D03*
X0069750Y0117650D03*
X0069750Y0122650D03*
X0057750Y0122650D03*
X0057750Y0117650D03*
X0057750Y0112650D03*
X0057750Y0107650D03*
X0057750Y0102650D03*
X0057750Y0097650D03*
X0057750Y0092650D03*
X0057750Y0087650D03*
X0057750Y0082650D03*
X0057750Y0077650D03*
X0057750Y0072650D03*
X0057750Y0067650D03*
X0057750Y0062650D03*
X0057750Y0057650D03*
X0017250Y0057650D03*
X0017250Y0062650D03*
X0017250Y0067650D03*
X0017250Y0072650D03*
X0017250Y0077650D03*
X0017250Y0082650D03*
X0017250Y0087650D03*
X0017250Y0092650D03*
X0017250Y0097650D03*
X0017250Y0102650D03*
X0017250Y0107650D03*
X0017250Y0112650D03*
X0017250Y0117650D03*
X0017250Y0122650D03*
X0162750Y0122650D03*
X0162750Y0117650D03*
X0162750Y0112650D03*
X0162750Y0107650D03*
X0162750Y0102650D03*
X0162750Y0097650D03*
X0162750Y0092650D03*
X0162750Y0087650D03*
X0162750Y0082650D03*
X0162750Y0077650D03*
X0162750Y0072650D03*
X0162750Y0067650D03*
X0162750Y0062650D03*
X0162750Y0057650D03*
X0174750Y0057650D03*
X0174750Y0062650D03*
X0174750Y0067650D03*
X0174750Y0072650D03*
X0174750Y0077650D03*
X0174750Y0082650D03*
X0174750Y0087650D03*
X0174750Y0092650D03*
X0174750Y0097650D03*
X0174750Y0102650D03*
X0174750Y0107650D03*
X0174750Y0112650D03*
X0174750Y0117650D03*
X0174750Y0122650D03*
X0215250Y0122650D03*
X0215250Y0117650D03*
X0215250Y0112650D03*
X0215250Y0107650D03*
X0215250Y0102650D03*
X0215250Y0097650D03*
X0215250Y0092650D03*
X0215250Y0087650D03*
X0215250Y0082650D03*
X0215250Y0077650D03*
X0215250Y0072650D03*
X0215250Y0067650D03*
X0215250Y0062650D03*
X0215250Y0057650D03*
D13*
X0215240Y0132650D03*
X0207760Y0132650D03*
X0162740Y0132650D03*
X0155260Y0132650D03*
X0110240Y0132650D03*
X0102760Y0132650D03*
X0057740Y0132650D03*
X0050260Y0132650D03*
M02*
