G75*
%MOIN*%
%OFA0B0*%
%FSLAX25Y25*%
%IPPOS*%
%LPD*%
%AMOC8*
5,1,8,0,0,1.08239X$1,22.5*
%
%ADD10R,0.07000X0.25000*%
%ADD11C,0.01000*%
%ADD12C,0.03569*%
%ADD13C,0.04000*%
%ADD14C,0.00800*%
D10*
X0026500Y0013900D03*
X0036500Y0013900D03*
X0046500Y0013900D03*
X0056500Y0013900D03*
X0066500Y0013900D03*
X0076500Y0013900D03*
X0086500Y0013900D03*
X0096500Y0013900D03*
X0106500Y0013900D03*
X0116500Y0013900D03*
X0126500Y0013900D03*
X0136500Y0013900D03*
X0146500Y0013900D03*
X0156500Y0013900D03*
X0166500Y0013900D03*
X0176500Y0013900D03*
X0186500Y0013900D03*
X0196500Y0013900D03*
X0206500Y0013900D03*
D11*
X0212250Y0028900D02*
X0148400Y0028900D01*
X0148400Y0050613D01*
X0179653Y0081866D01*
X0180903Y0081866D01*
X0182100Y0082361D01*
X0182100Y0055934D01*
X0182097Y0055934D01*
X0180890Y0055434D01*
X0179966Y0054510D01*
X0179466Y0053303D01*
X0179466Y0051997D01*
X0179966Y0050790D01*
X0180890Y0049866D01*
X0182097Y0049366D01*
X0183270Y0049366D01*
X0183716Y0048290D01*
X0184640Y0047366D01*
X0185847Y0046866D01*
X0187020Y0046866D01*
X0187466Y0045790D01*
X0188390Y0044866D01*
X0189597Y0044366D01*
X0190770Y0044366D01*
X0191216Y0043290D01*
X0192140Y0042366D01*
X0193347Y0041866D01*
X0194520Y0041866D01*
X0194966Y0040790D01*
X0195890Y0039866D01*
X0197097Y0039366D01*
X0198270Y0039366D01*
X0198716Y0038290D01*
X0199640Y0037366D01*
X0200847Y0036866D01*
X0201966Y0036866D01*
X0201966Y0035747D01*
X0202466Y0034540D01*
X0203390Y0033616D01*
X0204597Y0033116D01*
X0205903Y0033116D01*
X0207110Y0033616D01*
X0208034Y0034540D01*
X0208534Y0035747D01*
X0208534Y0037053D01*
X0208034Y0038260D01*
X0207150Y0039145D01*
X0207150Y0114905D01*
X0208034Y0115790D01*
X0208534Y0116997D01*
X0208534Y0118303D01*
X0208034Y0119510D01*
X0207110Y0120434D01*
X0205903Y0120934D01*
X0204597Y0120934D01*
X0203390Y0120434D01*
X0202466Y0119510D01*
X0201966Y0118303D01*
X0201966Y0116997D01*
X0202466Y0115790D01*
X0203350Y0114905D01*
X0203350Y0095439D01*
X0202153Y0095934D01*
X0200847Y0095934D01*
X0199650Y0095439D01*
X0199650Y0105937D01*
X0188534Y0117053D01*
X0188534Y0118303D01*
X0188034Y0119510D01*
X0187110Y0120434D01*
X0185903Y0120934D01*
X0184597Y0120934D01*
X0183390Y0120434D01*
X0182466Y0119510D01*
X0181966Y0118303D01*
X0181966Y0116997D01*
X0182466Y0115790D01*
X0183390Y0114866D01*
X0184597Y0114366D01*
X0185847Y0114366D01*
X0195850Y0104363D01*
X0195850Y0102939D01*
X0194653Y0103434D01*
X0193347Y0103434D01*
X0192140Y0102934D01*
X0191216Y0102010D01*
X0190716Y0100803D01*
X0190716Y0099497D01*
X0191216Y0098290D01*
X0192100Y0097405D01*
X0192100Y0092939D01*
X0190903Y0093434D01*
X0189597Y0093434D01*
X0188400Y0092939D01*
X0188400Y0102405D01*
X0189284Y0103290D01*
X0189784Y0104497D01*
X0189784Y0105803D01*
X0189284Y0107010D01*
X0188360Y0107934D01*
X0187153Y0108434D01*
X0185847Y0108434D01*
X0185542Y0108308D01*
X0186034Y0109497D01*
X0186034Y0110803D01*
X0185534Y0112010D01*
X0184610Y0112934D01*
X0183403Y0113434D01*
X0182097Y0113434D01*
X0180890Y0112934D01*
X0179966Y0112010D01*
X0179466Y0110803D01*
X0179466Y0109497D01*
X0179966Y0108290D01*
X0180850Y0107405D01*
X0180850Y0101863D01*
X0181963Y0100750D01*
X0182100Y0100613D01*
X0182100Y0087939D01*
X0180903Y0088434D01*
X0179597Y0088434D01*
X0178390Y0087934D01*
X0177466Y0087010D01*
X0176966Y0085803D01*
X0176966Y0084553D01*
X0144600Y0052187D01*
X0144600Y0028900D01*
X0138400Y0028900D01*
X0138400Y0081155D01*
X0139284Y0082040D01*
X0139784Y0083247D01*
X0139784Y0084553D01*
X0139284Y0085760D01*
X0138360Y0086684D01*
X0137153Y0087184D01*
X0135847Y0087184D01*
X0134640Y0086684D01*
X0133716Y0085760D01*
X0133216Y0084553D01*
X0133216Y0083247D01*
X0133716Y0082040D01*
X0134600Y0081155D01*
X0134600Y0028900D01*
X0128400Y0028900D01*
X0128400Y0047187D01*
X0098400Y0077187D01*
X0098400Y0081155D01*
X0099284Y0082040D01*
X0099784Y0083247D01*
X0099784Y0084553D01*
X0099284Y0085760D01*
X0098360Y0086684D01*
X0097153Y0087184D01*
X0095847Y0087184D01*
X0094640Y0086684D01*
X0093716Y0085760D01*
X0093216Y0084553D01*
X0093216Y0083247D01*
X0093716Y0082040D01*
X0094600Y0081155D01*
X0094600Y0075613D01*
X0095713Y0074500D01*
X0124600Y0045613D01*
X0124600Y0028900D01*
X0118400Y0028900D01*
X0118400Y0048437D01*
X0083534Y0083303D01*
X0083534Y0084553D01*
X0083034Y0085760D01*
X0082110Y0086684D01*
X0080903Y0087184D01*
X0079597Y0087184D01*
X0078390Y0086684D01*
X0077466Y0085760D01*
X0076966Y0084553D01*
X0076966Y0083247D01*
X0077466Y0082040D01*
X0078390Y0081116D01*
X0079597Y0080616D01*
X0080847Y0080616D01*
X0114600Y0046863D01*
X0114600Y0028900D01*
X0108400Y0028900D01*
X0108400Y0029687D01*
X0060900Y0077187D01*
X0059787Y0078300D01*
X0049837Y0078300D01*
X0051037Y0079500D01*
X0052150Y0080613D01*
X0052150Y0107405D01*
X0053034Y0108290D01*
X0053534Y0109497D01*
X0053534Y0110803D01*
X0053034Y0112010D01*
X0052110Y0112934D01*
X0050903Y0113434D01*
X0049597Y0113434D01*
X0048390Y0112934D01*
X0047466Y0112010D01*
X0046966Y0110803D01*
X0046966Y0109497D01*
X0047458Y0108308D01*
X0047153Y0108434D01*
X0045847Y0108434D01*
X0044640Y0107934D01*
X0043716Y0107010D01*
X0043216Y0105803D01*
X0043216Y0104497D01*
X0043708Y0103308D01*
X0043403Y0103434D01*
X0042097Y0103434D01*
X0040890Y0102934D01*
X0039966Y0102010D01*
X0039466Y0100803D01*
X0039466Y0099497D01*
X0039958Y0098308D01*
X0039653Y0098434D01*
X0038347Y0098434D01*
X0037140Y0097934D01*
X0036216Y0097010D01*
X0035716Y0095803D01*
X0035716Y0094497D01*
X0036216Y0093290D01*
X0037100Y0092405D01*
X0037100Y0088437D01*
X0036963Y0088300D01*
X0027150Y0088300D01*
X0027150Y0089905D01*
X0028034Y0090790D01*
X0028534Y0091997D01*
X0028534Y0093303D01*
X0028034Y0094510D01*
X0027110Y0095434D01*
X0025903Y0095934D01*
X0024597Y0095934D01*
X0023390Y0095434D01*
X0022466Y0094510D01*
X0021966Y0093303D01*
X0021966Y0091997D01*
X0022466Y0090790D01*
X0023350Y0089905D01*
X0023350Y0088437D01*
X0013400Y0078487D01*
X0013400Y0084905D01*
X0014284Y0085790D01*
X0014784Y0086997D01*
X0014784Y0088303D01*
X0014284Y0089510D01*
X0013360Y0090434D01*
X0012153Y0090934D01*
X0010847Y0090934D01*
X0009640Y0090434D01*
X0008716Y0089510D01*
X0008216Y0088303D01*
X0008216Y0086997D01*
X0008716Y0085790D01*
X0009600Y0084905D01*
X0009600Y0080439D01*
X0008403Y0080934D01*
X0007097Y0080934D01*
X0005890Y0080434D01*
X0004966Y0079510D01*
X0004466Y0078303D01*
X0004466Y0076997D01*
X0004600Y0076673D01*
X0004600Y0053437D01*
X0003350Y0052187D01*
X0003350Y0041863D01*
X0004463Y0040750D01*
X0010713Y0034500D01*
X0020523Y0034500D01*
X0020847Y0034366D01*
X0022153Y0034366D01*
X0023360Y0034866D01*
X0024284Y0035790D01*
X0024784Y0036997D01*
X0024784Y0038303D01*
X0024284Y0039510D01*
X0023360Y0040434D01*
X0022153Y0040934D01*
X0020980Y0040934D01*
X0020534Y0042010D01*
X0019610Y0042934D01*
X0018403Y0043434D01*
X0017230Y0043434D01*
X0016784Y0044510D01*
X0016145Y0045150D01*
X0016784Y0045790D01*
X0017230Y0046866D01*
X0018403Y0046866D01*
X0019610Y0047366D01*
X0020534Y0048290D01*
X0020980Y0049366D01*
X0022153Y0049366D01*
X0023360Y0049866D01*
X0024284Y0050790D01*
X0024730Y0051866D01*
X0025903Y0051866D01*
X0027110Y0052366D01*
X0028034Y0053290D01*
X0028441Y0054272D01*
X0034600Y0048113D01*
X0034600Y0028900D01*
X0020750Y0028900D01*
X0020750Y0032125D01*
X0019725Y0033150D01*
X0003250Y0033150D01*
X0003250Y0132016D01*
X0003308Y0132087D01*
X0003250Y0132729D01*
X0003250Y0133375D01*
X0003247Y0133378D01*
X0003250Y0133819D01*
X0003849Y0135738D01*
X0005136Y0137283D01*
X0006916Y0138218D01*
X0007871Y0138400D01*
X0223366Y0138400D01*
X0223437Y0138342D01*
X0224079Y0138400D01*
X0224725Y0138400D01*
X0224728Y0138403D01*
X0225169Y0138400D01*
X0227088Y0137801D01*
X0228633Y0136514D01*
X0229568Y0134734D01*
X0229750Y0133779D01*
X0229750Y0033150D01*
X0213275Y0033150D01*
X0212250Y0032125D01*
X0212250Y0028900D01*
X0212250Y0029876D02*
X0148400Y0029876D01*
X0148400Y0030875D02*
X0212250Y0030875D01*
X0212250Y0031873D02*
X0148400Y0031873D01*
X0148400Y0032872D02*
X0212997Y0032872D01*
X0208171Y0034869D02*
X0229750Y0034869D01*
X0229750Y0035867D02*
X0208534Y0035867D01*
X0208534Y0036866D02*
X0229750Y0036866D01*
X0229750Y0037864D02*
X0208198Y0037864D01*
X0207432Y0038863D02*
X0229750Y0038863D01*
X0229750Y0039861D02*
X0207150Y0039861D01*
X0207150Y0040860D02*
X0229750Y0040860D01*
X0229750Y0041858D02*
X0207150Y0041858D01*
X0207150Y0042857D02*
X0229750Y0042857D01*
X0229750Y0043855D02*
X0207150Y0043855D01*
X0207150Y0044854D02*
X0229750Y0044854D01*
X0229750Y0045852D02*
X0207150Y0045852D01*
X0207150Y0046851D02*
X0229750Y0046851D01*
X0229750Y0047849D02*
X0207150Y0047849D01*
X0207150Y0048848D02*
X0229750Y0048848D01*
X0229750Y0049846D02*
X0207150Y0049846D01*
X0207150Y0050845D02*
X0229750Y0050845D01*
X0229750Y0051843D02*
X0207150Y0051843D01*
X0207150Y0052842D02*
X0229750Y0052842D01*
X0229750Y0053840D02*
X0207150Y0053840D01*
X0207150Y0054839D02*
X0229750Y0054839D01*
X0229750Y0055837D02*
X0207150Y0055837D01*
X0207150Y0056836D02*
X0229750Y0056836D01*
X0229750Y0057834D02*
X0207150Y0057834D01*
X0207150Y0058833D02*
X0229750Y0058833D01*
X0229750Y0059832D02*
X0207150Y0059832D01*
X0207150Y0060830D02*
X0229750Y0060830D01*
X0229750Y0061829D02*
X0207150Y0061829D01*
X0207150Y0062827D02*
X0229750Y0062827D01*
X0229750Y0063826D02*
X0207150Y0063826D01*
X0207150Y0064824D02*
X0229750Y0064824D01*
X0229750Y0065823D02*
X0207150Y0065823D01*
X0207150Y0066821D02*
X0229750Y0066821D01*
X0229750Y0067820D02*
X0207150Y0067820D01*
X0207150Y0068818D02*
X0229750Y0068818D01*
X0229750Y0069817D02*
X0207150Y0069817D01*
X0207150Y0070815D02*
X0229750Y0070815D01*
X0229750Y0071814D02*
X0207150Y0071814D01*
X0207150Y0072812D02*
X0229750Y0072812D01*
X0229750Y0073811D02*
X0207150Y0073811D01*
X0207150Y0074809D02*
X0229750Y0074809D01*
X0229750Y0075808D02*
X0207150Y0075808D01*
X0207150Y0076806D02*
X0229750Y0076806D01*
X0229750Y0077805D02*
X0207150Y0077805D01*
X0207150Y0078803D02*
X0229750Y0078803D01*
X0229750Y0079802D02*
X0207150Y0079802D01*
X0207150Y0080800D02*
X0229750Y0080800D01*
X0229750Y0081799D02*
X0207150Y0081799D01*
X0207150Y0082797D02*
X0229750Y0082797D01*
X0229750Y0083796D02*
X0207150Y0083796D01*
X0207150Y0084794D02*
X0229750Y0084794D01*
X0229750Y0085793D02*
X0207150Y0085793D01*
X0207150Y0086791D02*
X0229750Y0086791D01*
X0229750Y0087790D02*
X0207150Y0087790D01*
X0207150Y0088788D02*
X0229750Y0088788D01*
X0229750Y0089787D02*
X0207150Y0089787D01*
X0207150Y0090785D02*
X0229750Y0090785D01*
X0229750Y0091784D02*
X0207150Y0091784D01*
X0207150Y0092782D02*
X0229750Y0092782D01*
X0229750Y0093781D02*
X0207150Y0093781D01*
X0207150Y0094779D02*
X0229750Y0094779D01*
X0229750Y0095778D02*
X0207150Y0095778D01*
X0207150Y0096776D02*
X0229750Y0096776D01*
X0229750Y0097775D02*
X0207150Y0097775D01*
X0207150Y0098773D02*
X0229750Y0098773D01*
X0229750Y0099772D02*
X0207150Y0099772D01*
X0207150Y0100770D02*
X0229750Y0100770D01*
X0229750Y0101769D02*
X0207150Y0101769D01*
X0207150Y0102768D02*
X0229750Y0102768D01*
X0229750Y0103766D02*
X0207150Y0103766D01*
X0207150Y0104765D02*
X0229750Y0104765D01*
X0229750Y0105763D02*
X0207150Y0105763D01*
X0207150Y0106762D02*
X0229750Y0106762D01*
X0229750Y0107760D02*
X0207150Y0107760D01*
X0207150Y0108759D02*
X0229750Y0108759D01*
X0229750Y0109757D02*
X0207150Y0109757D01*
X0207150Y0110756D02*
X0229750Y0110756D01*
X0229750Y0111754D02*
X0207150Y0111754D01*
X0207150Y0112753D02*
X0229750Y0112753D01*
X0229750Y0113751D02*
X0207150Y0113751D01*
X0207150Y0114750D02*
X0229750Y0114750D01*
X0229750Y0115748D02*
X0207993Y0115748D01*
X0208431Y0116747D02*
X0229750Y0116747D01*
X0229750Y0117745D02*
X0208534Y0117745D01*
X0208352Y0118744D02*
X0229750Y0118744D01*
X0229750Y0119742D02*
X0207802Y0119742D01*
X0206370Y0120741D02*
X0229750Y0120741D01*
X0229750Y0121739D02*
X0003250Y0121739D01*
X0003250Y0120741D02*
X0184130Y0120741D01*
X0182698Y0119742D02*
X0003250Y0119742D01*
X0003250Y0118744D02*
X0182148Y0118744D01*
X0181966Y0117745D02*
X0003250Y0117745D01*
X0003250Y0116747D02*
X0182069Y0116747D01*
X0182507Y0115748D02*
X0003250Y0115748D01*
X0003250Y0114750D02*
X0183670Y0114750D01*
X0184792Y0112753D02*
X0187460Y0112753D01*
X0186462Y0113751D02*
X0003250Y0113751D01*
X0003250Y0112753D02*
X0048208Y0112753D01*
X0047360Y0111754D02*
X0003250Y0111754D01*
X0003250Y0110756D02*
X0046966Y0110756D01*
X0046966Y0109757D02*
X0003250Y0109757D01*
X0003250Y0108759D02*
X0047271Y0108759D01*
X0044465Y0107760D02*
X0003250Y0107760D01*
X0003250Y0106762D02*
X0043613Y0106762D01*
X0043216Y0105763D02*
X0003250Y0105763D01*
X0003250Y0104765D02*
X0043216Y0104765D01*
X0043518Y0103766D02*
X0003250Y0103766D01*
X0003250Y0102768D02*
X0040723Y0102768D01*
X0039866Y0101769D02*
X0003250Y0101769D01*
X0003250Y0100770D02*
X0039466Y0100770D01*
X0039466Y0099772D02*
X0003250Y0099772D01*
X0003250Y0098773D02*
X0039765Y0098773D01*
X0036980Y0097775D02*
X0003250Y0097775D01*
X0003250Y0096776D02*
X0036119Y0096776D01*
X0035716Y0095778D02*
X0026281Y0095778D01*
X0027765Y0094779D02*
X0035716Y0094779D01*
X0036012Y0093781D02*
X0028336Y0093781D01*
X0028534Y0092782D02*
X0036723Y0092782D01*
X0037100Y0091784D02*
X0028446Y0091784D01*
X0028030Y0090785D02*
X0037100Y0090785D01*
X0037100Y0089787D02*
X0027150Y0089787D01*
X0027150Y0088788D02*
X0037100Y0088788D01*
X0023350Y0088788D02*
X0014583Y0088788D01*
X0014784Y0087790D02*
X0022703Y0087790D01*
X0021704Y0086791D02*
X0014699Y0086791D01*
X0014286Y0085793D02*
X0020706Y0085793D01*
X0019707Y0084794D02*
X0013400Y0084794D01*
X0013400Y0083796D02*
X0018709Y0083796D01*
X0017710Y0082797D02*
X0013400Y0082797D01*
X0013400Y0081799D02*
X0016712Y0081799D01*
X0015713Y0080800D02*
X0013400Y0080800D01*
X0013400Y0079802D02*
X0014715Y0079802D01*
X0013716Y0078803D02*
X0013400Y0078803D01*
X0009600Y0080800D02*
X0008727Y0080800D01*
X0009600Y0081799D02*
X0003250Y0081799D01*
X0003250Y0082797D02*
X0009600Y0082797D01*
X0009600Y0083796D02*
X0003250Y0083796D01*
X0003250Y0084794D02*
X0009600Y0084794D01*
X0008714Y0085793D02*
X0003250Y0085793D01*
X0003250Y0086791D02*
X0008301Y0086791D01*
X0008216Y0087790D02*
X0003250Y0087790D01*
X0003250Y0088788D02*
X0008417Y0088788D01*
X0008992Y0089787D02*
X0003250Y0089787D01*
X0003250Y0090785D02*
X0010487Y0090785D01*
X0012513Y0090785D02*
X0022470Y0090785D01*
X0022054Y0091784D02*
X0003250Y0091784D01*
X0003250Y0092782D02*
X0021966Y0092782D01*
X0022164Y0093781D02*
X0003250Y0093781D01*
X0003250Y0094779D02*
X0022735Y0094779D01*
X0024219Y0095778D02*
X0003250Y0095778D01*
X0014008Y0089787D02*
X0023350Y0089787D01*
X0006773Y0080800D02*
X0003250Y0080800D01*
X0003250Y0079802D02*
X0005257Y0079802D01*
X0004673Y0078803D02*
X0003250Y0078803D01*
X0003250Y0077805D02*
X0004466Y0077805D01*
X0004545Y0076806D02*
X0003250Y0076806D01*
X0003250Y0075808D02*
X0004600Y0075808D01*
X0004600Y0074809D02*
X0003250Y0074809D01*
X0003250Y0073811D02*
X0004600Y0073811D01*
X0004600Y0072812D02*
X0003250Y0072812D01*
X0003250Y0071814D02*
X0004600Y0071814D01*
X0004600Y0070815D02*
X0003250Y0070815D01*
X0003250Y0069817D02*
X0004600Y0069817D01*
X0004600Y0068818D02*
X0003250Y0068818D01*
X0003250Y0067820D02*
X0004600Y0067820D01*
X0004600Y0066821D02*
X0003250Y0066821D01*
X0003250Y0065823D02*
X0004600Y0065823D01*
X0004600Y0064824D02*
X0003250Y0064824D01*
X0003250Y0063826D02*
X0004600Y0063826D01*
X0004600Y0062827D02*
X0003250Y0062827D01*
X0003250Y0061829D02*
X0004600Y0061829D01*
X0004600Y0060830D02*
X0003250Y0060830D01*
X0003250Y0059832D02*
X0004600Y0059832D01*
X0004600Y0058833D02*
X0003250Y0058833D01*
X0003250Y0057834D02*
X0004600Y0057834D01*
X0004600Y0056836D02*
X0003250Y0056836D01*
X0003250Y0055837D02*
X0004600Y0055837D01*
X0004600Y0054839D02*
X0003250Y0054839D01*
X0003250Y0053840D02*
X0004600Y0053840D01*
X0004005Y0052842D02*
X0003250Y0052842D01*
X0003250Y0051843D02*
X0003350Y0051843D01*
X0003350Y0050845D02*
X0003250Y0050845D01*
X0003250Y0049846D02*
X0003350Y0049846D01*
X0003350Y0048848D02*
X0003250Y0048848D01*
X0003250Y0047849D02*
X0003350Y0047849D01*
X0003350Y0046851D02*
X0003250Y0046851D01*
X0003250Y0045852D02*
X0003350Y0045852D01*
X0003350Y0044854D02*
X0003250Y0044854D01*
X0003250Y0043855D02*
X0003350Y0043855D01*
X0003350Y0042857D02*
X0003250Y0042857D01*
X0003250Y0041858D02*
X0003355Y0041858D01*
X0003250Y0040860D02*
X0004353Y0040860D01*
X0005352Y0039861D02*
X0003250Y0039861D01*
X0003250Y0038863D02*
X0006350Y0038863D01*
X0007349Y0037864D02*
X0003250Y0037864D01*
X0003250Y0036866D02*
X0008347Y0036866D01*
X0009346Y0035867D02*
X0003250Y0035867D01*
X0003250Y0034869D02*
X0010344Y0034869D01*
X0003250Y0033870D02*
X0034600Y0033870D01*
X0034600Y0032872D02*
X0020003Y0032872D01*
X0020750Y0031873D02*
X0034600Y0031873D01*
X0034600Y0030875D02*
X0020750Y0030875D01*
X0020750Y0029876D02*
X0034600Y0029876D01*
X0034600Y0034869D02*
X0023363Y0034869D01*
X0024316Y0035867D02*
X0034600Y0035867D01*
X0034600Y0036866D02*
X0024730Y0036866D01*
X0024784Y0037864D02*
X0034600Y0037864D01*
X0034600Y0038863D02*
X0024552Y0038863D01*
X0023933Y0039861D02*
X0034600Y0039861D01*
X0034600Y0040860D02*
X0022333Y0040860D01*
X0020597Y0041858D02*
X0034600Y0041858D01*
X0034600Y0042857D02*
X0019688Y0042857D01*
X0017056Y0043855D02*
X0034600Y0043855D01*
X0034600Y0044854D02*
X0016441Y0044854D01*
X0016810Y0045852D02*
X0034600Y0045852D01*
X0034600Y0046851D02*
X0017224Y0046851D01*
X0020094Y0047849D02*
X0034600Y0047849D01*
X0033865Y0048848D02*
X0020765Y0048848D01*
X0023314Y0049846D02*
X0032867Y0049846D01*
X0031868Y0050845D02*
X0024307Y0050845D01*
X0024721Y0051843D02*
X0030870Y0051843D01*
X0029871Y0052842D02*
X0027587Y0052842D01*
X0028262Y0053840D02*
X0028873Y0053840D01*
X0062279Y0075808D02*
X0085655Y0075808D01*
X0084657Y0076806D02*
X0061281Y0076806D01*
X0060282Y0077805D02*
X0083658Y0077805D01*
X0082660Y0078803D02*
X0050340Y0078803D01*
X0051339Y0079802D02*
X0081661Y0079802D01*
X0085038Y0081799D02*
X0093957Y0081799D01*
X0093402Y0082797D02*
X0084040Y0082797D01*
X0083534Y0083796D02*
X0093216Y0083796D01*
X0093316Y0084794D02*
X0083434Y0084794D01*
X0083002Y0085793D02*
X0093748Y0085793D01*
X0094898Y0086791D02*
X0081852Y0086791D01*
X0078648Y0086791D02*
X0052150Y0086791D01*
X0052150Y0085793D02*
X0077498Y0085793D01*
X0077066Y0084794D02*
X0052150Y0084794D01*
X0052150Y0083796D02*
X0076966Y0083796D01*
X0077152Y0082797D02*
X0052150Y0082797D01*
X0052150Y0081799D02*
X0077707Y0081799D01*
X0079151Y0080800D02*
X0052150Y0080800D01*
X0052150Y0087790D02*
X0178245Y0087790D01*
X0177375Y0086791D02*
X0138102Y0086791D01*
X0139252Y0085793D02*
X0176966Y0085793D01*
X0176966Y0084794D02*
X0139684Y0084794D01*
X0139784Y0083796D02*
X0176209Y0083796D01*
X0175210Y0082797D02*
X0139598Y0082797D01*
X0139043Y0081799D02*
X0174212Y0081799D01*
X0173213Y0080800D02*
X0138400Y0080800D01*
X0138400Y0079802D02*
X0172215Y0079802D01*
X0171216Y0078803D02*
X0138400Y0078803D01*
X0138400Y0077805D02*
X0170218Y0077805D01*
X0169219Y0076806D02*
X0138400Y0076806D01*
X0138400Y0075808D02*
X0168221Y0075808D01*
X0167222Y0074809D02*
X0138400Y0074809D01*
X0138400Y0073811D02*
X0166224Y0073811D01*
X0165225Y0072812D02*
X0138400Y0072812D01*
X0138400Y0071814D02*
X0164227Y0071814D01*
X0163228Y0070815D02*
X0138400Y0070815D01*
X0138400Y0069817D02*
X0162230Y0069817D01*
X0161231Y0068818D02*
X0138400Y0068818D01*
X0138400Y0067820D02*
X0160233Y0067820D01*
X0159234Y0066821D02*
X0138400Y0066821D01*
X0138400Y0065823D02*
X0158236Y0065823D01*
X0157237Y0064824D02*
X0138400Y0064824D01*
X0138400Y0063826D02*
X0156239Y0063826D01*
X0155240Y0062827D02*
X0138400Y0062827D01*
X0138400Y0061829D02*
X0154242Y0061829D01*
X0153243Y0060830D02*
X0138400Y0060830D01*
X0138400Y0059832D02*
X0152245Y0059832D01*
X0151246Y0058833D02*
X0138400Y0058833D01*
X0138400Y0057834D02*
X0150248Y0057834D01*
X0149249Y0056836D02*
X0138400Y0056836D01*
X0138400Y0055837D02*
X0148250Y0055837D01*
X0147252Y0054839D02*
X0138400Y0054839D01*
X0138400Y0053840D02*
X0146253Y0053840D01*
X0145255Y0052842D02*
X0138400Y0052842D01*
X0138400Y0051843D02*
X0144600Y0051843D01*
X0144600Y0050845D02*
X0138400Y0050845D01*
X0138400Y0049846D02*
X0144600Y0049846D01*
X0144600Y0048848D02*
X0138400Y0048848D01*
X0138400Y0047849D02*
X0144600Y0047849D01*
X0144600Y0046851D02*
X0138400Y0046851D01*
X0138400Y0045852D02*
X0144600Y0045852D01*
X0144600Y0044854D02*
X0138400Y0044854D01*
X0138400Y0043855D02*
X0144600Y0043855D01*
X0144600Y0042857D02*
X0138400Y0042857D01*
X0138400Y0041858D02*
X0144600Y0041858D01*
X0144600Y0040860D02*
X0138400Y0040860D01*
X0138400Y0039861D02*
X0144600Y0039861D01*
X0144600Y0038863D02*
X0138400Y0038863D01*
X0138400Y0037864D02*
X0144600Y0037864D01*
X0144600Y0036866D02*
X0138400Y0036866D01*
X0138400Y0035867D02*
X0144600Y0035867D01*
X0144600Y0034869D02*
X0138400Y0034869D01*
X0138400Y0033870D02*
X0144600Y0033870D01*
X0144600Y0032872D02*
X0138400Y0032872D01*
X0138400Y0031873D02*
X0144600Y0031873D01*
X0144600Y0030875D02*
X0138400Y0030875D01*
X0138400Y0029876D02*
X0144600Y0029876D01*
X0148400Y0033870D02*
X0203135Y0033870D01*
X0202329Y0034869D02*
X0148400Y0034869D01*
X0148400Y0035867D02*
X0201966Y0035867D01*
X0200847Y0036866D02*
X0148400Y0036866D01*
X0148400Y0037864D02*
X0199141Y0037864D01*
X0198478Y0038863D02*
X0148400Y0038863D01*
X0148400Y0039861D02*
X0195900Y0039861D01*
X0194937Y0040860D02*
X0148400Y0040860D01*
X0148400Y0041858D02*
X0194523Y0041858D01*
X0191649Y0042857D02*
X0148400Y0042857D01*
X0148400Y0043855D02*
X0190981Y0043855D01*
X0188418Y0044854D02*
X0148400Y0044854D01*
X0148400Y0045852D02*
X0187440Y0045852D01*
X0187026Y0046851D02*
X0148400Y0046851D01*
X0148400Y0047849D02*
X0184156Y0047849D01*
X0183484Y0048848D02*
X0148400Y0048848D01*
X0148400Y0049846D02*
X0180936Y0049846D01*
X0179943Y0050845D02*
X0148632Y0050845D01*
X0149630Y0051843D02*
X0179529Y0051843D01*
X0179466Y0052842D02*
X0150629Y0052842D01*
X0151627Y0053840D02*
X0179688Y0053840D01*
X0180294Y0054839D02*
X0152626Y0054839D01*
X0153624Y0055837D02*
X0181863Y0055837D01*
X0182100Y0056836D02*
X0154623Y0056836D01*
X0155621Y0057834D02*
X0182100Y0057834D01*
X0182100Y0058833D02*
X0156620Y0058833D01*
X0157619Y0059832D02*
X0182100Y0059832D01*
X0182100Y0060830D02*
X0158617Y0060830D01*
X0159616Y0061829D02*
X0182100Y0061829D01*
X0182100Y0062827D02*
X0160614Y0062827D01*
X0161613Y0063826D02*
X0182100Y0063826D01*
X0182100Y0064824D02*
X0162611Y0064824D01*
X0163610Y0065823D02*
X0182100Y0065823D01*
X0182100Y0066821D02*
X0164608Y0066821D01*
X0165607Y0067820D02*
X0182100Y0067820D01*
X0182100Y0068818D02*
X0166605Y0068818D01*
X0167604Y0069817D02*
X0182100Y0069817D01*
X0182100Y0070815D02*
X0168602Y0070815D01*
X0169601Y0071814D02*
X0182100Y0071814D01*
X0182100Y0072812D02*
X0170599Y0072812D01*
X0171598Y0073811D02*
X0182100Y0073811D01*
X0182100Y0074809D02*
X0172596Y0074809D01*
X0173595Y0075808D02*
X0182100Y0075808D01*
X0182100Y0076806D02*
X0174593Y0076806D01*
X0175592Y0077805D02*
X0182100Y0077805D01*
X0182100Y0078803D02*
X0176590Y0078803D01*
X0177589Y0079802D02*
X0182100Y0079802D01*
X0182100Y0080800D02*
X0178587Y0080800D01*
X0179586Y0081799D02*
X0182100Y0081799D01*
X0182100Y0088788D02*
X0052150Y0088788D01*
X0052150Y0089787D02*
X0182100Y0089787D01*
X0182100Y0090785D02*
X0052150Y0090785D01*
X0052150Y0091784D02*
X0182100Y0091784D01*
X0182100Y0092782D02*
X0052150Y0092782D01*
X0052150Y0093781D02*
X0182100Y0093781D01*
X0182100Y0094779D02*
X0052150Y0094779D01*
X0052150Y0095778D02*
X0182100Y0095778D01*
X0182100Y0096776D02*
X0052150Y0096776D01*
X0052150Y0097775D02*
X0182100Y0097775D01*
X0182100Y0098773D02*
X0052150Y0098773D01*
X0052150Y0099772D02*
X0182100Y0099772D01*
X0181943Y0100770D02*
X0052150Y0100770D01*
X0052150Y0101769D02*
X0180944Y0101769D01*
X0180850Y0102768D02*
X0052150Y0102768D01*
X0052150Y0103766D02*
X0180850Y0103766D01*
X0180850Y0104765D02*
X0052150Y0104765D01*
X0052150Y0105763D02*
X0180850Y0105763D01*
X0180850Y0106762D02*
X0052150Y0106762D01*
X0052505Y0107760D02*
X0180495Y0107760D01*
X0179771Y0108759D02*
X0053228Y0108759D01*
X0053534Y0109757D02*
X0179466Y0109757D01*
X0179466Y0110756D02*
X0053534Y0110756D01*
X0053140Y0111754D02*
X0179860Y0111754D01*
X0180708Y0112753D02*
X0052292Y0112753D01*
X0005959Y0137715D02*
X0227192Y0137715D01*
X0228390Y0136717D02*
X0004664Y0136717D01*
X0003842Y0135718D02*
X0229051Y0135718D01*
X0229570Y0134720D02*
X0003531Y0134720D01*
X0003250Y0133721D02*
X0229750Y0133721D01*
X0229750Y0132723D02*
X0003251Y0132723D01*
X0003250Y0131724D02*
X0229750Y0131724D01*
X0229750Y0130726D02*
X0003250Y0130726D01*
X0003250Y0129727D02*
X0229750Y0129727D01*
X0229750Y0128729D02*
X0003250Y0128729D01*
X0003250Y0127730D02*
X0229750Y0127730D01*
X0229750Y0126732D02*
X0003250Y0126732D01*
X0003250Y0125733D02*
X0229750Y0125733D01*
X0229750Y0124735D02*
X0003250Y0124735D01*
X0003250Y0123736D02*
X0229750Y0123736D01*
X0229750Y0122738D02*
X0003250Y0122738D01*
X0063278Y0074809D02*
X0086654Y0074809D01*
X0087652Y0073811D02*
X0064276Y0073811D01*
X0065275Y0072812D02*
X0088651Y0072812D01*
X0089649Y0071814D02*
X0066273Y0071814D01*
X0067272Y0070815D02*
X0090648Y0070815D01*
X0091646Y0069817D02*
X0068270Y0069817D01*
X0069269Y0068818D02*
X0092645Y0068818D01*
X0093643Y0067820D02*
X0070267Y0067820D01*
X0071266Y0066821D02*
X0094642Y0066821D01*
X0095640Y0065823D02*
X0072264Y0065823D01*
X0073263Y0064824D02*
X0096639Y0064824D01*
X0097637Y0063826D02*
X0074261Y0063826D01*
X0075260Y0062827D02*
X0098636Y0062827D01*
X0099634Y0061829D02*
X0076258Y0061829D01*
X0077257Y0060830D02*
X0100633Y0060830D01*
X0101631Y0059832D02*
X0078255Y0059832D01*
X0079254Y0058833D02*
X0102630Y0058833D01*
X0103628Y0057834D02*
X0080252Y0057834D01*
X0081251Y0056836D02*
X0104627Y0056836D01*
X0105626Y0055837D02*
X0082250Y0055837D01*
X0083248Y0054839D02*
X0106624Y0054839D01*
X0107623Y0053840D02*
X0084247Y0053840D01*
X0085245Y0052842D02*
X0108621Y0052842D01*
X0109620Y0051843D02*
X0086244Y0051843D01*
X0087242Y0050845D02*
X0110618Y0050845D01*
X0111617Y0049846D02*
X0088241Y0049846D01*
X0089239Y0048848D02*
X0112615Y0048848D01*
X0113614Y0047849D02*
X0090238Y0047849D01*
X0091236Y0046851D02*
X0114600Y0046851D01*
X0114600Y0045852D02*
X0092235Y0045852D01*
X0093233Y0044854D02*
X0114600Y0044854D01*
X0114600Y0043855D02*
X0094232Y0043855D01*
X0095230Y0042857D02*
X0114600Y0042857D01*
X0114600Y0041858D02*
X0096229Y0041858D01*
X0097227Y0040860D02*
X0114600Y0040860D01*
X0114600Y0039861D02*
X0098226Y0039861D01*
X0099224Y0038863D02*
X0114600Y0038863D01*
X0114600Y0037864D02*
X0100223Y0037864D01*
X0101221Y0036866D02*
X0114600Y0036866D01*
X0114600Y0035867D02*
X0102220Y0035867D01*
X0103218Y0034869D02*
X0114600Y0034869D01*
X0114600Y0033870D02*
X0104217Y0033870D01*
X0105215Y0032872D02*
X0114600Y0032872D01*
X0114600Y0031873D02*
X0106214Y0031873D01*
X0107212Y0030875D02*
X0114600Y0030875D01*
X0114600Y0029876D02*
X0108211Y0029876D01*
X0118400Y0029876D02*
X0124600Y0029876D01*
X0124600Y0030875D02*
X0118400Y0030875D01*
X0118400Y0031873D02*
X0124600Y0031873D01*
X0124600Y0032872D02*
X0118400Y0032872D01*
X0118400Y0033870D02*
X0124600Y0033870D01*
X0124600Y0034869D02*
X0118400Y0034869D01*
X0118400Y0035867D02*
X0124600Y0035867D01*
X0124600Y0036866D02*
X0118400Y0036866D01*
X0118400Y0037864D02*
X0124600Y0037864D01*
X0124600Y0038863D02*
X0118400Y0038863D01*
X0118400Y0039861D02*
X0124600Y0039861D01*
X0124600Y0040860D02*
X0118400Y0040860D01*
X0118400Y0041858D02*
X0124600Y0041858D01*
X0124600Y0042857D02*
X0118400Y0042857D01*
X0118400Y0043855D02*
X0124600Y0043855D01*
X0124600Y0044854D02*
X0118400Y0044854D01*
X0118400Y0045852D02*
X0124361Y0045852D01*
X0123362Y0046851D02*
X0118400Y0046851D01*
X0118400Y0047849D02*
X0122364Y0047849D01*
X0121365Y0048848D02*
X0117989Y0048848D01*
X0116991Y0049846D02*
X0120367Y0049846D01*
X0119368Y0050845D02*
X0115992Y0050845D01*
X0114994Y0051843D02*
X0118370Y0051843D01*
X0117371Y0052842D02*
X0113995Y0052842D01*
X0112997Y0053840D02*
X0116373Y0053840D01*
X0115374Y0054839D02*
X0111998Y0054839D01*
X0111000Y0055837D02*
X0114376Y0055837D01*
X0113377Y0056836D02*
X0110001Y0056836D01*
X0109002Y0057834D02*
X0112378Y0057834D01*
X0111380Y0058833D02*
X0108004Y0058833D01*
X0107005Y0059832D02*
X0110381Y0059832D01*
X0109383Y0060830D02*
X0106007Y0060830D01*
X0105008Y0061829D02*
X0108384Y0061829D01*
X0107386Y0062827D02*
X0104010Y0062827D01*
X0103011Y0063826D02*
X0106387Y0063826D01*
X0105389Y0064824D02*
X0102013Y0064824D01*
X0101014Y0065823D02*
X0104390Y0065823D01*
X0103392Y0066821D02*
X0100016Y0066821D01*
X0099017Y0067820D02*
X0102393Y0067820D01*
X0101395Y0068818D02*
X0098019Y0068818D01*
X0097020Y0069817D02*
X0100396Y0069817D01*
X0099398Y0070815D02*
X0096022Y0070815D01*
X0095023Y0071814D02*
X0098399Y0071814D01*
X0097401Y0072812D02*
X0094025Y0072812D01*
X0093026Y0073811D02*
X0096402Y0073811D01*
X0095404Y0074809D02*
X0092028Y0074809D01*
X0091029Y0075808D02*
X0094600Y0075808D01*
X0094600Y0076806D02*
X0090031Y0076806D01*
X0089032Y0077805D02*
X0094600Y0077805D01*
X0094600Y0078803D02*
X0088034Y0078803D01*
X0087035Y0079802D02*
X0094600Y0079802D01*
X0094600Y0080800D02*
X0086037Y0080800D01*
X0098400Y0080800D02*
X0134600Y0080800D01*
X0134600Y0079802D02*
X0098400Y0079802D01*
X0098400Y0078803D02*
X0134600Y0078803D01*
X0134600Y0077805D02*
X0098400Y0077805D01*
X0098781Y0076806D02*
X0134600Y0076806D01*
X0134600Y0075808D02*
X0099779Y0075808D01*
X0100778Y0074809D02*
X0134600Y0074809D01*
X0134600Y0073811D02*
X0101776Y0073811D01*
X0102775Y0072812D02*
X0134600Y0072812D01*
X0134600Y0071814D02*
X0103773Y0071814D01*
X0104772Y0070815D02*
X0134600Y0070815D01*
X0134600Y0069817D02*
X0105770Y0069817D01*
X0106769Y0068818D02*
X0134600Y0068818D01*
X0134600Y0067820D02*
X0107767Y0067820D01*
X0108766Y0066821D02*
X0134600Y0066821D01*
X0134600Y0065823D02*
X0109764Y0065823D01*
X0110763Y0064824D02*
X0134600Y0064824D01*
X0134600Y0063826D02*
X0111761Y0063826D01*
X0112760Y0062827D02*
X0134600Y0062827D01*
X0134600Y0061829D02*
X0113758Y0061829D01*
X0114757Y0060830D02*
X0134600Y0060830D01*
X0134600Y0059832D02*
X0115755Y0059832D01*
X0116754Y0058833D02*
X0134600Y0058833D01*
X0134600Y0057834D02*
X0117752Y0057834D01*
X0118751Y0056836D02*
X0134600Y0056836D01*
X0134600Y0055837D02*
X0119750Y0055837D01*
X0120748Y0054839D02*
X0134600Y0054839D01*
X0134600Y0053840D02*
X0121747Y0053840D01*
X0122745Y0052842D02*
X0134600Y0052842D01*
X0134600Y0051843D02*
X0123744Y0051843D01*
X0124742Y0050845D02*
X0134600Y0050845D01*
X0134600Y0049846D02*
X0125741Y0049846D01*
X0126739Y0048848D02*
X0134600Y0048848D01*
X0134600Y0047849D02*
X0127738Y0047849D01*
X0128400Y0046851D02*
X0134600Y0046851D01*
X0134600Y0045852D02*
X0128400Y0045852D01*
X0128400Y0044854D02*
X0134600Y0044854D01*
X0134600Y0043855D02*
X0128400Y0043855D01*
X0128400Y0042857D02*
X0134600Y0042857D01*
X0134600Y0041858D02*
X0128400Y0041858D01*
X0128400Y0040860D02*
X0134600Y0040860D01*
X0134600Y0039861D02*
X0128400Y0039861D01*
X0128400Y0038863D02*
X0134600Y0038863D01*
X0134600Y0037864D02*
X0128400Y0037864D01*
X0128400Y0036866D02*
X0134600Y0036866D01*
X0134600Y0035867D02*
X0128400Y0035867D01*
X0128400Y0034869D02*
X0134600Y0034869D01*
X0134600Y0033870D02*
X0128400Y0033870D01*
X0128400Y0032872D02*
X0134600Y0032872D01*
X0134600Y0031873D02*
X0128400Y0031873D01*
X0128400Y0030875D02*
X0134600Y0030875D01*
X0134600Y0029876D02*
X0128400Y0029876D01*
X0207365Y0033870D02*
X0229750Y0033870D01*
X0133957Y0081799D02*
X0099043Y0081799D01*
X0099598Y0082797D02*
X0133402Y0082797D01*
X0133216Y0083796D02*
X0099784Y0083796D01*
X0099684Y0084794D02*
X0133316Y0084794D01*
X0133748Y0085793D02*
X0099252Y0085793D01*
X0098102Y0086791D02*
X0134898Y0086791D01*
X0185728Y0108759D02*
X0191454Y0108759D01*
X0190456Y0109757D02*
X0186034Y0109757D01*
X0186034Y0110756D02*
X0189457Y0110756D01*
X0188459Y0111754D02*
X0185640Y0111754D01*
X0188535Y0107760D02*
X0192453Y0107760D01*
X0193451Y0106762D02*
X0189387Y0106762D01*
X0189784Y0105763D02*
X0194450Y0105763D01*
X0195448Y0104765D02*
X0189784Y0104765D01*
X0189482Y0103766D02*
X0195850Y0103766D01*
X0199650Y0103766D02*
X0203350Y0103766D01*
X0203350Y0102768D02*
X0199650Y0102768D01*
X0199650Y0101769D02*
X0203350Y0101769D01*
X0203350Y0100770D02*
X0199650Y0100770D01*
X0199650Y0099772D02*
X0203350Y0099772D01*
X0203350Y0098773D02*
X0199650Y0098773D01*
X0199650Y0097775D02*
X0203350Y0097775D01*
X0203350Y0096776D02*
X0199650Y0096776D01*
X0199650Y0095778D02*
X0200469Y0095778D01*
X0202531Y0095778D02*
X0203350Y0095778D01*
X0192100Y0095778D02*
X0188400Y0095778D01*
X0188400Y0096776D02*
X0192100Y0096776D01*
X0191730Y0097775D02*
X0188400Y0097775D01*
X0188400Y0098773D02*
X0191015Y0098773D01*
X0190716Y0099772D02*
X0188400Y0099772D01*
X0188400Y0100770D02*
X0190716Y0100770D01*
X0191116Y0101769D02*
X0188400Y0101769D01*
X0188762Y0102768D02*
X0191973Y0102768D01*
X0198825Y0106762D02*
X0203350Y0106762D01*
X0203350Y0107760D02*
X0197827Y0107760D01*
X0196828Y0108759D02*
X0203350Y0108759D01*
X0203350Y0109757D02*
X0195830Y0109757D01*
X0194831Y0110756D02*
X0203350Y0110756D01*
X0203350Y0111754D02*
X0193833Y0111754D01*
X0192834Y0112753D02*
X0203350Y0112753D01*
X0203350Y0113751D02*
X0191836Y0113751D01*
X0190837Y0114750D02*
X0203350Y0114750D01*
X0202507Y0115748D02*
X0189839Y0115748D01*
X0188840Y0116747D02*
X0202069Y0116747D01*
X0201966Y0117745D02*
X0188534Y0117745D01*
X0188352Y0118744D02*
X0202148Y0118744D01*
X0202698Y0119742D02*
X0187802Y0119742D01*
X0186370Y0120741D02*
X0204130Y0120741D01*
X0203350Y0105763D02*
X0199650Y0105763D01*
X0199650Y0104765D02*
X0203350Y0104765D01*
X0192100Y0094779D02*
X0188400Y0094779D01*
X0188400Y0093781D02*
X0192100Y0093781D01*
D12*
X0190250Y0090150D03*
X0180250Y0085150D03*
X0201500Y0092650D03*
X0194000Y0100150D03*
X0186500Y0105150D03*
X0182750Y0110150D03*
X0185250Y0117650D03*
X0205250Y0117650D03*
X0225250Y0111400D03*
X0225250Y0091400D03*
X0225250Y0076400D03*
X0225250Y0063900D03*
X0214000Y0051400D03*
X0210250Y0046400D03*
X0201500Y0040150D03*
X0197750Y0042650D03*
X0194000Y0045150D03*
X0190250Y0047650D03*
X0186500Y0050150D03*
X0182750Y0052650D03*
X0205250Y0036400D03*
X0219000Y0035150D03*
X0226500Y0035150D03*
X0225250Y0050150D03*
X0136500Y0083900D03*
X0096500Y0083900D03*
X0080250Y0083900D03*
X0050250Y0062650D03*
X0045250Y0067650D03*
X0037750Y0070150D03*
X0032750Y0075150D03*
X0025250Y0072650D03*
X0027750Y0067650D03*
X0030250Y0062650D03*
X0025250Y0055150D03*
X0021500Y0052650D03*
X0017750Y0050150D03*
X0014000Y0047650D03*
X0014000Y0042650D03*
X0017750Y0040150D03*
X0021500Y0037650D03*
X0006500Y0035150D03*
X0045250Y0057650D03*
X0007750Y0077650D03*
X0006500Y0083900D03*
X0011500Y0087650D03*
X0025250Y0092650D03*
X0039000Y0095150D03*
X0042750Y0100150D03*
X0046500Y0105150D03*
X0050250Y0110150D03*
X0049000Y0120150D03*
X0041500Y0132650D03*
X0016500Y0132650D03*
X0009000Y0127650D03*
X0066500Y0132650D03*
X0091500Y0132650D03*
X0119000Y0132650D03*
X0146500Y0132650D03*
X0171500Y0132650D03*
X0199000Y0132650D03*
X0224000Y0131400D03*
X0111500Y0045150D03*
X0111500Y0032650D03*
D13*
X0206500Y0031400D02*
X0206500Y0013900D01*
D14*
X0205250Y0036400D02*
X0205250Y0117650D01*
X0197750Y0105150D02*
X0185250Y0117650D01*
X0182750Y0110150D02*
X0182750Y0102650D01*
X0184000Y0101400D01*
X0184000Y0053900D01*
X0182750Y0052650D01*
X0186500Y0050150D02*
X0186500Y0105150D01*
X0194000Y0100150D02*
X0194000Y0045150D01*
X0197750Y0042650D02*
X0197750Y0105150D01*
X0201500Y0092650D02*
X0201500Y0040150D01*
X0190250Y0047650D02*
X0190250Y0090150D01*
X0180250Y0085150D02*
X0146500Y0051400D01*
X0146500Y0013900D01*
X0136500Y0013900D02*
X0136500Y0083900D01*
X0126500Y0046400D02*
X0096500Y0076400D01*
X0096500Y0083900D01*
X0080250Y0083900D02*
X0116500Y0047650D01*
X0116500Y0013900D01*
X0126500Y0013900D02*
X0126500Y0046400D01*
X0106500Y0028900D02*
X0059000Y0076400D01*
X0034000Y0076400D01*
X0032750Y0075150D01*
X0037750Y0070150D02*
X0039000Y0071400D01*
X0054000Y0071400D01*
X0096500Y0028900D01*
X0096500Y0013900D01*
X0086500Y0013900D02*
X0086500Y0031400D01*
X0050250Y0067650D01*
X0045250Y0067650D01*
X0050250Y0062650D02*
X0076500Y0036400D01*
X0076500Y0013900D01*
X0066500Y0013900D02*
X0066500Y0040150D01*
X0049000Y0057650D01*
X0045250Y0057650D01*
X0049000Y0053900D02*
X0039000Y0053900D01*
X0030250Y0062650D01*
X0026500Y0061400D02*
X0026500Y0066400D01*
X0027750Y0067650D01*
X0024000Y0071400D02*
X0025250Y0072650D01*
X0024000Y0071400D02*
X0024000Y0061400D01*
X0036500Y0048900D01*
X0036500Y0013900D01*
X0046500Y0013900D02*
X0046500Y0046400D01*
X0041500Y0051400D01*
X0036500Y0051400D01*
X0026500Y0061400D01*
X0021500Y0058900D02*
X0021500Y0073900D01*
X0026500Y0078900D01*
X0047750Y0078900D01*
X0050250Y0081400D01*
X0050250Y0110150D01*
X0046500Y0105150D02*
X0046500Y0083900D01*
X0044000Y0081400D01*
X0026500Y0081400D01*
X0019000Y0073900D01*
X0019000Y0055150D01*
X0021500Y0052650D01*
X0025250Y0055150D02*
X0021500Y0058900D01*
X0016500Y0051400D02*
X0016500Y0073900D01*
X0026500Y0083900D01*
X0040250Y0083900D01*
X0042750Y0086400D01*
X0042750Y0100150D01*
X0039000Y0095150D02*
X0039000Y0087650D01*
X0037750Y0086400D01*
X0026500Y0086400D01*
X0014000Y0073900D01*
X0014000Y0047650D01*
X0011500Y0050150D02*
X0011500Y0073900D01*
X0025250Y0087650D01*
X0025250Y0092650D01*
X0011500Y0087650D02*
X0011500Y0076400D01*
X0009000Y0073900D01*
X0009000Y0051400D01*
X0007750Y0050150D01*
X0007750Y0043900D01*
X0012750Y0038900D01*
X0016500Y0038900D01*
X0017750Y0040150D01*
X0014000Y0042650D02*
X0012750Y0042650D01*
X0010250Y0045150D01*
X0010250Y0048900D01*
X0011500Y0050150D01*
X0006500Y0052650D02*
X0006500Y0076400D01*
X0007750Y0077650D01*
X0006500Y0052650D02*
X0005250Y0051400D01*
X0005250Y0042650D01*
X0011500Y0036400D01*
X0020250Y0036400D01*
X0021500Y0037650D01*
X0017750Y0050150D02*
X0016500Y0051400D01*
X0049000Y0053900D02*
X0056500Y0046400D01*
X0056500Y0013900D01*
X0106500Y0013900D02*
X0106500Y0028900D01*
M02*
