G75*
%MOIN*%
%OFA0B0*%
%FSLAX25Y25*%
%IPPOS*%
%LPD*%
%AMOC8*
5,1,8,0,0,1.08239X$1,22.5*
%
%ADD10R,0.07000X0.25000*%
%ADD11R,0.05000X0.03000*%
%ADD12R,0.05118X0.05906*%
%ADD13C,0.01000*%
%ADD14C,0.03569*%
%ADD15C,0.00800*%
%ADD16C,0.01600*%
D10*
X0026500Y0013900D03*
X0036500Y0013900D03*
X0046500Y0013900D03*
X0056500Y0013900D03*
X0066500Y0013900D03*
X0076500Y0013900D03*
X0086500Y0013900D03*
X0096500Y0013900D03*
X0106500Y0013900D03*
X0116500Y0013900D03*
X0126500Y0013900D03*
X0136500Y0013900D03*
X0146500Y0013900D03*
X0156500Y0013900D03*
X0166500Y0013900D03*
X0176500Y0013900D03*
X0186500Y0013900D03*
X0196500Y0013900D03*
X0206500Y0013900D03*
D11*
X0215250Y0057650D03*
X0215250Y0062650D03*
X0215250Y0067650D03*
X0215250Y0072650D03*
X0215250Y0077650D03*
X0215250Y0082650D03*
X0215250Y0087650D03*
X0215250Y0092650D03*
X0215250Y0097650D03*
X0215250Y0102650D03*
X0215250Y0107650D03*
X0215250Y0112650D03*
X0215250Y0117650D03*
X0215250Y0122650D03*
X0174750Y0122650D03*
X0174750Y0117650D03*
X0174750Y0112650D03*
X0174750Y0107650D03*
X0174750Y0102650D03*
X0174750Y0097650D03*
X0174750Y0092650D03*
X0174750Y0087650D03*
X0174750Y0082650D03*
X0174750Y0077650D03*
X0174750Y0072650D03*
X0174750Y0067650D03*
X0174750Y0062650D03*
X0174750Y0057650D03*
X0162750Y0057650D03*
X0162750Y0062650D03*
X0162750Y0067650D03*
X0162750Y0072650D03*
X0162750Y0077650D03*
X0162750Y0082650D03*
X0162750Y0087650D03*
X0162750Y0092650D03*
X0162750Y0097650D03*
X0162750Y0102650D03*
X0162750Y0107650D03*
X0162750Y0112650D03*
X0162750Y0117650D03*
X0162750Y0122650D03*
X0122250Y0122650D03*
X0122250Y0117650D03*
X0122250Y0112650D03*
X0122250Y0107650D03*
X0122250Y0102650D03*
X0122250Y0097650D03*
X0122250Y0092650D03*
X0122250Y0087650D03*
X0122250Y0082650D03*
X0122250Y0077650D03*
X0122250Y0072650D03*
X0122250Y0067650D03*
X0122250Y0062650D03*
X0122250Y0057650D03*
X0110250Y0057650D03*
X0110250Y0062650D03*
X0110250Y0067650D03*
X0110250Y0072650D03*
X0110250Y0077650D03*
X0110250Y0082650D03*
X0110250Y0087650D03*
X0110250Y0092650D03*
X0110250Y0097650D03*
X0110250Y0102650D03*
X0110250Y0107650D03*
X0110250Y0112650D03*
X0110250Y0117650D03*
X0110250Y0122650D03*
X0069750Y0122650D03*
X0069750Y0117650D03*
X0069750Y0112650D03*
X0069750Y0107650D03*
X0069750Y0102650D03*
X0069750Y0097650D03*
X0069750Y0092650D03*
X0069750Y0087650D03*
X0069750Y0082650D03*
X0069750Y0077650D03*
X0069750Y0072650D03*
X0069750Y0067650D03*
X0069750Y0062650D03*
X0069750Y0057650D03*
X0057750Y0057650D03*
X0057750Y0062650D03*
X0057750Y0067650D03*
X0057750Y0072650D03*
X0057750Y0077650D03*
X0057750Y0082650D03*
X0057750Y0087650D03*
X0057750Y0092650D03*
X0057750Y0097650D03*
X0057750Y0102650D03*
X0057750Y0107650D03*
X0057750Y0112650D03*
X0057750Y0117650D03*
X0057750Y0122650D03*
X0017250Y0122650D03*
X0017250Y0117650D03*
X0017250Y0112650D03*
X0017250Y0107650D03*
X0017250Y0102650D03*
X0017250Y0097650D03*
X0017250Y0092650D03*
X0017250Y0087650D03*
X0017250Y0082650D03*
X0017250Y0077650D03*
X0017250Y0072650D03*
X0017250Y0067650D03*
X0017250Y0062650D03*
X0017250Y0057650D03*
D12*
X0050260Y0132650D03*
X0057740Y0132650D03*
X0102760Y0132650D03*
X0110240Y0132650D03*
X0155260Y0132650D03*
X0162740Y0132650D03*
X0207760Y0132650D03*
X0215240Y0132650D03*
D13*
X0215740Y0132723D02*
X0229750Y0132723D01*
X0229750Y0133721D02*
X0219299Y0133721D01*
X0219299Y0133150D02*
X0219299Y0135800D01*
X0219197Y0136182D01*
X0218999Y0136524D01*
X0218720Y0136803D01*
X0218378Y0137001D01*
X0217997Y0137103D01*
X0215740Y0137103D01*
X0215740Y0133150D01*
X0214740Y0133150D01*
X0214740Y0137103D01*
X0212484Y0137103D01*
X0212102Y0137001D01*
X0211760Y0136803D01*
X0211500Y0136543D01*
X0210940Y0137103D01*
X0204579Y0137103D01*
X0203701Y0136224D01*
X0203701Y0129076D01*
X0204077Y0128700D01*
X0170547Y0128700D01*
X0166797Y0124950D01*
X0166571Y0124950D01*
X0165871Y0125650D01*
X0159629Y0125650D01*
X0159441Y0125462D01*
X0157550Y0127353D01*
X0157550Y0128197D01*
X0158440Y0128197D01*
X0159000Y0128757D01*
X0159260Y0128497D01*
X0159602Y0128299D01*
X0159984Y0128197D01*
X0162240Y0128197D01*
X0162240Y0132150D01*
X0163240Y0132150D01*
X0163240Y0128197D01*
X0165497Y0128197D01*
X0165878Y0128299D01*
X0166220Y0128497D01*
X0166499Y0128776D01*
X0166697Y0129118D01*
X0166799Y0129500D01*
X0166799Y0132150D01*
X0163240Y0132150D01*
X0163240Y0133150D01*
X0162240Y0133150D01*
X0162240Y0137103D01*
X0159984Y0137103D01*
X0159602Y0137001D01*
X0159260Y0136803D01*
X0159000Y0136543D01*
X0158440Y0137103D01*
X0152079Y0137103D01*
X0151201Y0136224D01*
X0151201Y0129076D01*
X0151577Y0128700D01*
X0118047Y0128700D01*
X0116700Y0127353D01*
X0114297Y0124950D01*
X0114071Y0124950D01*
X0113371Y0125650D01*
X0107129Y0125650D01*
X0106941Y0125462D01*
X0105050Y0127353D01*
X0105050Y0128197D01*
X0105940Y0128197D01*
X0106500Y0128757D01*
X0106760Y0128497D01*
X0107102Y0128299D01*
X0107484Y0128197D01*
X0109740Y0128197D01*
X0109740Y0132150D01*
X0110740Y0132150D01*
X0110740Y0128197D01*
X0112997Y0128197D01*
X0113378Y0128299D01*
X0113720Y0128497D01*
X0113999Y0128776D01*
X0114197Y0129118D01*
X0114299Y0129500D01*
X0114299Y0132150D01*
X0110740Y0132150D01*
X0110740Y0133150D01*
X0109740Y0133150D01*
X0109740Y0137103D01*
X0107484Y0137103D01*
X0107102Y0137001D01*
X0106760Y0136803D01*
X0106500Y0136543D01*
X0105940Y0137103D01*
X0099579Y0137103D01*
X0098701Y0136224D01*
X0098701Y0129076D01*
X0099077Y0128700D01*
X0065547Y0128700D01*
X0064200Y0127353D01*
X0061797Y0124950D01*
X0061571Y0124950D01*
X0060871Y0125650D01*
X0054629Y0125650D01*
X0054441Y0125462D01*
X0052550Y0127353D01*
X0052550Y0128197D01*
X0053440Y0128197D01*
X0054000Y0128757D01*
X0054260Y0128497D01*
X0054602Y0128299D01*
X0054984Y0128197D01*
X0057240Y0128197D01*
X0057240Y0132150D01*
X0058240Y0132150D01*
X0058240Y0128197D01*
X0060497Y0128197D01*
X0060878Y0128299D01*
X0061220Y0128497D01*
X0061499Y0128776D01*
X0061697Y0129118D01*
X0061799Y0129500D01*
X0061799Y0132150D01*
X0058240Y0132150D01*
X0058240Y0133150D01*
X0057240Y0133150D01*
X0057240Y0137103D01*
X0054984Y0137103D01*
X0054602Y0137001D01*
X0054260Y0136803D01*
X0054000Y0136543D01*
X0053440Y0137103D01*
X0047079Y0137103D01*
X0046201Y0136224D01*
X0046201Y0129076D01*
X0047079Y0128197D01*
X0047950Y0128197D01*
X0047950Y0125447D01*
X0049297Y0124100D01*
X0053047Y0120350D01*
X0053929Y0120350D01*
X0054129Y0120150D01*
X0053750Y0119771D01*
X0053750Y0117050D01*
X0039787Y0117050D01*
X0038400Y0118437D01*
X0037287Y0119550D01*
X0021250Y0119550D01*
X0021250Y0119771D01*
X0020871Y0120150D01*
X0021250Y0120529D01*
X0021250Y0124771D01*
X0020371Y0125650D01*
X0014129Y0125650D01*
X0013250Y0124771D01*
X0013250Y0120529D01*
X0013629Y0120150D01*
X0013250Y0119771D01*
X0013250Y0115529D01*
X0013629Y0115150D01*
X0013250Y0114771D01*
X0013250Y0110529D01*
X0013629Y0110150D01*
X0013250Y0109771D01*
X0013250Y0105529D01*
X0013629Y0105150D01*
X0013250Y0104771D01*
X0013250Y0100529D01*
X0013629Y0100150D01*
X0013250Y0099771D01*
X0013250Y0095529D01*
X0013629Y0095150D01*
X0013250Y0094771D01*
X0013250Y0090529D01*
X0013333Y0090445D01*
X0012153Y0090934D01*
X0010847Y0090934D01*
X0009640Y0090434D01*
X0008716Y0089510D01*
X0008216Y0088303D01*
X0008216Y0086997D01*
X0008716Y0085790D01*
X0009640Y0084866D01*
X0010847Y0084366D01*
X0011779Y0084366D01*
X0010850Y0083437D01*
X0008347Y0080934D01*
X0007097Y0080934D01*
X0005890Y0080434D01*
X0004966Y0079510D01*
X0004466Y0078303D01*
X0004466Y0076997D01*
X0004966Y0075790D01*
X0005890Y0074866D01*
X0007097Y0074366D01*
X0008350Y0074366D01*
X0008350Y0040613D01*
X0009463Y0039500D01*
X0015813Y0033150D01*
X0003250Y0033150D01*
X0003250Y0132016D01*
X0003308Y0132087D01*
X0003250Y0132729D01*
X0003250Y0133375D01*
X0003247Y0133378D01*
X0003250Y0133819D01*
X0003849Y0135738D01*
X0005136Y0137283D01*
X0006916Y0138218D01*
X0007871Y0138400D01*
X0223366Y0138400D01*
X0223437Y0138342D01*
X0224079Y0138400D01*
X0224725Y0138400D01*
X0224728Y0138403D01*
X0225169Y0138400D01*
X0227088Y0137801D01*
X0228633Y0136514D01*
X0229568Y0134734D01*
X0229750Y0133779D01*
X0229750Y0033150D01*
X0213275Y0033150D01*
X0212250Y0032125D01*
X0212250Y0028900D01*
X0208800Y0028900D01*
X0208800Y0029197D01*
X0221203Y0041600D01*
X0222550Y0042947D01*
X0222550Y0122353D01*
X0221300Y0123603D01*
X0219953Y0124950D01*
X0219071Y0124950D01*
X0218371Y0125650D01*
X0212129Y0125650D01*
X0211941Y0125462D01*
X0210050Y0127353D01*
X0210050Y0128197D01*
X0210940Y0128197D01*
X0211500Y0128757D01*
X0211760Y0128497D01*
X0212102Y0128299D01*
X0212484Y0128197D01*
X0214740Y0128197D01*
X0214740Y0132150D01*
X0215740Y0132150D01*
X0215740Y0128197D01*
X0217997Y0128197D01*
X0218378Y0128299D01*
X0218720Y0128497D01*
X0218999Y0128776D01*
X0219197Y0129118D01*
X0219299Y0129500D01*
X0219299Y0132150D01*
X0215740Y0132150D01*
X0215740Y0133150D01*
X0219299Y0133150D01*
X0219299Y0131724D02*
X0229750Y0131724D01*
X0229750Y0130726D02*
X0219299Y0130726D01*
X0219299Y0129727D02*
X0229750Y0129727D01*
X0229750Y0128729D02*
X0218952Y0128729D01*
X0215740Y0128729D02*
X0214740Y0128729D01*
X0214740Y0129727D02*
X0215740Y0129727D01*
X0215740Y0130726D02*
X0214740Y0130726D01*
X0214740Y0131724D02*
X0215740Y0131724D01*
X0215740Y0133721D02*
X0214740Y0133721D01*
X0214740Y0134720D02*
X0215740Y0134720D01*
X0215740Y0135718D02*
X0214740Y0135718D01*
X0214740Y0136717D02*
X0215740Y0136717D01*
X0218806Y0136717D02*
X0228390Y0136717D01*
X0229051Y0135718D02*
X0219299Y0135718D01*
X0219299Y0134720D02*
X0229570Y0134720D01*
X0227192Y0137715D02*
X0005959Y0137715D01*
X0004664Y0136717D02*
X0046694Y0136717D01*
X0046201Y0135718D02*
X0003842Y0135718D01*
X0003531Y0134720D02*
X0046201Y0134720D01*
X0046201Y0133721D02*
X0003250Y0133721D01*
X0003251Y0132723D02*
X0046201Y0132723D01*
X0046201Y0131724D02*
X0003250Y0131724D01*
X0003250Y0130726D02*
X0046201Y0130726D01*
X0046201Y0129727D02*
X0003250Y0129727D01*
X0003250Y0128729D02*
X0046548Y0128729D01*
X0047950Y0127730D02*
X0003250Y0127730D01*
X0003250Y0126732D02*
X0047950Y0126732D01*
X0047950Y0125733D02*
X0003250Y0125733D01*
X0003250Y0124735D02*
X0013250Y0124735D01*
X0013250Y0123736D02*
X0003250Y0123736D01*
X0003250Y0122738D02*
X0013250Y0122738D01*
X0013250Y0121739D02*
X0003250Y0121739D01*
X0003250Y0120741D02*
X0013250Y0120741D01*
X0013250Y0119742D02*
X0003250Y0119742D01*
X0003250Y0118744D02*
X0013250Y0118744D01*
X0013250Y0117745D02*
X0003250Y0117745D01*
X0003250Y0116747D02*
X0013250Y0116747D01*
X0013250Y0115748D02*
X0003250Y0115748D01*
X0003250Y0114750D02*
X0013250Y0114750D01*
X0013250Y0113751D02*
X0003250Y0113751D01*
X0003250Y0112753D02*
X0013250Y0112753D01*
X0013250Y0111754D02*
X0003250Y0111754D01*
X0003250Y0110756D02*
X0013250Y0110756D01*
X0013250Y0109757D02*
X0003250Y0109757D01*
X0003250Y0108759D02*
X0013250Y0108759D01*
X0013250Y0107760D02*
X0003250Y0107760D01*
X0003250Y0106762D02*
X0013250Y0106762D01*
X0013250Y0105763D02*
X0003250Y0105763D01*
X0003250Y0104765D02*
X0013250Y0104765D01*
X0013250Y0103766D02*
X0003250Y0103766D01*
X0003250Y0102768D02*
X0013250Y0102768D01*
X0013250Y0101769D02*
X0003250Y0101769D01*
X0003250Y0100770D02*
X0013250Y0100770D01*
X0013251Y0099772D02*
X0003250Y0099772D01*
X0003250Y0098773D02*
X0013250Y0098773D01*
X0013250Y0097775D02*
X0003250Y0097775D01*
X0003250Y0096776D02*
X0013250Y0096776D01*
X0013250Y0095778D02*
X0003250Y0095778D01*
X0003250Y0094779D02*
X0013258Y0094779D01*
X0013250Y0093781D02*
X0003250Y0093781D01*
X0003250Y0092782D02*
X0013250Y0092782D01*
X0013250Y0091784D02*
X0003250Y0091784D01*
X0003250Y0090785D02*
X0010487Y0090785D01*
X0008992Y0089787D02*
X0003250Y0089787D01*
X0003250Y0088788D02*
X0008417Y0088788D01*
X0008216Y0087790D02*
X0003250Y0087790D01*
X0003250Y0086791D02*
X0008301Y0086791D01*
X0008714Y0085793D02*
X0003250Y0085793D01*
X0003250Y0084794D02*
X0009812Y0084794D01*
X0011209Y0083796D02*
X0003250Y0083796D01*
X0003250Y0082797D02*
X0010210Y0082797D01*
X0009212Y0081799D02*
X0003250Y0081799D01*
X0003250Y0080800D02*
X0006773Y0080800D01*
X0005257Y0079802D02*
X0003250Y0079802D01*
X0003250Y0078803D02*
X0004673Y0078803D01*
X0004466Y0077805D02*
X0003250Y0077805D01*
X0003250Y0076806D02*
X0004545Y0076806D01*
X0004958Y0075808D02*
X0003250Y0075808D01*
X0003250Y0074809D02*
X0006026Y0074809D01*
X0008350Y0073811D02*
X0003250Y0073811D01*
X0003250Y0072812D02*
X0008350Y0072812D01*
X0008350Y0071814D02*
X0003250Y0071814D01*
X0003250Y0070815D02*
X0008350Y0070815D01*
X0008350Y0069817D02*
X0003250Y0069817D01*
X0003250Y0068818D02*
X0008350Y0068818D01*
X0008350Y0067820D02*
X0003250Y0067820D01*
X0003250Y0066821D02*
X0008350Y0066821D01*
X0008350Y0065823D02*
X0003250Y0065823D01*
X0003250Y0064824D02*
X0008350Y0064824D01*
X0008350Y0063826D02*
X0003250Y0063826D01*
X0003250Y0062827D02*
X0008350Y0062827D01*
X0008350Y0061829D02*
X0003250Y0061829D01*
X0003250Y0060830D02*
X0008350Y0060830D01*
X0008350Y0059832D02*
X0003250Y0059832D01*
X0003250Y0058833D02*
X0008350Y0058833D01*
X0008350Y0057834D02*
X0003250Y0057834D01*
X0003250Y0056836D02*
X0008350Y0056836D01*
X0008350Y0055837D02*
X0003250Y0055837D01*
X0003250Y0054839D02*
X0008350Y0054839D01*
X0008350Y0053840D02*
X0003250Y0053840D01*
X0003250Y0052842D02*
X0008350Y0052842D01*
X0008350Y0051843D02*
X0003250Y0051843D01*
X0003250Y0050845D02*
X0008350Y0050845D01*
X0008350Y0049846D02*
X0003250Y0049846D01*
X0003250Y0048848D02*
X0008350Y0048848D01*
X0008350Y0047849D02*
X0003250Y0047849D01*
X0003250Y0046851D02*
X0008350Y0046851D01*
X0008350Y0045852D02*
X0003250Y0045852D01*
X0003250Y0044854D02*
X0008350Y0044854D01*
X0008350Y0043855D02*
X0003250Y0043855D01*
X0003250Y0042857D02*
X0008350Y0042857D01*
X0008350Y0041858D02*
X0003250Y0041858D01*
X0003250Y0040860D02*
X0008350Y0040860D01*
X0009102Y0039861D02*
X0003250Y0039861D01*
X0003250Y0038863D02*
X0010100Y0038863D01*
X0011099Y0037864D02*
X0003250Y0037864D01*
X0003250Y0036866D02*
X0012097Y0036866D01*
X0013096Y0035867D02*
X0003250Y0035867D01*
X0003250Y0034869D02*
X0014094Y0034869D01*
X0015093Y0033870D02*
X0003250Y0033870D01*
X0012150Y0050439D02*
X0012150Y0074363D01*
X0013283Y0075496D01*
X0013629Y0075150D01*
X0013250Y0074771D01*
X0013250Y0070529D01*
X0013629Y0070150D01*
X0013250Y0069771D01*
X0013250Y0065529D01*
X0013629Y0065150D01*
X0013250Y0064771D01*
X0013250Y0060529D01*
X0013629Y0060150D01*
X0013550Y0060071D01*
X0013352Y0059729D01*
X0013250Y0059347D01*
X0013250Y0057900D01*
X0017000Y0057900D01*
X0017000Y0057400D01*
X0017500Y0057400D01*
X0017500Y0057900D01*
X0021250Y0057900D01*
X0021250Y0059347D01*
X0021148Y0059729D01*
X0020950Y0060071D01*
X0020871Y0060150D01*
X0021250Y0060529D01*
X0021250Y0060750D01*
X0027505Y0060750D01*
X0028390Y0059866D01*
X0029597Y0059366D01*
X0030903Y0059366D01*
X0031227Y0059500D01*
X0042461Y0059500D01*
X0041966Y0058303D01*
X0041966Y0056997D01*
X0042466Y0055790D01*
X0043390Y0054866D01*
X0044597Y0054366D01*
X0045903Y0054366D01*
X0046227Y0054500D01*
X0053537Y0054500D01*
X0054158Y0055121D01*
X0054629Y0054650D01*
X0060871Y0054650D01*
X0061750Y0055529D01*
X0061750Y0055750D01*
X0063537Y0055750D01*
X0065750Y0057963D01*
X0065750Y0057900D01*
X0069500Y0057900D01*
X0069500Y0057400D01*
X0070000Y0057400D01*
X0070000Y0057900D01*
X0073563Y0057900D01*
X0074600Y0056863D01*
X0075713Y0055750D01*
X0106250Y0055750D01*
X0106250Y0055529D01*
X0107129Y0054650D01*
X0113371Y0054650D01*
X0114250Y0055529D01*
X0114250Y0055750D01*
X0116037Y0055750D01*
X0118250Y0057963D01*
X0118250Y0057900D01*
X0122000Y0057900D01*
X0122000Y0057400D01*
X0122500Y0057400D01*
X0122500Y0057900D01*
X0126250Y0057900D01*
X0126250Y0058250D01*
X0126963Y0058250D01*
X0128350Y0056863D01*
X0129463Y0055750D01*
X0158750Y0055750D01*
X0158750Y0055529D01*
X0159629Y0054650D01*
X0165871Y0054650D01*
X0166750Y0055529D01*
X0166750Y0055750D01*
X0168537Y0055750D01*
X0170750Y0057963D01*
X0170750Y0057900D01*
X0174500Y0057900D01*
X0174500Y0057400D01*
X0175000Y0057400D01*
X0175000Y0057900D01*
X0178750Y0057900D01*
X0178750Y0058250D01*
X0193213Y0058250D01*
X0194600Y0056863D01*
X0195713Y0055750D01*
X0211250Y0055750D01*
X0211250Y0055529D01*
X0212129Y0054650D01*
X0217950Y0054650D01*
X0217950Y0044853D01*
X0208315Y0035218D01*
X0208534Y0035747D01*
X0208534Y0037053D01*
X0208034Y0038260D01*
X0207110Y0039184D01*
X0205903Y0039684D01*
X0204784Y0039684D01*
X0204784Y0040803D01*
X0204284Y0042010D01*
X0203360Y0042934D01*
X0202153Y0043434D01*
X0200980Y0043434D01*
X0200534Y0044510D01*
X0199610Y0045434D01*
X0198403Y0045934D01*
X0197230Y0045934D01*
X0196784Y0047010D01*
X0195860Y0047934D01*
X0194653Y0048434D01*
X0193480Y0048434D01*
X0193034Y0049510D01*
X0192110Y0050434D01*
X0190903Y0050934D01*
X0189730Y0050934D01*
X0189284Y0052010D01*
X0188360Y0052934D01*
X0187153Y0053434D01*
X0185980Y0053434D01*
X0185534Y0054510D01*
X0184610Y0055434D01*
X0183403Y0055934D01*
X0182097Y0055934D01*
X0180890Y0055434D01*
X0179966Y0054510D01*
X0179466Y0053303D01*
X0179466Y0053300D01*
X0121963Y0053300D01*
X0120850Y0052187D01*
X0114600Y0045937D01*
X0114600Y0028900D01*
X0108400Y0028900D01*
X0108400Y0030937D01*
X0107287Y0032050D01*
X0091037Y0048300D01*
X0047287Y0048300D01*
X0039787Y0055800D01*
X0028534Y0055800D01*
X0028534Y0055803D01*
X0028034Y0057010D01*
X0027110Y0057934D01*
X0025903Y0058434D01*
X0024597Y0058434D01*
X0023390Y0057934D01*
X0022466Y0057010D01*
X0022020Y0055934D01*
X0021245Y0055934D01*
X0021250Y0055953D01*
X0021250Y0057400D01*
X0017500Y0057400D01*
X0017500Y0054650D01*
X0018855Y0054650D01*
X0018716Y0054510D01*
X0018270Y0053434D01*
X0017097Y0053434D01*
X0015890Y0052934D01*
X0014966Y0052010D01*
X0014520Y0050934D01*
X0013347Y0050934D01*
X0012150Y0050439D01*
X0012150Y0050845D02*
X0013131Y0050845D01*
X0012150Y0051843D02*
X0014897Y0051843D01*
X0015797Y0052842D02*
X0012150Y0052842D01*
X0012150Y0053840D02*
X0018438Y0053840D01*
X0017500Y0054839D02*
X0017000Y0054839D01*
X0017000Y0054650D02*
X0017000Y0057400D01*
X0013250Y0057400D01*
X0013250Y0055953D01*
X0013352Y0055571D01*
X0013550Y0055229D01*
X0013829Y0054950D01*
X0014171Y0054752D01*
X0014553Y0054650D01*
X0017000Y0054650D01*
X0017000Y0055837D02*
X0017500Y0055837D01*
X0017500Y0056836D02*
X0017000Y0056836D01*
X0017000Y0057834D02*
X0012150Y0057834D01*
X0012150Y0056836D02*
X0013250Y0056836D01*
X0013281Y0055837D02*
X0012150Y0055837D01*
X0012150Y0054839D02*
X0014021Y0054839D01*
X0017500Y0057834D02*
X0023290Y0057834D01*
X0022394Y0056836D02*
X0021250Y0056836D01*
X0021250Y0058833D02*
X0042185Y0058833D01*
X0041966Y0057834D02*
X0027210Y0057834D01*
X0028106Y0056836D02*
X0042032Y0056836D01*
X0042446Y0055837D02*
X0028520Y0055837D01*
X0028472Y0059832D02*
X0021089Y0059832D01*
X0013411Y0059832D02*
X0012150Y0059832D01*
X0012150Y0060830D02*
X0013250Y0060830D01*
X0013250Y0061829D02*
X0012150Y0061829D01*
X0012150Y0062827D02*
X0013250Y0062827D01*
X0013250Y0063826D02*
X0012150Y0063826D01*
X0012150Y0064824D02*
X0013303Y0064824D01*
X0013250Y0065823D02*
X0012150Y0065823D01*
X0012150Y0066821D02*
X0013250Y0066821D01*
X0013250Y0067820D02*
X0012150Y0067820D01*
X0012150Y0068818D02*
X0013250Y0068818D01*
X0013295Y0069817D02*
X0012150Y0069817D01*
X0012150Y0070815D02*
X0013250Y0070815D01*
X0013250Y0071814D02*
X0012150Y0071814D01*
X0012150Y0072812D02*
X0013250Y0072812D01*
X0013250Y0073811D02*
X0012150Y0073811D01*
X0012596Y0074809D02*
X0013288Y0074809D01*
X0013250Y0058833D02*
X0012150Y0058833D01*
X0040748Y0054839D02*
X0043454Y0054839D01*
X0041747Y0053840D02*
X0179688Y0053840D01*
X0180294Y0054839D02*
X0177979Y0054839D01*
X0177829Y0054752D02*
X0178171Y0054950D01*
X0178450Y0055229D01*
X0178648Y0055571D01*
X0178750Y0055953D01*
X0178750Y0057400D01*
X0175000Y0057400D01*
X0175000Y0054650D01*
X0177447Y0054650D01*
X0177829Y0054752D01*
X0178719Y0055837D02*
X0181863Y0055837D01*
X0183637Y0055837D02*
X0195626Y0055837D01*
X0194627Y0056836D02*
X0178750Y0056836D01*
X0175000Y0056836D02*
X0174500Y0056836D01*
X0174500Y0057400D02*
X0174500Y0054650D01*
X0172053Y0054650D01*
X0171671Y0054752D01*
X0171329Y0054950D01*
X0171050Y0055229D01*
X0170852Y0055571D01*
X0170750Y0055953D01*
X0170750Y0057400D01*
X0174500Y0057400D01*
X0174500Y0057834D02*
X0170621Y0057834D01*
X0170750Y0056836D02*
X0169623Y0056836D01*
X0168624Y0055837D02*
X0170781Y0055837D01*
X0171521Y0054839D02*
X0166060Y0054839D01*
X0159440Y0054839D02*
X0125479Y0054839D01*
X0125329Y0054752D02*
X0125671Y0054950D01*
X0125950Y0055229D01*
X0126148Y0055571D01*
X0126250Y0055953D01*
X0126250Y0057400D01*
X0122500Y0057400D01*
X0122500Y0054650D01*
X0124947Y0054650D01*
X0125329Y0054752D01*
X0126219Y0055837D02*
X0129376Y0055837D01*
X0128377Y0056836D02*
X0126250Y0056836D01*
X0127378Y0057834D02*
X0122500Y0057834D01*
X0122000Y0057834D02*
X0118121Y0057834D01*
X0118250Y0057400D02*
X0118250Y0055953D01*
X0118352Y0055571D01*
X0118550Y0055229D01*
X0118829Y0054950D01*
X0119171Y0054752D01*
X0119553Y0054650D01*
X0122000Y0054650D01*
X0122000Y0057400D01*
X0118250Y0057400D01*
X0118250Y0056836D02*
X0117123Y0056836D01*
X0116124Y0055837D02*
X0118281Y0055837D01*
X0119021Y0054839D02*
X0113560Y0054839D01*
X0106940Y0054839D02*
X0072979Y0054839D01*
X0072829Y0054752D02*
X0073171Y0054950D01*
X0073450Y0055229D01*
X0073648Y0055571D01*
X0073750Y0055953D01*
X0073750Y0057400D01*
X0070000Y0057400D01*
X0070000Y0054650D01*
X0072447Y0054650D01*
X0072829Y0054752D01*
X0073719Y0055837D02*
X0075626Y0055837D01*
X0074627Y0056836D02*
X0073750Y0056836D01*
X0073628Y0057834D02*
X0070000Y0057834D01*
X0069500Y0057834D02*
X0065621Y0057834D01*
X0065750Y0057400D02*
X0065750Y0055953D01*
X0065852Y0055571D01*
X0066050Y0055229D01*
X0066329Y0054950D01*
X0066671Y0054752D01*
X0067053Y0054650D01*
X0069500Y0054650D01*
X0069500Y0057400D01*
X0065750Y0057400D01*
X0065750Y0056836D02*
X0064623Y0056836D01*
X0063624Y0055837D02*
X0065781Y0055837D01*
X0066521Y0054839D02*
X0061060Y0054839D01*
X0054440Y0054839D02*
X0053876Y0054839D01*
X0046739Y0048848D02*
X0117511Y0048848D01*
X0118509Y0049846D02*
X0045741Y0049846D01*
X0044742Y0050845D02*
X0119508Y0050845D01*
X0120506Y0051843D02*
X0043744Y0051843D01*
X0042745Y0052842D02*
X0121505Y0052842D01*
X0122000Y0054839D02*
X0122500Y0054839D01*
X0122500Y0055837D02*
X0122000Y0055837D01*
X0122000Y0056836D02*
X0122500Y0056836D01*
X0116512Y0047849D02*
X0091488Y0047849D01*
X0092486Y0046851D02*
X0115514Y0046851D01*
X0114600Y0045852D02*
X0093485Y0045852D01*
X0094483Y0044854D02*
X0114600Y0044854D01*
X0114600Y0043855D02*
X0095482Y0043855D01*
X0096480Y0042857D02*
X0114600Y0042857D01*
X0114600Y0041858D02*
X0097479Y0041858D01*
X0098477Y0040860D02*
X0114600Y0040860D01*
X0114600Y0039861D02*
X0099476Y0039861D01*
X0100474Y0038863D02*
X0114600Y0038863D01*
X0114600Y0037864D02*
X0101473Y0037864D01*
X0102471Y0036866D02*
X0114600Y0036866D01*
X0114600Y0035867D02*
X0103470Y0035867D01*
X0104468Y0034869D02*
X0114600Y0034869D01*
X0114600Y0033870D02*
X0105467Y0033870D01*
X0106465Y0032872D02*
X0114600Y0032872D01*
X0114600Y0031873D02*
X0107464Y0031873D01*
X0108400Y0030875D02*
X0114600Y0030875D01*
X0114600Y0029876D02*
X0108400Y0029876D01*
X0070000Y0054839D02*
X0069500Y0054839D01*
X0069500Y0055837D02*
X0070000Y0055837D01*
X0070000Y0056836D02*
X0069500Y0056836D01*
X0013250Y0090785D02*
X0012513Y0090785D01*
X0039092Y0117745D02*
X0053750Y0117745D01*
X0053750Y0118744D02*
X0038093Y0118744D01*
X0038400Y0118437D02*
X0038400Y0118437D01*
X0048663Y0124735D02*
X0021250Y0124735D01*
X0021250Y0123736D02*
X0049661Y0123736D01*
X0050660Y0122738D02*
X0021250Y0122738D01*
X0021250Y0121739D02*
X0051658Y0121739D01*
X0052657Y0120741D02*
X0021250Y0120741D01*
X0021250Y0119742D02*
X0053750Y0119742D01*
X0054169Y0125733D02*
X0062581Y0125733D01*
X0063579Y0126732D02*
X0053171Y0126732D01*
X0052550Y0127730D02*
X0064578Y0127730D01*
X0061452Y0128729D02*
X0099048Y0128729D01*
X0098701Y0129727D02*
X0061799Y0129727D01*
X0061799Y0130726D02*
X0098701Y0130726D01*
X0098701Y0131724D02*
X0061799Y0131724D01*
X0061799Y0133150D02*
X0061799Y0135800D01*
X0061697Y0136182D01*
X0061499Y0136524D01*
X0061220Y0136803D01*
X0060878Y0137001D01*
X0060497Y0137103D01*
X0058240Y0137103D01*
X0058240Y0133150D01*
X0061799Y0133150D01*
X0061799Y0133721D02*
X0098701Y0133721D01*
X0098701Y0132723D02*
X0058240Y0132723D01*
X0058240Y0133721D02*
X0057240Y0133721D01*
X0057240Y0134720D02*
X0058240Y0134720D01*
X0058240Y0135718D02*
X0057240Y0135718D01*
X0057240Y0136717D02*
X0058240Y0136717D01*
X0054174Y0136717D02*
X0053826Y0136717D01*
X0061306Y0136717D02*
X0099194Y0136717D01*
X0098701Y0135718D02*
X0061799Y0135718D01*
X0061799Y0134720D02*
X0098701Y0134720D01*
X0106326Y0136717D02*
X0106674Y0136717D01*
X0109740Y0136717D02*
X0110740Y0136717D01*
X0110740Y0137103D02*
X0110740Y0133150D01*
X0114299Y0133150D01*
X0114299Y0135800D01*
X0114197Y0136182D01*
X0113999Y0136524D01*
X0113720Y0136803D01*
X0113378Y0137001D01*
X0112997Y0137103D01*
X0110740Y0137103D01*
X0110740Y0135718D02*
X0109740Y0135718D01*
X0109740Y0134720D02*
X0110740Y0134720D01*
X0110740Y0133721D02*
X0109740Y0133721D01*
X0110740Y0132723D02*
X0151201Y0132723D01*
X0151201Y0133721D02*
X0114299Y0133721D01*
X0114299Y0134720D02*
X0151201Y0134720D01*
X0151201Y0135718D02*
X0114299Y0135718D01*
X0113806Y0136717D02*
X0151694Y0136717D01*
X0158826Y0136717D02*
X0159174Y0136717D01*
X0162240Y0136717D02*
X0163240Y0136717D01*
X0163240Y0137103D02*
X0163240Y0133150D01*
X0166799Y0133150D01*
X0166799Y0135800D01*
X0166697Y0136182D01*
X0166499Y0136524D01*
X0166220Y0136803D01*
X0165878Y0137001D01*
X0165497Y0137103D01*
X0163240Y0137103D01*
X0163240Y0135718D02*
X0162240Y0135718D01*
X0162240Y0134720D02*
X0163240Y0134720D01*
X0163240Y0133721D02*
X0162240Y0133721D01*
X0163240Y0132723D02*
X0203701Y0132723D01*
X0203701Y0133721D02*
X0166799Y0133721D01*
X0166799Y0134720D02*
X0203701Y0134720D01*
X0203701Y0135718D02*
X0166799Y0135718D01*
X0166306Y0136717D02*
X0204194Y0136717D01*
X0211326Y0136717D02*
X0211674Y0136717D01*
X0203701Y0131724D02*
X0166799Y0131724D01*
X0166799Y0130726D02*
X0203701Y0130726D01*
X0203701Y0129727D02*
X0166799Y0129727D01*
X0166452Y0128729D02*
X0204048Y0128729D01*
X0210050Y0127730D02*
X0229750Y0127730D01*
X0229750Y0126732D02*
X0210671Y0126732D01*
X0211669Y0125733D02*
X0229750Y0125733D01*
X0229750Y0124735D02*
X0220168Y0124735D01*
X0221166Y0123736D02*
X0229750Y0123736D01*
X0229750Y0122738D02*
X0222165Y0122738D01*
X0222550Y0121739D02*
X0229750Y0121739D01*
X0229750Y0120741D02*
X0222550Y0120741D01*
X0222550Y0119742D02*
X0229750Y0119742D01*
X0229750Y0118744D02*
X0222550Y0118744D01*
X0222550Y0117745D02*
X0229750Y0117745D01*
X0229750Y0116747D02*
X0222550Y0116747D01*
X0222550Y0115748D02*
X0229750Y0115748D01*
X0229750Y0114750D02*
X0222550Y0114750D01*
X0222550Y0113751D02*
X0229750Y0113751D01*
X0229750Y0112753D02*
X0222550Y0112753D01*
X0222550Y0111754D02*
X0229750Y0111754D01*
X0229750Y0110756D02*
X0222550Y0110756D01*
X0222550Y0109757D02*
X0229750Y0109757D01*
X0229750Y0108759D02*
X0222550Y0108759D01*
X0222550Y0107760D02*
X0229750Y0107760D01*
X0229750Y0106762D02*
X0222550Y0106762D01*
X0222550Y0105763D02*
X0229750Y0105763D01*
X0229750Y0104765D02*
X0222550Y0104765D01*
X0222550Y0103766D02*
X0229750Y0103766D01*
X0229750Y0102768D02*
X0222550Y0102768D01*
X0222550Y0101769D02*
X0229750Y0101769D01*
X0229750Y0100770D02*
X0222550Y0100770D01*
X0222550Y0099772D02*
X0229750Y0099772D01*
X0229750Y0098773D02*
X0222550Y0098773D01*
X0222550Y0097775D02*
X0229750Y0097775D01*
X0229750Y0096776D02*
X0222550Y0096776D01*
X0222550Y0095778D02*
X0229750Y0095778D01*
X0229750Y0094779D02*
X0222550Y0094779D01*
X0222550Y0093781D02*
X0229750Y0093781D01*
X0229750Y0092782D02*
X0222550Y0092782D01*
X0222550Y0091784D02*
X0229750Y0091784D01*
X0229750Y0090785D02*
X0222550Y0090785D01*
X0222550Y0089787D02*
X0229750Y0089787D01*
X0229750Y0088788D02*
X0222550Y0088788D01*
X0222550Y0087790D02*
X0229750Y0087790D01*
X0229750Y0086791D02*
X0222550Y0086791D01*
X0222550Y0085793D02*
X0229750Y0085793D01*
X0229750Y0084794D02*
X0222550Y0084794D01*
X0222550Y0083796D02*
X0229750Y0083796D01*
X0229750Y0082797D02*
X0222550Y0082797D01*
X0222550Y0081799D02*
X0229750Y0081799D01*
X0229750Y0080800D02*
X0222550Y0080800D01*
X0222550Y0079802D02*
X0229750Y0079802D01*
X0229750Y0078803D02*
X0222550Y0078803D01*
X0222550Y0077805D02*
X0229750Y0077805D01*
X0229750Y0076806D02*
X0222550Y0076806D01*
X0222550Y0075808D02*
X0229750Y0075808D01*
X0229750Y0074809D02*
X0222550Y0074809D01*
X0222550Y0073811D02*
X0229750Y0073811D01*
X0229750Y0072812D02*
X0222550Y0072812D01*
X0222550Y0071814D02*
X0229750Y0071814D01*
X0229750Y0070815D02*
X0222550Y0070815D01*
X0222550Y0069817D02*
X0229750Y0069817D01*
X0229750Y0068818D02*
X0222550Y0068818D01*
X0222550Y0067820D02*
X0229750Y0067820D01*
X0229750Y0066821D02*
X0222550Y0066821D01*
X0222550Y0065823D02*
X0229750Y0065823D01*
X0229750Y0064824D02*
X0222550Y0064824D01*
X0222550Y0063826D02*
X0229750Y0063826D01*
X0229750Y0062827D02*
X0222550Y0062827D01*
X0222550Y0061829D02*
X0229750Y0061829D01*
X0229750Y0060830D02*
X0222550Y0060830D01*
X0222550Y0059832D02*
X0229750Y0059832D01*
X0229750Y0058833D02*
X0222550Y0058833D01*
X0222550Y0057834D02*
X0229750Y0057834D01*
X0229750Y0056836D02*
X0222550Y0056836D01*
X0222550Y0055837D02*
X0229750Y0055837D01*
X0229750Y0054839D02*
X0222550Y0054839D01*
X0222550Y0053840D02*
X0229750Y0053840D01*
X0229750Y0052842D02*
X0222550Y0052842D01*
X0222550Y0051843D02*
X0229750Y0051843D01*
X0229750Y0050845D02*
X0222550Y0050845D01*
X0222550Y0049846D02*
X0229750Y0049846D01*
X0229750Y0048848D02*
X0222550Y0048848D01*
X0222550Y0047849D02*
X0229750Y0047849D01*
X0229750Y0046851D02*
X0222550Y0046851D01*
X0222550Y0045852D02*
X0229750Y0045852D01*
X0229750Y0044854D02*
X0222550Y0044854D01*
X0222550Y0043855D02*
X0229750Y0043855D01*
X0229750Y0042857D02*
X0222460Y0042857D01*
X0221461Y0041858D02*
X0229750Y0041858D01*
X0229750Y0040860D02*
X0220462Y0040860D01*
X0219464Y0039861D02*
X0229750Y0039861D01*
X0229750Y0038863D02*
X0218465Y0038863D01*
X0217467Y0037864D02*
X0229750Y0037864D01*
X0229750Y0036866D02*
X0216468Y0036866D01*
X0215470Y0035867D02*
X0229750Y0035867D01*
X0229750Y0034869D02*
X0214471Y0034869D01*
X0213473Y0033870D02*
X0229750Y0033870D01*
X0214956Y0041858D02*
X0204347Y0041858D01*
X0204761Y0040860D02*
X0213957Y0040860D01*
X0212959Y0039861D02*
X0204784Y0039861D01*
X0207432Y0038863D02*
X0211960Y0038863D01*
X0210962Y0037864D02*
X0208198Y0037864D01*
X0208534Y0036866D02*
X0209963Y0036866D01*
X0208965Y0035867D02*
X0208534Y0035867D01*
X0212474Y0032872D02*
X0212997Y0032872D01*
X0212250Y0031873D02*
X0211476Y0031873D01*
X0212250Y0030875D02*
X0210477Y0030875D01*
X0209479Y0029876D02*
X0212250Y0029876D01*
X0215954Y0042857D02*
X0203438Y0042857D01*
X0200806Y0043855D02*
X0216953Y0043855D01*
X0217950Y0044854D02*
X0200191Y0044854D01*
X0198601Y0045852D02*
X0217950Y0045852D01*
X0217950Y0046851D02*
X0196850Y0046851D01*
X0195945Y0047849D02*
X0217950Y0047849D01*
X0217950Y0048848D02*
X0193309Y0048848D01*
X0192698Y0049846D02*
X0217950Y0049846D01*
X0217950Y0050845D02*
X0191119Y0050845D01*
X0189353Y0051843D02*
X0217950Y0051843D01*
X0217950Y0052842D02*
X0188453Y0052842D01*
X0185812Y0053840D02*
X0217950Y0053840D01*
X0211940Y0054839D02*
X0185206Y0054839D01*
X0193628Y0057834D02*
X0175000Y0057834D01*
X0175000Y0055837D02*
X0174500Y0055837D01*
X0174500Y0054839D02*
X0175000Y0054839D01*
X0167581Y0125733D02*
X0159169Y0125733D01*
X0158171Y0126732D02*
X0168579Y0126732D01*
X0169578Y0127730D02*
X0157550Y0127730D01*
X0158972Y0128729D02*
X0159028Y0128729D01*
X0162240Y0128729D02*
X0163240Y0128729D01*
X0163240Y0129727D02*
X0162240Y0129727D01*
X0162240Y0130726D02*
X0163240Y0130726D01*
X0163240Y0131724D02*
X0162240Y0131724D01*
X0151548Y0128729D02*
X0113952Y0128729D01*
X0114299Y0129727D02*
X0151201Y0129727D01*
X0151201Y0130726D02*
X0114299Y0130726D01*
X0114299Y0131724D02*
X0151201Y0131724D01*
X0117078Y0127730D02*
X0105050Y0127730D01*
X0105671Y0126732D02*
X0116079Y0126732D01*
X0115081Y0125733D02*
X0106669Y0125733D01*
X0106528Y0128729D02*
X0106472Y0128729D01*
X0109740Y0128729D02*
X0110740Y0128729D01*
X0110740Y0129727D02*
X0109740Y0129727D01*
X0109740Y0130726D02*
X0110740Y0130726D01*
X0110740Y0131724D02*
X0109740Y0131724D01*
X0058240Y0131724D02*
X0057240Y0131724D01*
X0057240Y0130726D02*
X0058240Y0130726D01*
X0058240Y0129727D02*
X0057240Y0129727D01*
X0057240Y0128729D02*
X0058240Y0128729D01*
X0054028Y0128729D02*
X0053972Y0128729D01*
X0211472Y0128729D02*
X0211528Y0128729D01*
D14*
X0199000Y0132650D03*
X0205250Y0117650D03*
X0225250Y0111400D03*
X0201500Y0092650D03*
X0194000Y0100150D03*
X0186500Y0105150D03*
X0182750Y0110150D03*
X0185250Y0117650D03*
X0171500Y0132650D03*
X0146500Y0132650D03*
X0119000Y0132650D03*
X0091500Y0132650D03*
X0066500Y0132650D03*
X0049000Y0120150D03*
X0050250Y0110150D03*
X0046500Y0105150D03*
X0042750Y0100150D03*
X0039000Y0095150D03*
X0025250Y0092650D03*
X0011500Y0087650D03*
X0006500Y0083900D03*
X0007750Y0077650D03*
X0025250Y0072650D03*
X0027750Y0067650D03*
X0030250Y0062650D03*
X0037750Y0070150D03*
X0045250Y0067650D03*
X0050250Y0062650D03*
X0045250Y0057650D03*
X0025250Y0055150D03*
X0021500Y0052650D03*
X0017750Y0050150D03*
X0014000Y0047650D03*
X0014000Y0042650D03*
X0017750Y0040150D03*
X0021500Y0037650D03*
X0006500Y0035150D03*
X0032750Y0075150D03*
X0080250Y0083900D03*
X0096500Y0083900D03*
X0136500Y0083900D03*
X0180250Y0085150D03*
X0190250Y0090150D03*
X0225250Y0091400D03*
X0225250Y0076400D03*
X0225250Y0063900D03*
X0214000Y0051400D03*
X0210250Y0046400D03*
X0201500Y0040150D03*
X0197750Y0042650D03*
X0194000Y0045150D03*
X0190250Y0047650D03*
X0186500Y0050150D03*
X0182750Y0052650D03*
X0205250Y0036400D03*
X0219000Y0035150D03*
X0226500Y0035150D03*
X0225250Y0050150D03*
X0111500Y0045150D03*
X0111500Y0032650D03*
X0009000Y0127650D03*
X0016500Y0132650D03*
X0041500Y0132650D03*
X0224000Y0131400D03*
D15*
X0215250Y0117650D02*
X0205250Y0117650D01*
X0196500Y0117650D01*
X0192750Y0121400D01*
X0181500Y0121400D01*
X0180250Y0120150D01*
X0170250Y0120150D01*
X0167750Y0117650D01*
X0162750Y0117650D01*
X0157750Y0117650D01*
X0155250Y0120150D01*
X0117750Y0120150D01*
X0115250Y0117650D01*
X0110250Y0117650D01*
X0106500Y0117650D01*
X0104000Y0120150D01*
X0065250Y0120150D01*
X0062750Y0117650D01*
X0057750Y0117650D01*
X0062750Y0115150D02*
X0039000Y0115150D01*
X0036500Y0117650D01*
X0017250Y0117650D01*
X0017250Y0112650D02*
X0036500Y0112650D01*
X0039000Y0110150D01*
X0050250Y0110150D01*
X0062750Y0110150D01*
X0065250Y0112650D01*
X0069750Y0112650D01*
X0104000Y0112650D01*
X0106500Y0110150D01*
X0115250Y0110150D01*
X0117750Y0112650D01*
X0122250Y0112650D01*
X0155250Y0112650D01*
X0157750Y0110150D01*
X0167750Y0110150D01*
X0170250Y0112650D01*
X0174750Y0112650D01*
X0170250Y0110150D02*
X0182750Y0110150D01*
X0194000Y0110150D01*
X0196500Y0107650D01*
X0215250Y0107650D01*
X0215250Y0102650D02*
X0196500Y0102650D01*
X0194000Y0105150D01*
X0186500Y0105150D01*
X0170250Y0105150D01*
X0167750Y0102650D01*
X0162750Y0102650D01*
X0157750Y0102650D01*
X0155250Y0105150D01*
X0117750Y0105150D01*
X0115250Y0102650D01*
X0110250Y0102650D01*
X0106500Y0102650D01*
X0104000Y0105150D01*
X0065250Y0105150D01*
X0062750Y0102650D01*
X0057750Y0102650D01*
X0062750Y0100150D02*
X0042750Y0100150D01*
X0039000Y0100150D01*
X0036500Y0102650D01*
X0017250Y0102650D01*
X0017250Y0107650D02*
X0036500Y0107650D01*
X0039000Y0105150D01*
X0046500Y0105150D01*
X0062750Y0105150D01*
X0065250Y0107650D01*
X0069750Y0107650D01*
X0104000Y0107650D01*
X0106500Y0105150D01*
X0115250Y0105150D01*
X0117750Y0107650D01*
X0122250Y0107650D01*
X0155250Y0107650D01*
X0157750Y0105150D01*
X0167750Y0105150D01*
X0170250Y0107650D01*
X0174750Y0107650D01*
X0170250Y0110150D02*
X0167750Y0107650D01*
X0162750Y0107650D01*
X0157750Y0107650D01*
X0155250Y0110150D01*
X0117750Y0110150D01*
X0115250Y0107650D01*
X0110250Y0107650D01*
X0106500Y0107650D01*
X0104000Y0110150D01*
X0065250Y0110150D01*
X0062750Y0107650D01*
X0057750Y0107650D01*
X0057750Y0112650D02*
X0062750Y0112650D01*
X0065250Y0115150D01*
X0104000Y0115150D01*
X0106500Y0112650D01*
X0110250Y0112650D01*
X0115250Y0112650D01*
X0117750Y0115150D01*
X0155250Y0115150D01*
X0157750Y0112650D01*
X0162750Y0112650D01*
X0167750Y0112650D01*
X0170250Y0115150D01*
X0180250Y0115150D01*
X0181500Y0113900D01*
X0195250Y0113900D01*
X0196500Y0112650D01*
X0215250Y0112650D01*
X0220250Y0112650D01*
X0215250Y0097650D02*
X0196500Y0097650D01*
X0194000Y0100150D01*
X0170250Y0100150D01*
X0167750Y0097650D01*
X0162750Y0097650D01*
X0157750Y0097650D01*
X0155250Y0100150D01*
X0117750Y0100150D01*
X0115250Y0097650D01*
X0110250Y0097650D01*
X0106500Y0097650D01*
X0104000Y0100150D01*
X0065250Y0100150D01*
X0062750Y0097650D01*
X0057750Y0097650D01*
X0062750Y0100150D02*
X0065250Y0102650D01*
X0069750Y0102650D01*
X0104000Y0102650D01*
X0106500Y0100150D01*
X0115250Y0100150D01*
X0117750Y0102650D01*
X0122250Y0102650D01*
X0155250Y0102650D01*
X0157750Y0100150D01*
X0167750Y0100150D01*
X0170250Y0102650D01*
X0174750Y0102650D01*
X0174750Y0097650D02*
X0170250Y0097650D01*
X0167750Y0095150D01*
X0157750Y0095150D01*
X0155250Y0097650D01*
X0122250Y0097650D01*
X0117750Y0097650D01*
X0115250Y0095150D01*
X0106500Y0095150D01*
X0104000Y0097650D01*
X0069750Y0097650D01*
X0065250Y0097650D01*
X0062750Y0095150D01*
X0039000Y0095150D01*
X0036500Y0097650D01*
X0017250Y0097650D01*
X0017250Y0092650D02*
X0025250Y0092650D01*
X0036500Y0092650D01*
X0039000Y0090150D01*
X0062750Y0090150D01*
X0065250Y0092650D01*
X0069750Y0092650D01*
X0104000Y0092650D01*
X0106500Y0090150D01*
X0115250Y0090150D01*
X0117750Y0092650D01*
X0122250Y0092650D01*
X0155250Y0092650D01*
X0157750Y0090150D01*
X0167750Y0090150D01*
X0170250Y0092650D01*
X0174750Y0092650D01*
X0170250Y0090150D02*
X0190250Y0090150D01*
X0194000Y0090150D01*
X0196500Y0087650D01*
X0215250Y0087650D01*
X0215250Y0082650D02*
X0196500Y0082650D01*
X0194000Y0085150D01*
X0180250Y0085150D01*
X0174750Y0082650D02*
X0170250Y0082650D01*
X0167750Y0080150D01*
X0130250Y0080150D01*
X0127750Y0082650D01*
X0122250Y0082650D01*
X0117750Y0082650D01*
X0115250Y0080150D01*
X0076500Y0080150D01*
X0074000Y0082650D01*
X0069750Y0082650D01*
X0065250Y0082650D01*
X0062750Y0080150D01*
X0054000Y0080150D01*
X0051500Y0082650D01*
X0017250Y0082650D01*
X0012750Y0082650D01*
X0007750Y0077650D01*
X0010250Y0075150D02*
X0012750Y0077650D01*
X0017250Y0077650D01*
X0025250Y0077650D01*
X0031500Y0071400D01*
X0034000Y0071400D01*
X0039000Y0076400D01*
X0052750Y0076400D01*
X0054000Y0075150D01*
X0062750Y0075150D01*
X0065250Y0077650D01*
X0069750Y0077650D01*
X0074000Y0077650D01*
X0076500Y0075150D01*
X0115250Y0075150D01*
X0117750Y0077650D01*
X0122250Y0077650D01*
X0127750Y0077650D01*
X0130250Y0075150D01*
X0167750Y0075150D01*
X0170250Y0077650D01*
X0174750Y0077650D01*
X0170250Y0080150D02*
X0194000Y0080150D01*
X0196500Y0077650D01*
X0215250Y0077650D01*
X0215250Y0072650D02*
X0196500Y0072650D01*
X0194000Y0075150D01*
X0170250Y0075150D01*
X0167750Y0072650D01*
X0162750Y0072650D01*
X0130250Y0072650D01*
X0127750Y0075150D01*
X0117750Y0075150D01*
X0115250Y0072650D01*
X0110250Y0072650D01*
X0076500Y0072650D01*
X0074000Y0075150D01*
X0065250Y0075150D01*
X0062750Y0072650D01*
X0057750Y0072650D01*
X0054000Y0072650D01*
X0052750Y0073900D01*
X0041500Y0073900D01*
X0037750Y0070150D01*
X0039000Y0066400D02*
X0044000Y0071400D01*
X0052750Y0071400D01*
X0054000Y0070150D01*
X0062750Y0070150D01*
X0065250Y0072650D01*
X0069750Y0072650D01*
X0074000Y0072650D01*
X0076500Y0070150D01*
X0115250Y0070150D01*
X0117750Y0072650D01*
X0122250Y0072650D01*
X0127750Y0072650D01*
X0130250Y0070150D01*
X0167750Y0070150D01*
X0170250Y0072650D01*
X0174750Y0072650D01*
X0170250Y0070150D02*
X0194000Y0070150D01*
X0196500Y0067650D01*
X0215250Y0067650D01*
X0215250Y0062650D02*
X0196500Y0062650D01*
X0194000Y0065150D01*
X0170250Y0065150D01*
X0167750Y0062650D01*
X0162750Y0062650D01*
X0130250Y0062650D01*
X0127750Y0065150D01*
X0117750Y0065150D01*
X0115250Y0062650D01*
X0110250Y0062650D01*
X0076500Y0062650D01*
X0074000Y0065150D01*
X0065250Y0065150D01*
X0062750Y0062650D01*
X0057750Y0062650D01*
X0050250Y0062650D01*
X0052750Y0065150D02*
X0062750Y0065150D01*
X0065250Y0067650D01*
X0069750Y0067650D01*
X0074000Y0067650D01*
X0076500Y0065150D01*
X0115250Y0065150D01*
X0117750Y0067650D01*
X0122250Y0067650D01*
X0127750Y0067650D01*
X0130250Y0065150D01*
X0167750Y0065150D01*
X0170250Y0067650D01*
X0174750Y0067650D01*
X0170250Y0070150D02*
X0167750Y0067650D01*
X0162750Y0067650D01*
X0130250Y0067650D01*
X0127750Y0070150D01*
X0117750Y0070150D01*
X0115250Y0067650D01*
X0110250Y0067650D01*
X0076500Y0067650D01*
X0074000Y0070150D01*
X0065250Y0070150D01*
X0062750Y0067650D01*
X0057750Y0067650D01*
X0054000Y0067650D01*
X0052750Y0068900D01*
X0046500Y0068900D01*
X0045250Y0067650D01*
X0046500Y0063900D02*
X0049000Y0066400D01*
X0051500Y0066400D01*
X0052750Y0065150D01*
X0052750Y0060150D02*
X0051500Y0058900D01*
X0049000Y0058900D01*
X0046500Y0061400D01*
X0031500Y0061400D01*
X0030250Y0062650D01*
X0017250Y0062650D01*
X0017250Y0067650D02*
X0027750Y0067650D01*
X0030250Y0067650D01*
X0034000Y0063900D01*
X0046500Y0063900D01*
X0052750Y0060150D02*
X0062750Y0060150D01*
X0065250Y0062650D01*
X0069750Y0062650D01*
X0074000Y0062650D01*
X0076500Y0060150D01*
X0115250Y0060150D01*
X0117750Y0062650D01*
X0122250Y0062650D01*
X0127750Y0062650D01*
X0130250Y0060150D01*
X0167750Y0060150D01*
X0170250Y0062650D01*
X0174750Y0062650D01*
X0170250Y0060150D02*
X0194000Y0060150D01*
X0196500Y0057650D01*
X0215250Y0057650D01*
X0194000Y0045150D02*
X0192750Y0043900D01*
X0150250Y0043900D01*
X0146500Y0040150D01*
X0146500Y0013900D01*
X0136500Y0013900D02*
X0136500Y0041400D01*
X0141500Y0046400D01*
X0189000Y0046400D01*
X0190250Y0047650D01*
X0186500Y0050150D02*
X0185250Y0048900D01*
X0131500Y0048900D01*
X0126500Y0043900D01*
X0126500Y0013900D01*
X0116500Y0013900D02*
X0116500Y0045150D01*
X0122750Y0051400D01*
X0181500Y0051400D01*
X0182750Y0052650D01*
X0170250Y0060150D02*
X0167750Y0057650D01*
X0162750Y0057650D01*
X0130250Y0057650D01*
X0127750Y0060150D01*
X0117750Y0060150D01*
X0115250Y0057650D01*
X0110250Y0057650D01*
X0076500Y0057650D01*
X0074000Y0060150D01*
X0065250Y0060150D01*
X0062750Y0057650D01*
X0057750Y0057650D01*
X0054000Y0057650D01*
X0052750Y0056400D01*
X0046500Y0056400D01*
X0045250Y0057650D01*
X0039000Y0053900D02*
X0046500Y0046400D01*
X0090250Y0046400D01*
X0106500Y0030150D01*
X0106500Y0013900D01*
X0096500Y0013900D02*
X0096500Y0030150D01*
X0082750Y0043900D01*
X0045250Y0043900D01*
X0037750Y0051400D01*
X0022750Y0051400D01*
X0021500Y0052650D01*
X0025250Y0055150D02*
X0026500Y0053900D01*
X0039000Y0053900D01*
X0036500Y0048900D02*
X0044000Y0041400D01*
X0075250Y0041400D01*
X0086500Y0030150D01*
X0086500Y0013900D01*
X0076500Y0013900D02*
X0076500Y0030150D01*
X0067750Y0038900D01*
X0042750Y0038900D01*
X0035250Y0046400D01*
X0015250Y0046400D01*
X0014000Y0047650D01*
X0017750Y0050150D02*
X0019000Y0048900D01*
X0036500Y0048900D01*
X0034000Y0043900D02*
X0041500Y0036400D01*
X0060250Y0036400D01*
X0066500Y0030150D01*
X0066500Y0013900D01*
X0056500Y0013900D02*
X0056500Y0030150D01*
X0052750Y0033900D01*
X0040250Y0033900D01*
X0032750Y0041400D01*
X0019000Y0041400D01*
X0017750Y0040150D01*
X0015250Y0043900D02*
X0034000Y0043900D01*
X0031500Y0038900D02*
X0039000Y0031400D01*
X0045250Y0031400D01*
X0046500Y0030150D01*
X0046500Y0013900D01*
X0036500Y0013900D02*
X0036500Y0031400D01*
X0034000Y0033900D01*
X0017750Y0033900D01*
X0010250Y0041400D01*
X0010250Y0075150D01*
X0017250Y0072650D02*
X0025250Y0072650D01*
X0027750Y0072650D01*
X0034000Y0066400D01*
X0039000Y0066400D01*
X0032750Y0075150D02*
X0037750Y0080150D01*
X0051500Y0080150D01*
X0054000Y0077650D01*
X0057750Y0077650D01*
X0062750Y0077650D01*
X0065250Y0080150D01*
X0074000Y0080150D01*
X0076500Y0077650D01*
X0110250Y0077650D01*
X0115250Y0077650D01*
X0117750Y0080150D01*
X0127750Y0080150D01*
X0130250Y0077650D01*
X0162750Y0077650D01*
X0167750Y0077650D01*
X0170250Y0080150D01*
X0167750Y0085150D02*
X0170250Y0087650D01*
X0174750Y0087650D01*
X0170250Y0090150D02*
X0167750Y0087650D01*
X0162750Y0087650D01*
X0157750Y0087650D01*
X0155250Y0090150D01*
X0117750Y0090150D01*
X0115250Y0087650D01*
X0110250Y0087650D01*
X0106500Y0087650D01*
X0104000Y0090150D01*
X0065250Y0090150D01*
X0062750Y0087650D01*
X0057750Y0087650D01*
X0062750Y0085150D02*
X0065250Y0087650D01*
X0069750Y0087650D01*
X0104000Y0087650D01*
X0106500Y0085150D01*
X0115250Y0085150D01*
X0117750Y0087650D01*
X0122250Y0087650D01*
X0155250Y0087650D01*
X0157750Y0085150D01*
X0167750Y0085150D01*
X0162750Y0082650D02*
X0157750Y0082650D01*
X0156500Y0083900D01*
X0136500Y0083900D01*
X0117750Y0095150D02*
X0155250Y0095150D01*
X0157750Y0092650D01*
X0162750Y0092650D01*
X0167750Y0092650D01*
X0170250Y0095150D01*
X0194000Y0095150D01*
X0196500Y0092650D01*
X0201500Y0092650D01*
X0215250Y0092650D01*
X0185250Y0117650D02*
X0174750Y0117650D01*
X0170250Y0117650D01*
X0167750Y0115150D01*
X0157750Y0115150D01*
X0155250Y0117650D01*
X0122250Y0117650D01*
X0117750Y0117650D01*
X0115250Y0115150D01*
X0106500Y0115150D01*
X0104000Y0117650D01*
X0069750Y0117650D01*
X0065250Y0117650D01*
X0062750Y0115150D01*
X0065250Y0095150D02*
X0104000Y0095150D01*
X0106500Y0092650D01*
X0110250Y0092650D01*
X0115250Y0092650D01*
X0117750Y0095150D01*
X0105250Y0083900D02*
X0106500Y0082650D01*
X0110250Y0082650D01*
X0105250Y0083900D02*
X0096500Y0083900D01*
X0080250Y0083900D02*
X0075250Y0083900D01*
X0074000Y0085150D01*
X0065250Y0085150D01*
X0062750Y0082650D01*
X0057750Y0082650D01*
X0062750Y0085150D02*
X0039000Y0085150D01*
X0036500Y0087650D01*
X0017250Y0087650D01*
X0011500Y0087650D01*
X0057750Y0092650D02*
X0062750Y0092650D01*
X0065250Y0095150D01*
X0015250Y0043900D02*
X0014000Y0042650D01*
X0021500Y0037650D02*
X0022750Y0038900D01*
X0031500Y0038900D01*
X0156500Y0037650D02*
X0156500Y0013900D01*
X0166500Y0013900D02*
X0166500Y0035150D01*
X0170250Y0038900D01*
X0200250Y0038900D01*
X0201500Y0040150D01*
X0197750Y0042650D02*
X0196500Y0041400D01*
X0160250Y0041400D01*
X0156500Y0037650D01*
X0176500Y0033900D02*
X0179000Y0036400D01*
X0205250Y0036400D01*
X0176500Y0033900D02*
X0176500Y0013900D01*
D16*
X0206500Y0013900D02*
X0206500Y0030150D01*
X0220250Y0043900D01*
X0220250Y0112650D01*
X0220250Y0121400D01*
X0219000Y0122650D01*
X0215250Y0122650D01*
X0211500Y0122650D01*
X0207750Y0126400D01*
X0207750Y0132640D01*
X0207760Y0132650D01*
X0207750Y0126400D02*
X0171500Y0126400D01*
X0167750Y0122650D01*
X0162750Y0122650D01*
X0159000Y0122650D01*
X0155250Y0126400D01*
X0155250Y0132640D01*
X0155260Y0132650D01*
X0155250Y0126400D02*
X0119000Y0126400D01*
X0115250Y0122650D01*
X0110250Y0122650D01*
X0106500Y0122650D01*
X0102750Y0126400D01*
X0102750Y0132640D01*
X0102760Y0132650D01*
X0102750Y0126400D02*
X0066500Y0126400D01*
X0062750Y0122650D01*
X0057750Y0122650D01*
X0054000Y0122650D01*
X0050250Y0126400D01*
X0050250Y0132640D01*
X0050260Y0132650D01*
M02*
