G75*
%MOIN*%
%OFA0B0*%
%FSLAX25Y25*%
%IPPOS*%
%LPD*%
%AMOC8*
5,1,8,0,0,1.08239X$1,22.5*
%
%ADD10C,0.00500*%
D10*
X0019000Y0001400D02*
X0019000Y0028900D01*
X0019000Y0031400D01*
X0001500Y0031400D01*
X0001500Y0132650D01*
X0001487Y0132819D01*
X0001478Y0132988D01*
X0001473Y0133157D01*
X0001472Y0133327D01*
X0001476Y0133496D01*
X0001483Y0133666D01*
X0001495Y0133835D01*
X0001511Y0134003D01*
X0001530Y0134171D01*
X0001555Y0134339D01*
X0001583Y0134506D01*
X0001615Y0134673D01*
X0001651Y0134838D01*
X0001692Y0135003D01*
X0001736Y0135166D01*
X0001784Y0135328D01*
X0001837Y0135490D01*
X0001893Y0135649D01*
X0001953Y0135808D01*
X0002017Y0135965D01*
X0002085Y0136120D01*
X0002157Y0136273D01*
X0002233Y0136425D01*
X0002312Y0136575D01*
X0002395Y0136723D01*
X0002481Y0136868D01*
X0002571Y0137012D01*
X0002664Y0137153D01*
X0002761Y0137292D01*
X0002862Y0137429D01*
X0002965Y0137563D01*
X0003072Y0137694D01*
X0003182Y0137823D01*
X0003295Y0137949D01*
X0003411Y0138072D01*
X0003531Y0138193D01*
X0003653Y0138310D01*
X0003778Y0138424D01*
X0003906Y0138536D01*
X0004036Y0138644D01*
X0004169Y0138749D01*
X0004305Y0138850D01*
X0004443Y0138948D01*
X0004583Y0139043D01*
X0004726Y0139135D01*
X0004871Y0139222D01*
X0005018Y0139307D01*
X0005167Y0139387D01*
X0005318Y0139464D01*
X0005471Y0139537D01*
X0005625Y0139607D01*
X0005781Y0139672D01*
X0005939Y0139734D01*
X0006098Y0139792D01*
X0006259Y0139846D01*
X0006421Y0139896D01*
X0006584Y0139942D01*
X0006748Y0139984D01*
X0006913Y0140021D01*
X0007079Y0140055D01*
X0007246Y0140085D01*
X0007413Y0140111D01*
X0007582Y0140132D01*
X0007750Y0140150D01*
X0224000Y0140150D01*
X0224166Y0140163D01*
X0224333Y0140172D01*
X0224500Y0140177D01*
X0224666Y0140178D01*
X0224833Y0140175D01*
X0225000Y0140168D01*
X0225166Y0140157D01*
X0225332Y0140142D01*
X0225498Y0140123D01*
X0225663Y0140099D01*
X0225828Y0140072D01*
X0225992Y0140041D01*
X0226155Y0140006D01*
X0226317Y0139967D01*
X0226478Y0139925D01*
X0226639Y0139878D01*
X0226798Y0139827D01*
X0226955Y0139773D01*
X0227112Y0139715D01*
X0227266Y0139653D01*
X0227420Y0139587D01*
X0227571Y0139518D01*
X0227721Y0139445D01*
X0227870Y0139368D01*
X0228016Y0139288D01*
X0228160Y0139204D01*
X0228302Y0139117D01*
X0228443Y0139026D01*
X0228580Y0138932D01*
X0228716Y0138835D01*
X0228849Y0138735D01*
X0228980Y0138631D01*
X0229108Y0138524D01*
X0229233Y0138414D01*
X0229356Y0138302D01*
X0229476Y0138186D01*
X0229594Y0138067D01*
X0229708Y0137946D01*
X0229819Y0137821D01*
X0229928Y0137695D01*
X0230033Y0137565D01*
X0230135Y0137433D01*
X0230234Y0137299D01*
X0230330Y0137162D01*
X0230422Y0137023D01*
X0230511Y0136882D01*
X0230596Y0136739D01*
X0230678Y0136593D01*
X0230756Y0136446D01*
X0230831Y0136297D01*
X0230903Y0136146D01*
X0230970Y0135994D01*
X0231034Y0135840D01*
X0231094Y0135684D01*
X0231150Y0135527D01*
X0231203Y0135369D01*
X0231252Y0135209D01*
X0231296Y0135048D01*
X0231337Y0134887D01*
X0231374Y0134724D01*
X0231407Y0134561D01*
X0231436Y0134396D01*
X0231461Y0134231D01*
X0231483Y0134066D01*
X0231500Y0133900D01*
X0231500Y0031400D01*
X0214000Y0031400D01*
X0214000Y0028900D01*
X0214000Y0001400D01*
X0019000Y0001400D01*
M02*
